<svg xmlns="http://www.w3.org/2000/svg" xmlns:xlink="http://www.w3.org/1999/xlink" width="1000" zoomAndPan="magnify" viewBox="0 0 750 299.999988" height="400" preserveAspectRatio="xMidYMid meet" version="1.0"><defs><g/><clipPath id="70fbce4d52"><path d="M 37.828125 54.023438 L 723.910156 54.023438 L 723.910156 256.914062 L 37.828125 256.914062 Z M 37.828125 54.023438 " clip-rule="nonzero"/></clipPath><clipPath id="bf47dfad00"><path d="M 718.777344 256.914062 L 42.539062 256.914062 C 39.941406 256.914062 37.828125 254.796875 37.828125 252.199219 L 37.828125 58.738281 C 37.828125 56.140625 39.941406 54.023438 42.539062 54.023438 L 718.777344 54.023438 C 721.375 54.023438 723.488281 56.140625 723.488281 58.738281 L 723.488281 252.199219 C 723.488281 254.796875 721.375 256.914062 718.777344 256.914062 Z M 718.777344 256.914062 " clip-rule="nonzero"/></clipPath><clipPath id="f81b8c3cba"><path d="M 26.511719 43.085938 L 711.59375 43.085938 L 711.59375 246.757812 L 26.511719 246.757812 Z M 26.511719 43.085938 " clip-rule="nonzero"/></clipPath><clipPath id="dfda744e0e"><path d="M 711.269531 46.484375 L 711.269531 57.765625 L 26.511719 57.765625 L 26.511719 46.484375 C 26.511719 44.628906 28.054688 43.085938 29.910156 43.085938 L 707.867188 43.085938 C 709.722656 43.085938 711.269531 44.628906 711.269531 46.484375 Z M 711.269531 241.96875 L 711.269531 243.359375 C 711.269531 245.214844 709.761719 246.757812 707.867188 246.757812 L 29.910156 246.757812 C 28.054688 246.757812 26.511719 245.253906 26.511719 243.359375 L 26.511719 241.96875 Z M 711.269531 241.96875 " clip-rule="nonzero"/></clipPath><clipPath id="8377ad1467"><path d="M 32.683594 46.171875 L 704.265625 46.171875 L 704.265625 54.65625 L 32.683594 54.65625 Z M 32.683594 46.171875 " clip-rule="nonzero"/></clipPath><clipPath id="b10ca9d3a6"><path d="M 702.421875 46.292969 L 697.476562 46.292969 C 696.550781 46.292969 695.816406 47.027344 695.816406 47.953125 L 695.816406 52.898438 C 695.816406 53.824219 696.550781 54.558594 697.476562 54.558594 L 702.421875 54.558594 C 703.347656 54.558594 704.082031 53.824219 704.082031 52.898438 L 704.082031 47.992188 C 704.121094 47.0625 703.347656 46.292969 702.421875 46.292969 Z M 35.859375 47.449219 C 37.519531 47.449219 38.832031 48.765625 38.832031 50.425781 C 38.832031 52.085938 37.519531 53.398438 35.859375 53.398438 C 34.199219 53.398438 32.882812 52.085938 32.882812 50.425781 C 32.882812 48.765625 34.199219 47.449219 35.859375 47.449219 Z M 44.742188 47.449219 C 46.40625 47.449219 47.71875 48.765625 47.71875 50.425781 C 47.71875 52.085938 46.40625 53.398438 44.742188 53.398438 C 43.082031 53.398438 41.769531 52.085938 41.769531 50.425781 C 41.769531 48.765625 43.082031 47.449219 44.742188 47.449219 Z M 54.632812 47.449219 C 56.292969 47.449219 57.605469 48.765625 57.605469 50.425781 C 57.605469 52.085938 56.292969 53.398438 54.632812 53.398438 C 52.972656 53.398438 51.660156 52.085938 51.660156 50.425781 C 51.660156 48.765625 52.972656 47.449219 54.632812 47.449219 Z M 551.839844 47.757812 C 551.839844 48.109375 550.78125 48.378906 549.71875 48.417969 L 186.816406 48.417969 C 185.625 48.417969 184.828125 48.144531 184.828125 47.796875 C 184.828125 47.449219 185.757812 47.179688 186.816406 47.140625 L 549.71875 47.140625 C 550.910156 47.101562 551.839844 47.375 551.839844 47.757812 Z M 551.839844 50.425781 C 551.839844 50.773438 550.78125 51.042969 549.71875 51.082031 L 186.816406 51.082031 C 185.625 51.082031 184.828125 50.8125 184.828125 50.464844 C 184.828125 50.117188 185.757812 49.847656 186.816406 49.808594 L 549.71875 49.808594 C 550.910156 49.769531 551.839844 50.039062 551.839844 50.425781 Z M 551.839844 53.089844 C 551.839844 53.4375 550.78125 53.707031 549.71875 53.746094 L 186.816406 53.746094 C 185.625 53.746094 184.828125 53.476562 184.828125 53.128906 C 184.828125 52.78125 185.757812 52.511719 186.816406 52.472656 L 549.71875 52.472656 C 550.910156 52.433594 551.839844 52.703125 551.839844 53.089844 Z M 551.839844 53.089844 " clip-rule="nonzero"/></clipPath><clipPath id="dcbf7acaf6"><path d="M 26.511719 57.765625 L 711.269531 57.765625 L 711.269531 241.96875 L 26.511719 241.96875 Z M 26.511719 57.765625 " clip-rule="nonzero"/></clipPath></defs><rect x="-75" width="900" fill="#ffffff" y="-29.999999" height="359.999986" fill-opacity="1"/><rect x="-75" width="900" fill="#ffffff" y="-29.999999" height="359.999986" fill-opacity="1"/><g clip-path="url(#70fbce4d52)"><g clip-path="url(#bf47dfad00)"><path fill="#75c7fb" d="M 37.828125 54.023438 L 723.425781 54.023438 L 723.425781 256.914062 L 37.828125 256.914062 Z M 37.828125 54.023438 " fill-opacity="1" fill-rule="nonzero"/></g></g><g clip-path="url(#f81b8c3cba)"><g clip-path="url(#dfda744e0e)"><path fill="#eff0f2" d="M 26.511719 43.085938 L 711.207031 43.085938 L 711.207031 246.757812 L 26.511719 246.757812 Z M 26.511719 43.085938 " fill-opacity="1" fill-rule="nonzero"/></g></g><g clip-path="url(#8377ad1467)"><g clip-path="url(#b10ca9d3a6)"><path fill="#9aa7b2" d="M 26.511719 43.085938 L 711.207031 43.085938 L 711.207031 246.757812 L 26.511719 246.757812 Z M 26.511719 43.085938 " fill-opacity="1" fill-rule="nonzero"/></g></g><g clip-path="url(#dcbf7acaf6)"><path fill="#ffffff" d="M 26.511719 43.085938 L 711.207031 43.085938 L 711.207031 246.757812 L 26.511719 246.757812 Z M 26.511719 43.085938 " fill-opacity="1" fill-rule="nonzero"/></g><g fill="#4c0bd1" fill-opacity="1"><g transform="translate(51.735872, 138.432195)"><g><path d="M 4.734375 0 L 4.734375 -18.953125 L 0 -18.953125 L 0 -21.328125 L 11.84375 -21.328125 L 11.84375 -18.953125 L 7.109375 -18.953125 L 7.109375 0 Z M 4.734375 0 "/></g></g></g><g fill="#4c0bd1" fill-opacity="1"><g transform="translate(65.950903, 138.432195)"><g><path d="M 9.484375 0 L 9.484375 -11.84375 L 11.84375 -11.84375 L 11.84375 0 Z M 0 0 L 0 -21.328125 L 2.375 -21.328125 L 2.375 -14.21875 L 9.484375 -14.21875 L 9.484375 -11.84375 L 2.375 -11.84375 L 2.375 0 Z M 0 0 "/></g></g></g><g fill="#4c0bd1" fill-opacity="1"><g transform="translate(80.165934, 138.432195)"><g><path d="M 2.375 0 L 2.375 -2.375 L 11.84375 -2.375 L 11.84375 0 Z M 0 -2.375 L 0 -11.84375 L 2.375 -11.84375 L 2.375 -9.484375 L 9.484375 -9.484375 L 9.484375 -11.84375 L 11.84375 -11.84375 L 11.84375 -7.109375 L 2.375 -7.109375 L 2.375 -2.375 Z M 2.375 -11.84375 L 2.375 -14.21875 L 9.484375 -14.21875 L 9.484375 -11.84375 Z M 2.375 -11.84375 "/></g></g></g><g fill="#4c0bd1" fill-opacity="1"><g transform="translate(94.380964, 138.432195)"><g/></g></g><g fill="#4c0bd1" fill-opacity="1"><g transform="translate(99.119308, 138.432195)"><g><path d="M 9.484375 -2.375 L 9.484375 -11.84375 L 11.84375 -11.84375 L 11.84375 -2.375 Z M 0 0 L 0 -21.328125 L 2.375 -21.328125 L 2.375 -14.21875 L 9.484375 -14.21875 L 9.484375 -11.84375 L 2.375 -11.84375 L 2.375 -2.375 L 9.484375 -2.375 L 9.484375 0 Z M 0 0 "/></g></g></g><g fill="#4c0bd1" fill-opacity="1"><g transform="translate(113.334338, 138.432195)"><g><path d="M 2.375 0 L 2.375 -2.375 L 11.84375 -2.375 L 11.84375 0 Z M 0 -2.375 L 0 -11.84375 L 2.375 -11.84375 L 2.375 -9.484375 L 9.484375 -9.484375 L 9.484375 -11.84375 L 11.84375 -11.84375 L 11.84375 -7.109375 L 2.375 -7.109375 L 2.375 -2.375 Z M 2.375 -11.84375 L 2.375 -14.21875 L 9.484375 -14.21875 L 9.484375 -11.84375 Z M 2.375 -11.84375 "/></g></g></g><g fill="#4c0bd1" fill-opacity="1"><g transform="translate(127.549369, 138.432195)"><g><path d="M 2.375 0 L 2.375 -2.375 L 9.484375 -2.375 L 9.484375 0 Z M 0 -2.375 L 0 -7.109375 L 2.375 -7.109375 L 2.375 -2.375 Z M 9.484375 -2.375 L 9.484375 -7.109375 L 2.375 -7.109375 L 2.375 -9.484375 L 9.484375 -9.484375 L 9.484375 -11.84375 L 11.84375 -11.84375 L 11.84375 -2.375 Z M 2.375 -11.84375 L 2.375 -14.21875 L 9.484375 -14.21875 L 9.484375 -11.84375 Z M 2.375 -11.84375 "/></g></g></g><g fill="#4c0bd1" fill-opacity="1"><g transform="translate(141.7644, 138.432195)"><g><path d="M 0 -2.375 L 0 -14.21875 L 2.375 -14.21875 L 2.375 -2.375 Z M 2.375 0 L 2.375 -2.375 L 9.484375 -2.375 L 9.484375 -14.21875 L 11.84375 -14.21875 L 11.84375 0 Z M 2.375 0 "/></g></g></g><g fill="#4c0bd1" fill-opacity="1"><g transform="translate(155.97943, 138.432195)"><g><path d="M 4.734375 0 L 4.734375 -2.375 L 9.484375 -2.375 L 9.484375 0 Z M 2.375 -2.375 L 2.375 -11.84375 L 0 -11.84375 L 0 -14.21875 L 2.375 -14.21875 L 2.375 -21.328125 L 4.734375 -21.328125 L 4.734375 -14.21875 L 9.484375 -14.21875 L 9.484375 -11.84375 L 4.734375 -11.84375 L 4.734375 -2.375 Z M 2.375 -2.375 "/></g></g></g><g fill="#4c0bd1" fill-opacity="1"><g transform="translate(167.825289, 138.432195)"><g><path d="M 2.375 0 L 2.375 -11.84375 L 0 -11.84375 L 0 -14.21875 L 4.734375 -14.21875 L 4.734375 0 Z M 2.375 -18.953125 L 2.375 -21.328125 L 4.734375 -21.328125 L 4.734375 -18.953125 Z M 2.375 -18.953125 "/></g></g></g><g fill="#4c0bd1" fill-opacity="1"><g transform="translate(174.932804, 138.432195)"><g><path d="M 2.375 0 L 2.375 -11.84375 L 0 -11.84375 L 0 -14.21875 L 2.375 -14.21875 L 2.375 -18.953125 L 4.734375 -18.953125 L 4.734375 -14.21875 L 9.484375 -14.21875 L 9.484375 -11.84375 L 4.734375 -11.84375 L 4.734375 0 Z M 4.734375 -18.953125 L 4.734375 -21.328125 L 9.484375 -21.328125 L 9.484375 -18.953125 Z M 4.734375 -18.953125 "/></g></g></g><g fill="#4c0bd1" fill-opacity="1"><g transform="translate(186.778663, 138.432195)"><g><path d="M 0 -2.375 L 0 -14.21875 L 2.375 -14.21875 L 2.375 -2.375 Z M 2.375 0 L 2.375 -2.375 L 9.484375 -2.375 L 9.484375 -14.21875 L 11.84375 -14.21875 L 11.84375 0 Z M 2.375 0 "/></g></g></g><g fill="#4c0bd1" fill-opacity="1"><g transform="translate(200.993694, 138.432195)"><g><path d="M 2.375 0 L 2.375 -18.953125 L 0 -18.953125 L 0 -21.328125 L 4.734375 -21.328125 L 4.734375 0 Z M 2.375 0 "/></g></g></g><g fill="#4c0bd1" fill-opacity="1"><g transform="translate(208.101209, 138.432195)"><g/></g></g><g fill="#4c0bd1" fill-opacity="1"><g transform="translate(212.839552, 138.432195)"><g><path d="M 4.734375 0 L 4.734375 -2.375 L 9.484375 -2.375 L 9.484375 0 Z M 2.375 -2.375 L 2.375 -11.84375 L 0 -11.84375 L 0 -14.21875 L 2.375 -14.21875 L 2.375 -21.328125 L 4.734375 -21.328125 L 4.734375 -14.21875 L 9.484375 -14.21875 L 9.484375 -11.84375 L 4.734375 -11.84375 L 4.734375 -2.375 Z M 2.375 -2.375 "/></g></g></g><g fill="#4c0bd1" fill-opacity="1"><g transform="translate(224.685411, 138.432195)"><g><path d="M 9.484375 0 L 9.484375 -11.84375 L 11.84375 -11.84375 L 11.84375 0 Z M 0 0 L 0 -21.328125 L 2.375 -21.328125 L 2.375 -14.21875 L 9.484375 -14.21875 L 9.484375 -11.84375 L 2.375 -11.84375 L 2.375 0 Z M 0 0 "/></g></g></g><g fill="#4c0bd1" fill-opacity="1"><g transform="translate(238.900442, 138.432195)"><g><path d="M 2.375 0 L 2.375 -11.84375 L 0 -11.84375 L 0 -14.21875 L 4.734375 -14.21875 L 4.734375 0 Z M 2.375 -18.953125 L 2.375 -21.328125 L 4.734375 -21.328125 L 4.734375 -18.953125 Z M 2.375 -18.953125 "/></g></g></g><g fill="#4c0bd1" fill-opacity="1"><g transform="translate(246.007957, 138.432195)"><g><path d="M 9.484375 0 L 9.484375 -11.84375 L 11.84375 -11.84375 L 11.84375 0 Z M 0 0 L 0 -14.21875 L 9.484375 -14.21875 L 9.484375 -11.84375 L 2.375 -11.84375 L 2.375 0 Z M 0 0 "/></g></g></g><g fill="#4c0bd1" fill-opacity="1"><g transform="translate(260.222988, 138.432195)"><g><path d="M 2.375 4.734375 L 2.375 2.375 L 9.484375 2.375 L 9.484375 4.734375 Z M 0 -4.734375 L 0 -11.84375 L 2.375 -11.84375 L 2.375 -4.734375 Z M 9.484375 2.375 L 9.484375 -2.375 L 2.375 -2.375 L 2.375 -4.734375 L 9.484375 -4.734375 L 9.484375 -11.84375 L 11.84375 -11.84375 L 11.84375 2.375 Z M 2.375 -11.84375 L 2.375 -14.21875 L 9.484375 -14.21875 L 9.484375 -11.84375 Z M 2.375 -11.84375 "/></g></g></g><g fill="#4c0bd1" fill-opacity="1"><g transform="translate(274.438018, 138.432195)"><g/></g></g><g fill="#4c0bd1" fill-opacity="1"><g transform="translate(279.176362, 138.432195)"><g><path d="M 2.375 0 L 2.375 -2.375 L 9.484375 -2.375 L 9.484375 0 Z M 0 -2.375 L 0 -7.109375 L 2.375 -7.109375 L 2.375 -2.375 Z M 9.484375 -2.375 L 9.484375 -7.109375 L 2.375 -7.109375 L 2.375 -9.484375 L 9.484375 -9.484375 L 9.484375 -11.84375 L 11.84375 -11.84375 L 11.84375 -2.375 Z M 2.375 -11.84375 L 2.375 -14.21875 L 9.484375 -14.21875 L 9.484375 -11.84375 Z M 2.375 -11.84375 "/></g></g></g><g fill="#4c0bd1" fill-opacity="1"><g transform="translate(293.391392, 138.432195)"><g><path d="M 9.484375 -2.375 L 9.484375 -11.84375 L 11.84375 -11.84375 L 11.84375 -2.375 Z M 0 0 L 0 -21.328125 L 2.375 -21.328125 L 2.375 -14.21875 L 9.484375 -14.21875 L 9.484375 -11.84375 L 2.375 -11.84375 L 2.375 -2.375 L 9.484375 -2.375 L 9.484375 0 Z M 0 0 "/></g></g></g><g fill="#4c0bd1" fill-opacity="1"><g transform="translate(307.606423, 138.432195)"><g><path d="M 2.375 0 L 2.375 -2.375 L 9.484375 -2.375 L 9.484375 0 Z M 0 -2.375 L 0 -11.84375 L 2.375 -11.84375 L 2.375 -2.375 Z M 9.484375 -2.375 L 9.484375 -11.84375 L 11.84375 -11.84375 L 11.84375 -2.375 Z M 2.375 -11.84375 L 2.375 -14.21875 L 9.484375 -14.21875 L 9.484375 -11.84375 Z M 2.375 -11.84375 "/></g></g></g><g fill="#4c0bd1" fill-opacity="1"><g transform="translate(321.821454, 138.432195)"><g><path d="M 0 -2.375 L 0 -14.21875 L 2.375 -14.21875 L 2.375 -2.375 Z M 2.375 0 L 2.375 -2.375 L 9.484375 -2.375 L 9.484375 -14.21875 L 11.84375 -14.21875 L 11.84375 0 Z M 2.375 0 "/></g></g></g><g fill="#4c0bd1" fill-opacity="1"><g transform="translate(336.036484, 138.432195)"><g><path d="M 4.734375 0 L 4.734375 -2.375 L 9.484375 -2.375 L 9.484375 0 Z M 2.375 -2.375 L 2.375 -11.84375 L 0 -11.84375 L 0 -14.21875 L 2.375 -14.21875 L 2.375 -21.328125 L 4.734375 -21.328125 L 4.734375 -14.21875 L 9.484375 -14.21875 L 9.484375 -11.84375 L 4.734375 -11.84375 L 4.734375 -2.375 Z M 2.375 -2.375 "/></g></g></g><g fill="#4c0bd1" fill-opacity="1"><g transform="translate(347.882343, 138.432195)"><g/></g></g><g fill="#4c0bd1" fill-opacity="1"><g transform="translate(352.620686, 138.432195)"><g><path d="M 2.375 0 L 2.375 -18.953125 L 0 -18.953125 L 0 -21.328125 L 4.734375 -21.328125 L 4.734375 0 Z M 2.375 0 "/></g></g></g><g fill="#4c0bd1" fill-opacity="1"><g transform="translate(359.728202, 138.432195)"><g><path d="M 2.375 0 L 2.375 -2.375 L 11.84375 -2.375 L 11.84375 0 Z M 0 -2.375 L 0 -11.84375 L 2.375 -11.84375 L 2.375 -9.484375 L 9.484375 -9.484375 L 9.484375 -11.84375 L 11.84375 -11.84375 L 11.84375 -7.109375 L 2.375 -7.109375 L 2.375 -2.375 Z M 2.375 -11.84375 L 2.375 -14.21875 L 9.484375 -14.21875 L 9.484375 -11.84375 Z M 2.375 -11.84375 "/></g></g></g><g fill="#4c0bd1" fill-opacity="1"><g transform="translate(373.943232, 138.432195)"><g><path d="M 2.375 0 L 2.375 -2.375 L 9.484375 -2.375 L 9.484375 0 Z M 0 -2.375 L 0 -7.109375 L 2.375 -7.109375 L 2.375 -2.375 Z M 9.484375 -2.375 L 9.484375 -7.109375 L 2.375 -7.109375 L 2.375 -9.484375 L 9.484375 -9.484375 L 9.484375 -11.84375 L 11.84375 -11.84375 L 11.84375 -2.375 Z M 2.375 -11.84375 L 2.375 -14.21875 L 9.484375 -14.21875 L 9.484375 -11.84375 Z M 2.375 -11.84375 "/></g></g></g><g fill="#4c0bd1" fill-opacity="1"><g transform="translate(388.158263, 138.432195)"><g><path d="M 9.484375 -9.484375 L 9.484375 -11.84375 L 11.84375 -11.84375 L 11.84375 -9.484375 Z M 0 0 L 0 -14.21875 L 9.484375 -14.21875 L 9.484375 -11.84375 L 2.375 -11.84375 L 2.375 0 Z M 0 0 "/></g></g></g><g fill="#4c0bd1" fill-opacity="1"><g transform="translate(402.373294, 138.432195)"><g><path d="M 9.484375 0 L 9.484375 -11.84375 L 11.84375 -11.84375 L 11.84375 0 Z M 0 0 L 0 -14.21875 L 9.484375 -14.21875 L 9.484375 -11.84375 L 2.375 -11.84375 L 2.375 0 Z M 0 0 "/></g></g></g><g fill="#4c0bd1" fill-opacity="1"><g transform="translate(416.588324, 138.432195)"><g><path d="M 2.375 0 L 2.375 -11.84375 L 0 -11.84375 L 0 -14.21875 L 4.734375 -14.21875 L 4.734375 0 Z M 2.375 -18.953125 L 2.375 -21.328125 L 4.734375 -21.328125 L 4.734375 -18.953125 Z M 2.375 -18.953125 "/></g></g></g><g fill="#4c0bd1" fill-opacity="1"><g transform="translate(423.695839, 138.432195)"><g><path d="M 9.484375 0 L 9.484375 -11.84375 L 11.84375 -11.84375 L 11.84375 0 Z M 0 0 L 0 -14.21875 L 9.484375 -14.21875 L 9.484375 -11.84375 L 2.375 -11.84375 L 2.375 0 Z M 0 0 "/></g></g></g><g fill="#4c0bd1" fill-opacity="1"><g transform="translate(437.91087, 138.432195)"><g><path d="M 2.375 4.734375 L 2.375 2.375 L 9.484375 2.375 L 9.484375 4.734375 Z M 0 -4.734375 L 0 -11.84375 L 2.375 -11.84375 L 2.375 -4.734375 Z M 9.484375 2.375 L 9.484375 -2.375 L 2.375 -2.375 L 2.375 -4.734375 L 9.484375 -4.734375 L 9.484375 -11.84375 L 11.84375 -11.84375 L 11.84375 2.375 Z M 2.375 -11.84375 L 2.375 -14.21875 L 9.484375 -14.21875 L 9.484375 -11.84375 Z M 2.375 -11.84375 "/></g></g></g><g fill="#4c0bd1" fill-opacity="1"><g transform="translate(452.125901, 138.432195)"><g/></g></g><g fill="#4c0bd1" fill-opacity="1"><g transform="translate(456.864244, 138.432195)"><g><path d="M 2.375 0 L 2.375 -11.84375 L 0 -11.84375 L 0 -14.21875 L 4.734375 -14.21875 L 4.734375 0 Z M 2.375 -18.953125 L 2.375 -21.328125 L 4.734375 -21.328125 L 4.734375 -18.953125 Z M 2.375 -18.953125 "/></g></g></g><g fill="#4c0bd1" fill-opacity="1"><g transform="translate(463.97176, 138.432195)"><g><path d="M 0 0 L 0 -2.375 L 9.484375 -2.375 L 9.484375 0 Z M 9.484375 -2.375 L 9.484375 -7.109375 L 11.84375 -7.109375 L 11.84375 -2.375 Z M 2.375 -7.109375 L 2.375 -9.484375 L 9.484375 -9.484375 L 9.484375 -7.109375 Z M 0 -9.484375 L 0 -11.84375 L 2.375 -11.84375 L 2.375 -9.484375 Z M 2.375 -11.84375 L 2.375 -14.21875 L 11.84375 -14.21875 L 11.84375 -11.84375 Z M 2.375 -11.84375 "/></g></g></g><g fill="#4c0bd1" fill-opacity="1"><g transform="translate(478.18679, 138.432195)"><g/></g></g><g fill="#4c0bd1" fill-opacity="1"><g transform="translate(482.925134, 138.432195)"><g><path d="M 4.734375 0 L 4.734375 -2.375 L 9.484375 -2.375 L 9.484375 0 Z M 2.375 -2.375 L 2.375 -11.84375 L 0 -11.84375 L 0 -14.21875 L 2.375 -14.21875 L 2.375 -21.328125 L 4.734375 -21.328125 L 4.734375 -14.21875 L 9.484375 -14.21875 L 9.484375 -11.84375 L 4.734375 -11.84375 L 4.734375 -2.375 Z M 2.375 -2.375 "/></g></g></g><g fill="#4c0bd1" fill-opacity="1"><g transform="translate(494.770992, 138.432195)"><g><path d="M 9.484375 0 L 9.484375 -11.84375 L 11.84375 -11.84375 L 11.84375 0 Z M 0 0 L 0 -21.328125 L 2.375 -21.328125 L 2.375 -14.21875 L 9.484375 -14.21875 L 9.484375 -11.84375 L 2.375 -11.84375 L 2.375 0 Z M 0 0 "/></g></g></g><g fill="#4c0bd1" fill-opacity="1"><g transform="translate(508.986023, 138.432195)"><g><path d="M 2.375 0 L 2.375 -2.375 L 9.484375 -2.375 L 9.484375 0 Z M 0 -2.375 L 0 -7.109375 L 2.375 -7.109375 L 2.375 -2.375 Z M 9.484375 -2.375 L 9.484375 -7.109375 L 2.375 -7.109375 L 2.375 -9.484375 L 9.484375 -9.484375 L 9.484375 -11.84375 L 11.84375 -11.84375 L 11.84375 -2.375 Z M 2.375 -11.84375 L 2.375 -14.21875 L 9.484375 -14.21875 L 9.484375 -11.84375 Z M 2.375 -11.84375 "/></g></g></g><g fill="#4c0bd1" fill-opacity="1"><g transform="translate(523.201054, 138.432195)"><g><path d="M 4.734375 0 L 4.734375 -2.375 L 9.484375 -2.375 L 9.484375 0 Z M 2.375 -2.375 L 2.375 -11.84375 L 0 -11.84375 L 0 -14.21875 L 2.375 -14.21875 L 2.375 -21.328125 L 4.734375 -21.328125 L 4.734375 -14.21875 L 9.484375 -14.21875 L 9.484375 -11.84375 L 4.734375 -11.84375 L 4.734375 -2.375 Z M 2.375 -2.375 "/></g></g></g><g fill="#4c0bd1" fill-opacity="1"><g transform="translate(535.046912, 138.432195)"><g/></g></g><g fill="#4c0bd1" fill-opacity="1"><g transform="translate(539.785256, 138.432195)"><g><path d="M 9.484375 0 L 9.484375 -11.84375 L 11.84375 -11.84375 L 11.84375 0 Z M 0 0 L 0 -14.21875 L 9.484375 -14.21875 L 9.484375 -11.84375 L 2.375 -11.84375 L 2.375 0 Z M 0 0 "/></g></g></g><g fill="#4c0bd1" fill-opacity="1"><g transform="translate(554.000286, 138.432195)"><g><path d="M 2.375 0 L 2.375 -2.375 L 9.484375 -2.375 L 9.484375 0 Z M 0 -2.375 L 0 -11.84375 L 2.375 -11.84375 L 2.375 -2.375 Z M 9.484375 -2.375 L 9.484375 -11.84375 L 11.84375 -11.84375 L 11.84375 -2.375 Z M 2.375 -11.84375 L 2.375 -14.21875 L 9.484375 -14.21875 L 9.484375 -11.84375 Z M 2.375 -11.84375 "/></g></g></g><g fill="#4c0bd1" fill-opacity="1"><g transform="translate(568.215317, 138.432195)"><g/></g></g><g fill="#4c0bd1" fill-opacity="1"><g transform="translate(572.953661, 138.432195)"><g><path d="M 2.375 0 L 2.375 -2.375 L 9.484375 -2.375 L 9.484375 0 Z M 0 -2.375 L 0 -11.84375 L 2.375 -11.84375 L 2.375 -2.375 Z M 9.484375 -2.375 L 9.484375 -11.84375 L 11.84375 -11.84375 L 11.84375 -2.375 Z M 2.375 -11.84375 L 2.375 -14.21875 L 9.484375 -14.21875 L 9.484375 -11.84375 Z M 2.375 -11.84375 "/></g></g></g><g fill="#4c0bd1" fill-opacity="1"><g transform="translate(587.168691, 138.432195)"><g><path d="M 9.484375 0 L 9.484375 -11.84375 L 11.84375 -11.84375 L 11.84375 0 Z M 0 0 L 0 -14.21875 L 9.484375 -14.21875 L 9.484375 -11.84375 L 2.375 -11.84375 L 2.375 0 Z M 0 0 "/></g></g></g><g fill="#4c0bd1" fill-opacity="1"><g transform="translate(601.383722, 138.432195)"><g><path d="M 2.375 0 L 2.375 -2.375 L 11.84375 -2.375 L 11.84375 0 Z M 0 -2.375 L 0 -11.84375 L 2.375 -11.84375 L 2.375 -9.484375 L 9.484375 -9.484375 L 9.484375 -11.84375 L 11.84375 -11.84375 L 11.84375 -7.109375 L 2.375 -7.109375 L 2.375 -2.375 Z M 2.375 -11.84375 L 2.375 -14.21875 L 9.484375 -14.21875 L 9.484375 -11.84375 Z M 2.375 -11.84375 "/></g></g></g><g fill="#4c0bd1" fill-opacity="1"><g transform="translate(615.598752, 138.432195)"><g/></g></g><g fill="#4c0bd1" fill-opacity="1"><g transform="translate(620.337096, 138.432195)"><g><path d="M 2.375 0 L 2.375 -2.375 L 11.84375 -2.375 L 11.84375 0 Z M 0 -2.375 L 0 -11.84375 L 2.375 -11.84375 L 2.375 -2.375 Z M 2.375 -11.84375 L 2.375 -14.21875 L 11.84375 -14.21875 L 11.84375 -11.84375 Z M 2.375 -11.84375 "/></g></g></g><g fill="#4c0bd1" fill-opacity="1"><g transform="translate(634.552127, 138.432195)"><g><path d="M 2.375 0 L 2.375 -2.375 L 9.484375 -2.375 L 9.484375 0 Z M 0 -2.375 L 0 -7.109375 L 2.375 -7.109375 L 2.375 -2.375 Z M 9.484375 -2.375 L 9.484375 -7.109375 L 2.375 -7.109375 L 2.375 -9.484375 L 9.484375 -9.484375 L 9.484375 -11.84375 L 11.84375 -11.84375 L 11.84375 -2.375 Z M 2.375 -11.84375 L 2.375 -14.21875 L 9.484375 -14.21875 L 9.484375 -11.84375 Z M 2.375 -11.84375 "/></g></g></g><g fill="#4c0bd1" fill-opacity="1"><g transform="translate(648.767157, 138.432195)"><g><path d="M 9.484375 0 L 9.484375 -11.84375 L 11.84375 -11.84375 L 11.84375 0 Z M 0 0 L 0 -14.21875 L 9.484375 -14.21875 L 9.484375 -11.84375 L 2.375 -11.84375 L 2.375 0 Z M 0 0 "/></g></g></g><g fill="#4c0bd1" fill-opacity="1"><g transform="translate(51.735872, 172.427546)"><g><path d="M 4.734375 0 L 4.734375 -2.375 L 9.484375 -2.375 L 9.484375 0 Z M 2.375 -2.375 L 2.375 -11.84375 L 0 -11.84375 L 0 -14.21875 L 2.375 -14.21875 L 2.375 -21.328125 L 4.734375 -21.328125 L 4.734375 -14.21875 L 9.484375 -14.21875 L 9.484375 -11.84375 L 4.734375 -11.84375 L 4.734375 -2.375 Z M 2.375 -2.375 "/></g></g></g><g fill="#4c0bd1" fill-opacity="1"><g transform="translate(63.581731, 172.427546)"><g><path d="M 2.375 0 L 2.375 -2.375 L 9.484375 -2.375 L 9.484375 0 Z M 0 -2.375 L 0 -7.109375 L 2.375 -7.109375 L 2.375 -2.375 Z M 9.484375 -2.375 L 9.484375 -7.109375 L 2.375 -7.109375 L 2.375 -9.484375 L 9.484375 -9.484375 L 9.484375 -11.84375 L 11.84375 -11.84375 L 11.84375 -2.375 Z M 2.375 -11.84375 L 2.375 -14.21875 L 9.484375 -14.21875 L 9.484375 -11.84375 Z M 2.375 -11.84375 "/></g></g></g><g fill="#4c0bd1" fill-opacity="1"><g transform="translate(77.796762, 172.427546)"><g><path d="M 9.484375 0 L 9.484375 -2.375 L 11.84375 -2.375 L 11.84375 0 Z M 7.109375 -2.375 L 7.109375 -4.734375 L 9.484375 -4.734375 L 9.484375 -2.375 Z M 4.734375 -4.734375 L 4.734375 -7.109375 L 7.109375 -7.109375 L 7.109375 -4.734375 Z M 4.734375 -9.484375 L 4.734375 -11.84375 L 7.109375 -11.84375 L 7.109375 -9.484375 Z M 7.109375 -11.84375 L 7.109375 -14.21875 L 9.484375 -14.21875 L 9.484375 -11.84375 Z M 0 0 L 0 -21.328125 L 2.375 -21.328125 L 2.375 -9.484375 L 4.734375 -9.484375 L 4.734375 -7.109375 L 2.375 -7.109375 L 2.375 0 Z M 0 0 "/></g></g></g><g fill="#4c0bd1" fill-opacity="1"><g transform="translate(92.011792, 172.427546)"><g><path d="M 2.375 0 L 2.375 -2.375 L 11.84375 -2.375 L 11.84375 0 Z M 0 -2.375 L 0 -11.84375 L 2.375 -11.84375 L 2.375 -9.484375 L 9.484375 -9.484375 L 9.484375 -11.84375 L 11.84375 -11.84375 L 11.84375 -7.109375 L 2.375 -7.109375 L 2.375 -2.375 Z M 2.375 -11.84375 L 2.375 -14.21875 L 9.484375 -14.21875 L 9.484375 -11.84375 Z M 2.375 -11.84375 "/></g></g></g><g fill="#4c0bd1" fill-opacity="1"><g transform="translate(106.226823, 172.427546)"><g/></g></g><g fill="#4c0bd1" fill-opacity="1"><g transform="translate(110.965166, 172.427546)"><g><path d="M 2.375 0 L 2.375 -11.84375 L 0 -11.84375 L 0 -14.21875 L 4.734375 -14.21875 L 4.734375 0 Z M 2.375 -18.953125 L 2.375 -21.328125 L 4.734375 -21.328125 L 4.734375 -18.953125 Z M 2.375 -18.953125 "/></g></g></g><g fill="#4c0bd1" fill-opacity="1"><g transform="translate(118.072682, 172.427546)"><g><path d="M 4.734375 0 L 4.734375 -2.375 L 9.484375 -2.375 L 9.484375 0 Z M 2.375 -2.375 L 2.375 -11.84375 L 0 -11.84375 L 0 -14.21875 L 2.375 -14.21875 L 2.375 -21.328125 L 4.734375 -21.328125 L 4.734375 -14.21875 L 9.484375 -14.21875 L 9.484375 -11.84375 L 4.734375 -11.84375 L 4.734375 -2.375 Z M 2.375 -2.375 "/></g></g></g><g fill="#4c0bd1" fill-opacity="1"><g transform="translate(129.91854, 172.427546)"><g/></g></g><g fill="#4c0bd1" fill-opacity="1"><g transform="translate(134.656884, 172.427546)"><g><path d="M 2.375 0 L 2.375 -2.375 L 9.484375 -2.375 L 9.484375 0 Z M 0 -2.375 L 0 -7.109375 L 2.375 -7.109375 L 2.375 -2.375 Z M 9.484375 -2.375 L 9.484375 -7.109375 L 2.375 -7.109375 L 2.375 -9.484375 L 9.484375 -9.484375 L 9.484375 -11.84375 L 11.84375 -11.84375 L 11.84375 -2.375 Z M 2.375 -11.84375 L 2.375 -14.21875 L 9.484375 -14.21875 L 9.484375 -11.84375 Z M 2.375 -11.84375 "/></g></g></g><g fill="#4c0bd1" fill-opacity="1"><g transform="translate(148.871915, 172.427546)"><g><path d="M 2.375 0 L 2.375 -4.734375 L 4.734375 -4.734375 L 4.734375 0 Z M 7.109375 0 L 7.109375 -4.734375 L 9.484375 -4.734375 L 9.484375 0 Z M 4.734375 -4.734375 L 4.734375 -11.84375 L 7.109375 -11.84375 L 7.109375 -4.734375 Z M 0 -4.734375 L 0 -14.21875 L 2.375 -14.21875 L 2.375 -4.734375 Z M 9.484375 -4.734375 L 9.484375 -14.21875 L 11.84375 -14.21875 L 11.84375 -4.734375 Z M 9.484375 -4.734375 "/></g></g></g><g fill="#4c0bd1" fill-opacity="1"><g transform="translate(163.086945, 172.427546)"><g><path d="M 2.375 0 L 2.375 -2.375 L 9.484375 -2.375 L 9.484375 0 Z M 0 -2.375 L 0 -7.109375 L 2.375 -7.109375 L 2.375 -2.375 Z M 9.484375 -2.375 L 9.484375 -7.109375 L 2.375 -7.109375 L 2.375 -9.484375 L 9.484375 -9.484375 L 9.484375 -11.84375 L 11.84375 -11.84375 L 11.84375 -2.375 Z M 2.375 -11.84375 L 2.375 -14.21875 L 9.484375 -14.21875 L 9.484375 -11.84375 Z M 2.375 -11.84375 "/></g></g></g><g fill="#4c0bd1" fill-opacity="1"><g transform="translate(177.301976, 172.427546)"><g><path d="M 2.375 4.734375 L 2.375 2.375 L 9.484375 2.375 L 9.484375 4.734375 Z M 0 -4.734375 L 0 -14.21875 L 2.375 -14.21875 L 2.375 -4.734375 Z M 9.484375 2.375 L 9.484375 -2.375 L 2.375 -2.375 L 2.375 -4.734375 L 9.484375 -4.734375 L 9.484375 -14.21875 L 11.84375 -14.21875 L 11.84375 2.375 Z M 9.484375 2.375 "/></g></g></g><g fill="#4c0bd1" fill-opacity="1"><g transform="translate(191.517006, 172.427546)"><g/></g></g><g fill="#4c0bd1" fill-opacity="1"><g transform="translate(196.25535, 172.427546)"><g><path d="M 2.375 0 L 2.375 -11.84375 L 0 -11.84375 L 0 -14.21875 L 2.375 -14.21875 L 2.375 -18.953125 L 4.734375 -18.953125 L 4.734375 -14.21875 L 9.484375 -14.21875 L 9.484375 -11.84375 L 4.734375 -11.84375 L 4.734375 0 Z M 4.734375 -18.953125 L 4.734375 -21.328125 L 9.484375 -21.328125 L 9.484375 -18.953125 Z M 4.734375 -18.953125 "/></g></g></g><g fill="#4c0bd1" fill-opacity="1"><g transform="translate(208.101209, 172.427546)"><g><path d="M 9.484375 -9.484375 L 9.484375 -11.84375 L 11.84375 -11.84375 L 11.84375 -9.484375 Z M 0 0 L 0 -14.21875 L 9.484375 -14.21875 L 9.484375 -11.84375 L 2.375 -11.84375 L 2.375 0 Z M 0 0 "/></g></g></g><g fill="#4c0bd1" fill-opacity="1"><g transform="translate(222.316239, 172.427546)"><g><path d="M 2.375 0 L 2.375 -2.375 L 9.484375 -2.375 L 9.484375 0 Z M 0 -2.375 L 0 -11.84375 L 2.375 -11.84375 L 2.375 -2.375 Z M 9.484375 -2.375 L 9.484375 -11.84375 L 11.84375 -11.84375 L 11.84375 -2.375 Z M 2.375 -11.84375 L 2.375 -14.21875 L 9.484375 -14.21875 L 9.484375 -11.84375 Z M 2.375 -11.84375 "/></g></g></g><g fill="#4c0bd1" fill-opacity="1"><g transform="translate(236.53127, 172.427546)"><g><path d="M 4.734375 -2.375 L 4.734375 -11.84375 L 7.109375 -11.84375 L 7.109375 -2.375 Z M 9.484375 0 L 9.484375 -11.84375 L 11.84375 -11.84375 L 11.84375 0 Z M 0 0 L 0 -14.21875 L 4.734375 -14.21875 L 4.734375 -11.84375 L 2.375 -11.84375 L 2.375 0 Z M 7.109375 -11.84375 L 7.109375 -14.21875 L 9.484375 -14.21875 L 9.484375 -11.84375 Z M 7.109375 -11.84375 "/></g></g></g><g fill="#4c0bd1" fill-opacity="1"><g transform="translate(250.746301, 172.427546)"><g/></g></g><g fill="#4c0bd1" fill-opacity="1"><g transform="translate(255.484644, 172.427546)"><g><path d="M 2.375 4.734375 L 2.375 2.375 L 9.484375 2.375 L 9.484375 4.734375 Z M 0 -4.734375 L 0 -14.21875 L 2.375 -14.21875 L 2.375 -4.734375 Z M 9.484375 2.375 L 9.484375 -2.375 L 2.375 -2.375 L 2.375 -4.734375 L 9.484375 -4.734375 L 9.484375 -14.21875 L 11.84375 -14.21875 L 11.84375 2.375 Z M 9.484375 2.375 "/></g></g></g><g fill="#4c0bd1" fill-opacity="1"><g transform="translate(269.699675, 172.427546)"><g><path d="M 2.375 0 L 2.375 -2.375 L 9.484375 -2.375 L 9.484375 0 Z M 0 -2.375 L 0 -11.84375 L 2.375 -11.84375 L 2.375 -2.375 Z M 9.484375 -2.375 L 9.484375 -11.84375 L 11.84375 -11.84375 L 11.84375 -2.375 Z M 2.375 -11.84375 L 2.375 -14.21875 L 9.484375 -14.21875 L 9.484375 -11.84375 Z M 2.375 -11.84375 "/></g></g></g><g fill="#4c0bd1" fill-opacity="1"><g transform="translate(283.914705, 172.427546)"><g><path d="M 0 -2.375 L 0 -14.21875 L 2.375 -14.21875 L 2.375 -2.375 Z M 2.375 0 L 2.375 -2.375 L 9.484375 -2.375 L 9.484375 -14.21875 L 11.84375 -14.21875 L 11.84375 0 Z M 2.375 0 "/></g></g></g><g fill="#4c0bd1" fill-opacity="1"><g transform="translate(298.129736, 172.427546)"><g><path d="M 0 0 L 0 -2.375 L 2.375 -2.375 L 2.375 0 Z M 0 0 "/></g></g></g><g fill="#4c0bd1" fill-opacity="1"><g transform="translate(616.175856, 207.046692)"><g><path d="M 3.5625 -0.890625 L 3.5625 -3.5625 L 4.453125 -3.5625 L 4.453125 -0.890625 Z M 3.5625 -4.453125 L 3.5625 -7.125 L 4.453125 -7.125 L 4.453125 -4.453125 Z M 0 0 L 0 -8 L 3.5625 -8 L 3.5625 -7.125 L 0.890625 -7.125 L 0.890625 -4.453125 L 3.5625 -4.453125 L 3.5625 -3.5625 L 0.890625 -3.5625 L 0.890625 -0.890625 L 3.5625 -0.890625 L 3.5625 0 Z M 0 0 "/></g></g></g><g fill="#4c0bd1" fill-opacity="1"><g transform="translate(622.165061, 207.046692)"><g><path d="M 0 0 L 0 -0.890625 L 0.890625 -0.890625 L 0.890625 0 Z M 0 0 "/></g></g></g><g fill="#4c0bd1" fill-opacity="1"><g transform="translate(624.598104, 207.046692)"><g><path d="M 3.5625 -0.890625 L 3.5625 -3.5625 L 4.453125 -3.5625 L 4.453125 -0.890625 Z M 3.5625 -4.453125 L 3.5625 -7.125 L 4.453125 -7.125 L 4.453125 -4.453125 Z M 0 0 L 0 -8 L 3.5625 -8 L 3.5625 -7.125 L 0.890625 -7.125 L 0.890625 -4.453125 L 3.5625 -4.453125 L 3.5625 -3.5625 L 0.890625 -3.5625 L 0.890625 -0.890625 L 3.5625 -0.890625 L 3.5625 0 Z M 0 0 "/></g></g></g><g fill="#4c0bd1" fill-opacity="1"><g transform="translate(630.58731, 207.046692)"><g><path d="M 0 0 L 0 -0.890625 L 0.890625 -0.890625 L 0.890625 0 Z M 0 0 "/></g></g></g><g fill="#4c0bd1" fill-opacity="1"><g transform="translate(633.020353, 207.046692)"><g><path d="M 3.5625 0 L 3.5625 -1.78125 L 4.453125 -1.78125 L 4.453125 0 Z M 2.671875 -1.78125 L 2.671875 -3.5625 L 3.5625 -3.5625 L 3.5625 -1.78125 Z M 1.78125 -3.5625 L 1.78125 -4.453125 L 2.671875 -4.453125 L 2.671875 -3.5625 Z M 2.671875 -4.453125 L 2.671875 -6.234375 L 3.5625 -6.234375 L 3.5625 -4.453125 Z M 0 0 L 0 -8 L 0.890625 -8 L 0.890625 0 Z M 3.5625 -6.234375 L 3.5625 -8 L 4.453125 -8 L 4.453125 -6.234375 Z M 3.5625 -6.234375 "/></g></g></g><g fill="#4c0bd1" fill-opacity="1"><g transform="translate(639.009557, 207.046692)"><g><path d="M 0 0 L 0 -8 L 0.890625 -8 L 0.890625 0 Z M 0 0 "/></g></g></g><g fill="#4c0bd1" fill-opacity="1"><g transform="translate(641.442601, 207.046692)"><g><path d="M 1.78125 -3.5625 L 1.78125 -5.34375 L 2.671875 -5.34375 L 2.671875 -3.5625 Z M 0 0 L 0 -8 L 0.890625 -8 L 0.890625 -7.125 L 1.78125 -7.125 L 1.78125 -5.34375 L 0.890625 -5.34375 L 0.890625 0 Z M 3.5625 0 L 3.5625 -1.78125 L 2.671875 -1.78125 L 2.671875 -3.5625 L 3.5625 -3.5625 L 3.5625 -8 L 4.453125 -8 L 4.453125 0 Z M 3.5625 0 "/></g></g></g><g fill="#4c0bd1" fill-opacity="1"><g transform="translate(647.431808, 207.046692)"><g><path d="M 0.890625 0 L 0.890625 -0.890625 L 3.5625 -0.890625 L 3.5625 -4.453125 L 4.453125 -4.453125 L 4.453125 0 Z M 0 -0.890625 L 0 -7.125 L 0.890625 -7.125 L 0.890625 -0.890625 Z M 0.890625 -7.125 L 0.890625 -8 L 4.453125 -8 L 4.453125 -7.125 Z M 0.890625 -7.125 "/></g></g></g></svg>