<svg xmlns="http://www.w3.org/2000/svg" xmlns:xlink="http://www.w3.org/1999/xlink" width="1000" zoomAndPan="magnify" viewBox="0 0 750 299.999988" height="400" preserveAspectRatio="xMidYMid meet" version="1.0"><defs><g/><clipPath id="4042e591a3"><path d="M 41.5625 55.085938 L 720 55.085938 L 720 255.730469 L 41.5625 255.730469 Z M 41.5625 55.085938 " clip-rule="nonzero"/></clipPath><clipPath id="6fd63f36bb"><path d="M 714.96875 255.730469 L 46.222656 255.730469 C 43.65625 255.730469 41.5625 253.636719 41.5625 251.066406 L 41.5625 59.746094 C 41.5625 57.179688 43.65625 55.085938 46.222656 55.085938 L 714.96875 55.085938 C 717.535156 55.085938 719.628906 57.179688 719.628906 59.746094 L 719.628906 251.066406 C 719.628906 253.636719 717.535156 255.730469 714.96875 255.730469 Z M 714.96875 255.730469 " clip-rule="nonzero"/></clipPath><clipPath id="919fee742f"><path d="M 30.371094 44.269531 L 707.863281 44.269531 L 707.863281 245.6875 L 30.371094 245.6875 Z M 30.371094 44.269531 " clip-rule="nonzero"/></clipPath><clipPath id="4034d1f1e8"><path d="M 707.542969 47.632812 L 707.542969 58.785156 L 30.371094 58.785156 L 30.371094 47.632812 C 30.371094 45.796875 31.898438 44.269531 33.730469 44.269531 L 704.179688 44.269531 C 706.015625 44.269531 707.542969 45.796875 707.542969 47.632812 Z M 707.542969 240.949219 L 707.542969 242.324219 C 707.542969 244.160156 706.050781 245.6875 704.179688 245.6875 L 33.730469 245.6875 C 31.898438 245.6875 30.371094 244.195312 30.371094 242.324219 L 30.371094 240.949219 Z M 707.542969 240.949219 " clip-rule="nonzero"/></clipPath><clipPath id="b40c41e487"><path d="M 36.472656 47.320312 L 700.617188 47.320312 L 700.617188 55.714844 L 36.472656 55.714844 Z M 36.472656 47.320312 " clip-rule="nonzero"/></clipPath><clipPath id="82e6f0d967"><path d="M 698.792969 47.441406 L 693.902344 47.441406 C 692.988281 47.441406 692.261719 48.167969 692.261719 49.082031 L 692.261719 53.972656 C 692.261719 54.890625 692.988281 55.617188 693.902344 55.617188 L 698.792969 55.617188 C 699.710938 55.617188 700.4375 54.890625 700.4375 53.972656 L 700.4375 49.121094 C 700.476562 48.203125 699.710938 47.441406 698.792969 47.441406 Z M 39.617188 48.585938 C 41.257812 48.585938 42.558594 49.886719 42.558594 51.527344 C 42.558594 53.171875 41.257812 54.46875 39.617188 54.46875 C 37.972656 54.46875 36.675781 53.171875 36.675781 51.527344 C 36.675781 49.886719 37.972656 48.585938 39.617188 48.585938 Z M 48.402344 48.585938 C 50.042969 48.585938 51.34375 49.886719 51.34375 51.527344 C 51.34375 53.171875 50.042969 54.46875 48.402344 54.46875 C 46.757812 54.46875 45.460938 53.171875 45.460938 51.527344 C 45.460938 49.886719 46.757812 48.585938 48.402344 48.585938 Z M 58.183594 48.585938 C 59.824219 48.585938 61.125 49.886719 61.125 51.527344 C 61.125 53.171875 59.824219 54.46875 58.183594 54.46875 C 56.539062 54.46875 55.242188 53.171875 55.242188 51.527344 C 55.242188 49.886719 56.539062 48.585938 58.183594 48.585938 Z M 549.882812 48.890625 C 549.882812 49.234375 548.832031 49.503906 547.78125 49.542969 L 188.902344 49.542969 C 187.722656 49.542969 186.933594 49.273438 186.933594 48.929688 C 186.933594 48.585938 187.851562 48.320312 188.902344 48.28125 L 547.78125 48.28125 C 548.964844 48.242188 549.882812 48.511719 549.882812 48.890625 Z M 549.882812 51.527344 C 549.882812 51.871094 548.832031 52.140625 547.78125 52.179688 L 188.902344 52.179688 C 187.722656 52.179688 186.933594 51.910156 186.933594 51.566406 C 186.933594 51.222656 187.851562 50.957031 188.902344 50.917969 L 547.78125 50.917969 C 548.964844 50.878906 549.882812 51.144531 549.882812 51.527344 Z M 549.882812 54.164062 C 549.882812 54.507812 548.832031 54.777344 547.78125 54.8125 L 188.902344 54.8125 C 187.722656 54.8125 186.933594 54.546875 186.933594 54.203125 C 186.933594 53.859375 187.851562 53.589844 188.902344 53.554688 L 547.78125 53.554688 C 548.964844 53.515625 549.882812 53.78125 549.882812 54.164062 Z M 549.882812 54.164062 " clip-rule="nonzero"/></clipPath><clipPath id="aab8e17dce"><path d="M 30.371094 58.785156 L 707.542969 58.785156 L 707.542969 240.949219 L 30.371094 240.949219 Z M 30.371094 58.785156 " clip-rule="nonzero"/></clipPath></defs><rect x="-75" width="900" fill="#ffffff" y="-29.999999" height="359.999986" fill-opacity="1"/><rect x="-75" width="900" fill="#ffffff" y="-29.999999" height="359.999986" fill-opacity="1"/><g clip-path="url(#4042e591a3)"><g clip-path="url(#6fd63f36bb)"><path fill="#75c7fb" d="M 41.5625 55.085938 L 719.566406 55.085938 L 719.566406 255.730469 L 41.5625 255.730469 Z M 41.5625 55.085938 " fill-opacity="1" fill-rule="nonzero"/></g></g><g clip-path="url(#919fee742f)"><g clip-path="url(#4034d1f1e8)"><path fill="#eff0f2" d="M 30.371094 44.269531 L 707.484375 44.269531 L 707.484375 245.6875 L 30.371094 245.6875 Z M 30.371094 44.269531 " fill-opacity="1" fill-rule="nonzero"/></g></g><g clip-path="url(#b40c41e487)"><g clip-path="url(#82e6f0d967)"><path fill="#9aa7b2" d="M 30.371094 44.269531 L 707.484375 44.269531 L 707.484375 245.6875 L 30.371094 245.6875 Z M 30.371094 44.269531 " fill-opacity="1" fill-rule="nonzero"/></g></g><g clip-path="url(#aab8e17dce)"><path fill="#ffffff" d="M 30.371094 44.269531 L 707.484375 44.269531 L 707.484375 245.6875 L 30.371094 245.6875 Z M 30.371094 44.269531 " fill-opacity="1" fill-rule="nonzero"/></g><g fill="#4c0bd1" fill-opacity="1"><g transform="translate(55.317049, 98.766684)"><g><path d="M 4.6875 0 L 4.6875 -18.75 L 0 -18.75 L 0 -21.078125 L 11.71875 -21.078125 L 11.71875 -18.75 L 7.03125 -18.75 L 7.03125 0 Z M 4.6875 0 "/></g></g></g><g fill="#4c0bd1" fill-opacity="1"><g transform="translate(69.373689, 98.766684)"><g><path d="M 9.375 0 L 9.375 -11.71875 L 11.71875 -11.71875 L 11.71875 0 Z M 0 0 L 0 -21.078125 L 2.34375 -21.078125 L 2.34375 -14.0625 L 9.375 -14.0625 L 9.375 -11.71875 L 2.34375 -11.71875 L 2.34375 0 Z M 0 0 "/></g></g></g><g fill="#4c0bd1" fill-opacity="1"><g transform="translate(83.43033, 98.766684)"><g><path d="M 2.34375 0 L 2.34375 -2.34375 L 11.71875 -2.34375 L 11.71875 0 Z M 0 -2.34375 L 0 -11.71875 L 2.34375 -11.71875 L 2.34375 -9.375 L 9.375 -9.375 L 9.375 -11.71875 L 11.71875 -11.71875 L 11.71875 -7.03125 L 2.34375 -7.03125 L 2.34375 -2.34375 Z M 2.34375 -11.71875 L 2.34375 -14.0625 L 9.375 -14.0625 L 9.375 -11.71875 Z M 2.34375 -11.71875 "/></g></g></g><g fill="#4c0bd1" fill-opacity="1"><g transform="translate(97.48697, 98.766684)"><g/></g></g><g fill="#4c0bd1" fill-opacity="1"><g transform="translate(106.83072, 98.766684)"><g><path d="M 2.34375 0 L 2.34375 -11.71875 L 0 -11.71875 L 0 -14.0625 L 2.34375 -14.0625 L 2.34375 -18.75 L 4.6875 -18.75 L 4.6875 -14.0625 L 9.375 -14.0625 L 9.375 -11.71875 L 4.6875 -11.71875 L 4.6875 0 Z M 4.6875 -18.75 L 4.6875 -21.078125 L 9.375 -21.078125 L 9.375 -18.75 Z M 4.6875 -18.75 "/></g></g></g><g fill="#4c0bd1" fill-opacity="1"><g transform="translate(118.544587, 98.766684)"><g><path d="M 0 -2.34375 L 0 -14.0625 L 2.34375 -14.0625 L 2.34375 -2.34375 Z M 2.34375 0 L 2.34375 -2.34375 L 9.375 -2.34375 L 9.375 -14.0625 L 11.71875 -14.0625 L 11.71875 0 Z M 2.34375 0 "/></g></g></g><g fill="#4c0bd1" fill-opacity="1"><g transform="translate(132.601228, 98.766684)"><g><path d="M 4.6875 0 L 4.6875 -2.34375 L 9.375 -2.34375 L 9.375 0 Z M 2.34375 -2.34375 L 2.34375 -11.71875 L 0 -11.71875 L 0 -14.0625 L 2.34375 -14.0625 L 2.34375 -21.078125 L 4.6875 -21.078125 L 4.6875 -14.0625 L 9.375 -14.0625 L 9.375 -11.71875 L 4.6875 -11.71875 L 4.6875 -2.34375 Z M 2.34375 -2.34375 "/></g></g></g><g fill="#4c0bd1" fill-opacity="1"><g transform="translate(144.315095, 98.766684)"><g><path d="M 0 -2.34375 L 0 -14.0625 L 2.34375 -14.0625 L 2.34375 -2.34375 Z M 2.34375 0 L 2.34375 -2.34375 L 9.375 -2.34375 L 9.375 -14.0625 L 11.71875 -14.0625 L 11.71875 0 Z M 2.34375 0 "/></g></g></g><g fill="#4c0bd1" fill-opacity="1"><g transform="translate(158.371735, 98.766684)"><g><path d="M 9.375 -9.375 L 9.375 -11.71875 L 11.71875 -11.71875 L 11.71875 -9.375 Z M 0 0 L 0 -14.0625 L 9.375 -14.0625 L 9.375 -11.71875 L 2.34375 -11.71875 L 2.34375 0 Z M 0 0 "/></g></g></g><g fill="#4c0bd1" fill-opacity="1"><g transform="translate(172.428376, 98.766684)"><g><path d="M 2.34375 0 L 2.34375 -2.34375 L 11.71875 -2.34375 L 11.71875 0 Z M 0 -2.34375 L 0 -11.71875 L 2.34375 -11.71875 L 2.34375 -9.375 L 9.375 -9.375 L 9.375 -11.71875 L 11.71875 -11.71875 L 11.71875 -7.03125 L 2.34375 -7.03125 L 2.34375 -2.34375 Z M 2.34375 -11.71875 L 2.34375 -14.0625 L 9.375 -14.0625 L 9.375 -11.71875 Z M 2.34375 -11.71875 "/></g></g></g><g fill="#4c0bd1" fill-opacity="1"><g transform="translate(186.485016, 98.766684)"><g/></g></g><g fill="#4c0bd1" fill-opacity="1"><g transform="translate(195.828766, 98.766684)"><g><path d="M 2.34375 0 L 2.34375 -2.34375 L 9.375 -2.34375 L 9.375 0 Z M 0 -2.34375 L 0 -11.71875 L 2.34375 -11.71875 L 2.34375 -2.34375 Z M 9.375 -2.34375 L 9.375 -11.71875 L 11.71875 -11.71875 L 11.71875 -2.34375 Z M 2.34375 -11.71875 L 2.34375 -14.0625 L 9.375 -14.0625 L 9.375 -11.71875 Z M 2.34375 -11.71875 "/></g></g></g><g fill="#4c0bd1" fill-opacity="1"><g transform="translate(209.885407, 98.766684)"><g><path d="M 2.34375 0 L 2.34375 -11.71875 L 0 -11.71875 L 0 -14.0625 L 2.34375 -14.0625 L 2.34375 -18.75 L 4.6875 -18.75 L 4.6875 -14.0625 L 9.375 -14.0625 L 9.375 -11.71875 L 4.6875 -11.71875 L 4.6875 0 Z M 4.6875 -18.75 L 4.6875 -21.078125 L 9.375 -21.078125 L 9.375 -18.75 Z M 4.6875 -18.75 "/></g></g></g><g fill="#4c0bd1" fill-opacity="1"><g transform="translate(221.599274, 98.766684)"><g/></g></g><g fill="#4c0bd1" fill-opacity="1"><g transform="translate(230.943024, 98.766684)"><g><path d="M 2.34375 0 L 2.34375 -2.34375 L 9.375 -2.34375 L 9.375 0 Z M 0 -2.34375 L 0 -7.03125 L 2.34375 -7.03125 L 2.34375 -2.34375 Z M 9.375 -2.34375 L 9.375 -7.03125 L 2.34375 -7.03125 L 2.34375 -9.375 L 9.375 -9.375 L 9.375 -11.71875 L 11.71875 -11.71875 L 11.71875 -2.34375 Z M 2.34375 -11.71875 L 2.34375 -14.0625 L 9.375 -14.0625 L 9.375 -11.71875 Z M 2.34375 -11.71875 "/></g></g></g><g fill="#4c0bd1" fill-opacity="1"><g transform="translate(244.999664, 98.766684)"><g><path d="M 9.375 -9.375 L 9.375 -11.71875 L 11.71875 -11.71875 L 11.71875 -9.375 Z M 0 0 L 0 -14.0625 L 9.375 -14.0625 L 9.375 -11.71875 L 2.34375 -11.71875 L 2.34375 0 Z M 0 0 "/></g></g></g><g fill="#4c0bd1" fill-opacity="1"><g transform="translate(259.056305, 98.766684)"><g><path d="M 4.6875 0 L 4.6875 -2.34375 L 9.375 -2.34375 L 9.375 0 Z M 2.34375 -2.34375 L 2.34375 -11.71875 L 0 -11.71875 L 0 -14.0625 L 2.34375 -14.0625 L 2.34375 -21.078125 L 4.6875 -21.078125 L 4.6875 -14.0625 L 9.375 -14.0625 L 9.375 -11.71875 L 4.6875 -11.71875 L 4.6875 -2.34375 Z M 2.34375 -2.34375 "/></g></g></g><g fill="#4c0bd1" fill-opacity="1"><g transform="translate(270.770172, 98.766684)"><g><path d="M 2.34375 0 L 2.34375 -11.71875 L 0 -11.71875 L 0 -14.0625 L 4.6875 -14.0625 L 4.6875 0 Z M 2.34375 -18.75 L 2.34375 -21.078125 L 4.6875 -21.078125 L 4.6875 -18.75 Z M 2.34375 -18.75 "/></g></g></g><g fill="#4c0bd1" fill-opacity="1"><g transform="translate(277.798492, 98.766684)"><g><path d="M 2.34375 0 L 2.34375 -11.71875 L 0 -11.71875 L 0 -14.0625 L 2.34375 -14.0625 L 2.34375 -18.75 L 4.6875 -18.75 L 4.6875 -14.0625 L 9.375 -14.0625 L 9.375 -11.71875 L 4.6875 -11.71875 L 4.6875 0 Z M 4.6875 -18.75 L 4.6875 -21.078125 L 9.375 -21.078125 L 9.375 -18.75 Z M 4.6875 -18.75 "/></g></g></g><g fill="#4c0bd1" fill-opacity="1"><g transform="translate(289.512359, 98.766684)"><g><path d="M 2.34375 0 L 2.34375 -11.71875 L 0 -11.71875 L 0 -14.0625 L 4.6875 -14.0625 L 4.6875 0 Z M 2.34375 -18.75 L 2.34375 -21.078125 L 4.6875 -21.078125 L 4.6875 -18.75 Z M 2.34375 -18.75 "/></g></g></g><g fill="#4c0bd1" fill-opacity="1"><g transform="translate(296.540679, 98.766684)"><g><path d="M 2.34375 0 L 2.34375 -2.34375 L 11.71875 -2.34375 L 11.71875 0 Z M 0 -2.34375 L 0 -11.71875 L 2.34375 -11.71875 L 2.34375 -2.34375 Z M 2.34375 -11.71875 L 2.34375 -14.0625 L 11.71875 -14.0625 L 11.71875 -11.71875 Z M 2.34375 -11.71875 "/></g></g></g><g fill="#4c0bd1" fill-opacity="1"><g transform="translate(310.59732, 98.766684)"><g><path d="M 2.34375 0 L 2.34375 -11.71875 L 0 -11.71875 L 0 -14.0625 L 4.6875 -14.0625 L 4.6875 0 Z M 2.34375 -18.75 L 2.34375 -21.078125 L 4.6875 -21.078125 L 4.6875 -18.75 Z M 2.34375 -18.75 "/></g></g></g><g fill="#4c0bd1" fill-opacity="1"><g transform="translate(317.62564, 98.766684)"><g><path d="M 2.34375 0 L 2.34375 -2.34375 L 9.375 -2.34375 L 9.375 0 Z M 0 -2.34375 L 0 -7.03125 L 2.34375 -7.03125 L 2.34375 -2.34375 Z M 9.375 -2.34375 L 9.375 -7.03125 L 2.34375 -7.03125 L 2.34375 -9.375 L 9.375 -9.375 L 9.375 -11.71875 L 11.71875 -11.71875 L 11.71875 -2.34375 Z M 2.34375 -11.71875 L 2.34375 -14.0625 L 9.375 -14.0625 L 9.375 -11.71875 Z M 2.34375 -11.71875 "/></g></g></g><g fill="#4c0bd1" fill-opacity="1"><g transform="translate(331.68228, 98.766684)"><g><path d="M 2.34375 0 L 2.34375 -18.75 L 0 -18.75 L 0 -21.078125 L 4.6875 -21.078125 L 4.6875 0 Z M 2.34375 0 "/></g></g></g><g fill="#4c0bd1" fill-opacity="1"><g transform="translate(338.710601, 98.766684)"><g/></g></g><g fill="#4c0bd1" fill-opacity="1"><g transform="translate(348.054351, 98.766684)"><g><path d="M 2.34375 0 L 2.34375 -11.71875 L 0 -11.71875 L 0 -14.0625 L 4.6875 -14.0625 L 4.6875 0 Z M 2.34375 -18.75 L 2.34375 -21.078125 L 4.6875 -21.078125 L 4.6875 -18.75 Z M 2.34375 -18.75 "/></g></g></g><g fill="#4c0bd1" fill-opacity="1"><g transform="translate(355.082671, 98.766684)"><g><path d="M 9.375 0 L 9.375 -11.71875 L 11.71875 -11.71875 L 11.71875 0 Z M 0 0 L 0 -14.0625 L 9.375 -14.0625 L 9.375 -11.71875 L 2.34375 -11.71875 L 2.34375 0 Z M 0 0 "/></g></g></g><g fill="#4c0bd1" fill-opacity="1"><g transform="translate(369.139311, 98.766684)"><g><path d="M 4.6875 0 L 4.6875 -2.34375 L 9.375 -2.34375 L 9.375 0 Z M 2.34375 -2.34375 L 2.34375 -11.71875 L 0 -11.71875 L 0 -14.0625 L 2.34375 -14.0625 L 2.34375 -21.078125 L 4.6875 -21.078125 L 4.6875 -14.0625 L 9.375 -14.0625 L 9.375 -11.71875 L 4.6875 -11.71875 L 4.6875 -2.34375 Z M 2.34375 -2.34375 "/></g></g></g><g fill="#4c0bd1" fill-opacity="1"><g transform="translate(380.853178, 98.766684)"><g><path d="M 2.34375 0 L 2.34375 -2.34375 L 11.71875 -2.34375 L 11.71875 0 Z M 0 -2.34375 L 0 -11.71875 L 2.34375 -11.71875 L 2.34375 -9.375 L 9.375 -9.375 L 9.375 -11.71875 L 11.71875 -11.71875 L 11.71875 -7.03125 L 2.34375 -7.03125 L 2.34375 -2.34375 Z M 2.34375 -11.71875 L 2.34375 -14.0625 L 9.375 -14.0625 L 9.375 -11.71875 Z M 2.34375 -11.71875 "/></g></g></g><g fill="#4c0bd1" fill-opacity="1"><g transform="translate(394.909819, 98.766684)"><g><path d="M 2.34375 0 L 2.34375 -18.75 L 0 -18.75 L 0 -21.078125 L 4.6875 -21.078125 L 4.6875 0 Z M 2.34375 0 "/></g></g></g><g fill="#4c0bd1" fill-opacity="1"><g transform="translate(401.938139, 98.766684)"><g><path d="M 2.34375 0 L 2.34375 -18.75 L 0 -18.75 L 0 -21.078125 L 4.6875 -21.078125 L 4.6875 0 Z M 2.34375 0 "/></g></g></g><g fill="#4c0bd1" fill-opacity="1"><g transform="translate(408.966459, 98.766684)"><g><path d="M 2.34375 0 L 2.34375 -11.71875 L 0 -11.71875 L 0 -14.0625 L 4.6875 -14.0625 L 4.6875 0 Z M 2.34375 -18.75 L 2.34375 -21.078125 L 4.6875 -21.078125 L 4.6875 -18.75 Z M 2.34375 -18.75 "/></g></g></g><g fill="#4c0bd1" fill-opacity="1"><g transform="translate(415.99478, 98.766684)"><g><path d="M 2.34375 4.6875 L 2.34375 2.34375 L 9.375 2.34375 L 9.375 4.6875 Z M 0 -4.6875 L 0 -11.71875 L 2.34375 -11.71875 L 2.34375 -4.6875 Z M 9.375 2.34375 L 9.375 -2.34375 L 2.34375 -2.34375 L 2.34375 -4.6875 L 9.375 -4.6875 L 9.375 -11.71875 L 11.71875 -11.71875 L 11.71875 2.34375 Z M 2.34375 -11.71875 L 2.34375 -14.0625 L 9.375 -14.0625 L 9.375 -11.71875 Z M 2.34375 -11.71875 "/></g></g></g><g fill="#4c0bd1" fill-opacity="1"><g transform="translate(430.05142, 98.766684)"><g><path d="M 2.34375 0 L 2.34375 -2.34375 L 11.71875 -2.34375 L 11.71875 0 Z M 0 -2.34375 L 0 -11.71875 L 2.34375 -11.71875 L 2.34375 -9.375 L 9.375 -9.375 L 9.375 -11.71875 L 11.71875 -11.71875 L 11.71875 -7.03125 L 2.34375 -7.03125 L 2.34375 -2.34375 Z M 2.34375 -11.71875 L 2.34375 -14.0625 L 9.375 -14.0625 L 9.375 -11.71875 Z M 2.34375 -11.71875 "/></g></g></g><g fill="#4c0bd1" fill-opacity="1"><g transform="translate(444.108061, 98.766684)"><g><path d="M 9.375 0 L 9.375 -11.71875 L 11.71875 -11.71875 L 11.71875 0 Z M 0 0 L 0 -14.0625 L 9.375 -14.0625 L 9.375 -11.71875 L 2.34375 -11.71875 L 2.34375 0 Z M 0 0 "/></g></g></g><g fill="#4c0bd1" fill-opacity="1"><g transform="translate(458.164701, 98.766684)"><g><path d="M 2.34375 0 L 2.34375 -2.34375 L 11.71875 -2.34375 L 11.71875 0 Z M 0 -2.34375 L 0 -11.71875 L 2.34375 -11.71875 L 2.34375 -2.34375 Z M 2.34375 -11.71875 L 2.34375 -14.0625 L 11.71875 -14.0625 L 11.71875 -11.71875 Z M 2.34375 -11.71875 "/></g></g></g><g fill="#4c0bd1" fill-opacity="1"><g transform="translate(472.221342, 98.766684)"><g><path d="M 2.34375 0 L 2.34375 -2.34375 L 11.71875 -2.34375 L 11.71875 0 Z M 0 -2.34375 L 0 -11.71875 L 2.34375 -11.71875 L 2.34375 -9.375 L 9.375 -9.375 L 9.375 -11.71875 L 11.71875 -11.71875 L 11.71875 -7.03125 L 2.34375 -7.03125 L 2.34375 -2.34375 Z M 2.34375 -11.71875 L 2.34375 -14.0625 L 9.375 -14.0625 L 9.375 -11.71875 Z M 2.34375 -11.71875 "/></g></g></g><g fill="#4c0bd1" fill-opacity="1"><g transform="translate(486.277982, 98.766684)"><g/></g></g><g fill="#4c0bd1" fill-opacity="1"><g transform="translate(495.621732, 98.766684)"><g><path d="M 2.34375 0 L 2.34375 -11.71875 L 0 -11.71875 L 0 -14.0625 L 4.6875 -14.0625 L 4.6875 0 Z M 2.34375 -18.75 L 2.34375 -21.078125 L 4.6875 -21.078125 L 4.6875 -18.75 Z M 2.34375 -18.75 "/></g></g></g><g fill="#4c0bd1" fill-opacity="1"><g transform="translate(502.650052, 98.766684)"><g><path d="M 0 0 L 0 -2.34375 L 9.375 -2.34375 L 9.375 0 Z M 9.375 -2.34375 L 9.375 -7.03125 L 11.71875 -7.03125 L 11.71875 -2.34375 Z M 2.34375 -7.03125 L 2.34375 -9.375 L 9.375 -9.375 L 9.375 -7.03125 Z M 0 -9.375 L 0 -11.71875 L 2.34375 -11.71875 L 2.34375 -9.375 Z M 2.34375 -11.71875 L 2.34375 -14.0625 L 11.71875 -14.0625 L 11.71875 -11.71875 Z M 2.34375 -11.71875 "/></g></g></g><g fill="#4c0bd1" fill-opacity="1"><g transform="translate(516.706693, 98.766684)"><g/></g></g><g fill="#4c0bd1" fill-opacity="1"><g transform="translate(526.050443, 98.766684)"><g><path d="M 9.375 0 L 9.375 -11.71875 L 11.71875 -11.71875 L 11.71875 0 Z M 0 0 L 0 -14.0625 L 9.375 -14.0625 L 9.375 -11.71875 L 2.34375 -11.71875 L 2.34375 0 Z M 0 0 "/></g></g></g><g fill="#4c0bd1" fill-opacity="1"><g transform="translate(540.107083, 98.766684)"><g><path d="M 2.34375 0 L 2.34375 -2.34375 L 9.375 -2.34375 L 9.375 0 Z M 0 -2.34375 L 0 -11.71875 L 2.34375 -11.71875 L 2.34375 -2.34375 Z M 9.375 -2.34375 L 9.375 -11.71875 L 11.71875 -11.71875 L 11.71875 -2.34375 Z M 2.34375 -11.71875 L 2.34375 -14.0625 L 9.375 -14.0625 L 9.375 -11.71875 Z M 2.34375 -11.71875 "/></g></g></g><g fill="#4c0bd1" fill-opacity="1"><g transform="translate(554.163724, 98.766684)"><g><path d="M 4.6875 0 L 4.6875 -2.34375 L 9.375 -2.34375 L 9.375 0 Z M 2.34375 -2.34375 L 2.34375 -11.71875 L 0 -11.71875 L 0 -14.0625 L 2.34375 -14.0625 L 2.34375 -21.078125 L 4.6875 -21.078125 L 4.6875 -14.0625 L 9.375 -14.0625 L 9.375 -11.71875 L 4.6875 -11.71875 L 4.6875 -2.34375 Z M 2.34375 -2.34375 "/></g></g></g><g fill="#4c0bd1" fill-opacity="1"><g transform="translate(565.877591, 98.766684)"><g/></g></g><g fill="#4c0bd1" fill-opacity="1"><g transform="translate(575.221341, 98.766684)"><g><path d="M 2.34375 0 L 2.34375 -2.34375 L 9.375 -2.34375 L 9.375 0 Z M 0 -2.34375 L 0 -7.03125 L 2.34375 -7.03125 L 2.34375 -2.34375 Z M 9.375 -2.34375 L 9.375 -7.03125 L 2.34375 -7.03125 L 2.34375 -9.375 L 9.375 -9.375 L 9.375 -11.71875 L 11.71875 -11.71875 L 11.71875 -2.34375 Z M 2.34375 -11.71875 L 2.34375 -14.0625 L 9.375 -14.0625 L 9.375 -11.71875 Z M 2.34375 -11.71875 "/></g></g></g><g fill="#4c0bd1" fill-opacity="1"><g transform="translate(589.277981, 98.766684)"><g><path d="M 9.375 -2.34375 L 9.375 -11.71875 L 11.71875 -11.71875 L 11.71875 -2.34375 Z M 0 0 L 0 -21.078125 L 2.34375 -21.078125 L 2.34375 -14.0625 L 9.375 -14.0625 L 9.375 -11.71875 L 2.34375 -11.71875 L 2.34375 -2.34375 L 9.375 -2.34375 L 9.375 0 Z M 0 0 "/></g></g></g><g fill="#4c0bd1" fill-opacity="1"><g transform="translate(603.334622, 98.766684)"><g><path d="M 2.34375 0 L 2.34375 -2.34375 L 9.375 -2.34375 L 9.375 0 Z M 0 -2.34375 L 0 -11.71875 L 2.34375 -11.71875 L 2.34375 -2.34375 Z M 9.375 -2.34375 L 9.375 -11.71875 L 11.71875 -11.71875 L 11.71875 -2.34375 Z M 2.34375 -11.71875 L 2.34375 -14.0625 L 9.375 -14.0625 L 9.375 -11.71875 Z M 2.34375 -11.71875 "/></g></g></g><g fill="#4c0bd1" fill-opacity="1"><g transform="translate(617.391262, 98.766684)"><g><path d="M 0 -2.34375 L 0 -14.0625 L 2.34375 -14.0625 L 2.34375 -2.34375 Z M 2.34375 0 L 2.34375 -2.34375 L 9.375 -2.34375 L 9.375 -14.0625 L 11.71875 -14.0625 L 11.71875 0 Z M 2.34375 0 "/></g></g></g><g fill="#4c0bd1" fill-opacity="1"><g transform="translate(631.447903, 98.766684)"><g><path d="M 4.6875 0 L 4.6875 -2.34375 L 9.375 -2.34375 L 9.375 0 Z M 2.34375 -2.34375 L 2.34375 -11.71875 L 0 -11.71875 L 0 -14.0625 L 2.34375 -14.0625 L 2.34375 -21.078125 L 4.6875 -21.078125 L 4.6875 -14.0625 L 9.375 -14.0625 L 9.375 -11.71875 L 4.6875 -11.71875 L 4.6875 -2.34375 Z M 2.34375 -2.34375 "/></g></g></g><g fill="#4c0bd1" fill-opacity="1"><g transform="translate(643.16177, 98.766684)"><g/></g></g><g fill="#4c0bd1" fill-opacity="1"><g transform="translate(652.50552, 98.766684)"><g><path d="M 4.6875 -2.34375 L 4.6875 -11.71875 L 7.03125 -11.71875 L 7.03125 -2.34375 Z M 9.375 0 L 9.375 -11.71875 L 11.71875 -11.71875 L 11.71875 0 Z M 0 0 L 0 -14.0625 L 4.6875 -14.0625 L 4.6875 -11.71875 L 2.34375 -11.71875 L 2.34375 0 Z M 7.03125 -11.71875 L 7.03125 -14.0625 L 9.375 -14.0625 L 9.375 -11.71875 Z M 7.03125 -11.71875 "/></g></g></g><g fill="#4c0bd1" fill-opacity="1"><g transform="translate(666.56216, 98.766684)"><g><path d="M 2.34375 0 L 2.34375 -2.34375 L 9.375 -2.34375 L 9.375 0 Z M 0 -2.34375 L 0 -7.03125 L 2.34375 -7.03125 L 2.34375 -2.34375 Z M 9.375 -2.34375 L 9.375 -7.03125 L 2.34375 -7.03125 L 2.34375 -9.375 L 9.375 -9.375 L 9.375 -11.71875 L 11.71875 -11.71875 L 11.71875 -2.34375 Z M 2.34375 -11.71875 L 2.34375 -14.0625 L 9.375 -14.0625 L 9.375 -11.71875 Z M 2.34375 -11.71875 "/></g></g></g><g fill="#4c0bd1" fill-opacity="1"><g transform="translate(680.618801, 98.766684)"><g><path d="M 9.375 0 L 9.375 -11.71875 L 11.71875 -11.71875 L 11.71875 0 Z M 0 0 L 0 -14.0625 L 9.375 -14.0625 L 9.375 -11.71875 L 2.34375 -11.71875 L 2.34375 0 Z M 0 0 "/></g></g></g><g fill="#4c0bd1" fill-opacity="1"><g transform="translate(55.317049, 132.266684)"><g><path d="M 4.6875 0 L 4.6875 -2.34375 L 7.03125 -2.34375 L 7.03125 0 Z M 2.34375 -2.34375 L 2.34375 -7.03125 L 4.6875 -7.03125 L 4.6875 -2.34375 Z M 7.03125 -2.34375 L 7.03125 -7.03125 L 9.375 -7.03125 L 9.375 -2.34375 Z M 0 -7.03125 L 0 -14.0625 L 2.34375 -14.0625 L 2.34375 -7.03125 Z M 9.375 -7.03125 L 9.375 -14.0625 L 11.71875 -14.0625 L 11.71875 -7.03125 Z M 9.375 -7.03125 "/></g></g></g><g fill="#4c0bd1" fill-opacity="1"><g transform="translate(69.373689, 132.266684)"><g><path d="M 2.34375 0 L 2.34375 -2.34375 L 11.71875 -2.34375 L 11.71875 0 Z M 0 -2.34375 L 0 -11.71875 L 2.34375 -11.71875 L 2.34375 -9.375 L 9.375 -9.375 L 9.375 -11.71875 L 11.71875 -11.71875 L 11.71875 -7.03125 L 2.34375 -7.03125 L 2.34375 -2.34375 Z M 2.34375 -11.71875 L 2.34375 -14.0625 L 9.375 -14.0625 L 9.375 -11.71875 Z M 2.34375 -11.71875 "/></g></g></g><g fill="#4c0bd1" fill-opacity="1"><g transform="translate(83.43033, 132.266684)"><g><path d="M 9.375 -9.375 L 9.375 -11.71875 L 11.71875 -11.71875 L 11.71875 -9.375 Z M 0 0 L 0 -14.0625 L 9.375 -14.0625 L 9.375 -11.71875 L 2.34375 -11.71875 L 2.34375 0 Z M 0 0 "/></g></g></g><g fill="#4c0bd1" fill-opacity="1"><g transform="translate(97.48697, 132.266684)"><g><path d="M 0 0 L 0 -2.34375 L 9.375 -2.34375 L 9.375 0 Z M 9.375 -2.34375 L 9.375 -7.03125 L 11.71875 -7.03125 L 11.71875 -2.34375 Z M 2.34375 -7.03125 L 2.34375 -9.375 L 9.375 -9.375 L 9.375 -7.03125 Z M 0 -9.375 L 0 -11.71875 L 2.34375 -11.71875 L 2.34375 -9.375 Z M 2.34375 -11.71875 L 2.34375 -14.0625 L 11.71875 -14.0625 L 11.71875 -11.71875 Z M 2.34375 -11.71875 "/></g></g></g><g fill="#4c0bd1" fill-opacity="1"><g transform="translate(111.543611, 132.266684)"><g><path d="M 0 -2.34375 L 0 -14.0625 L 2.34375 -14.0625 L 2.34375 -2.34375 Z M 2.34375 0 L 2.34375 -2.34375 L 9.375 -2.34375 L 9.375 -14.0625 L 11.71875 -14.0625 L 11.71875 0 Z M 2.34375 0 "/></g></g></g><g fill="#4c0bd1" fill-opacity="1"><g transform="translate(125.600251, 132.266684)"><g><path d="M 0 0 L 0 -2.34375 L 9.375 -2.34375 L 9.375 0 Z M 9.375 -2.34375 L 9.375 -7.03125 L 11.71875 -7.03125 L 11.71875 -2.34375 Z M 2.34375 -7.03125 L 2.34375 -9.375 L 9.375 -9.375 L 9.375 -7.03125 Z M 0 -9.375 L 0 -11.71875 L 2.34375 -11.71875 L 2.34375 -9.375 Z M 2.34375 -11.71875 L 2.34375 -14.0625 L 11.71875 -14.0625 L 11.71875 -11.71875 Z M 2.34375 -11.71875 "/></g></g></g><g fill="#4c0bd1" fill-opacity="1"><g transform="translate(139.656892, 132.266684)"><g/></g></g><g fill="#4c0bd1" fill-opacity="1"><g transform="translate(164.609368, 132.266684)"><g><path d="M 4.6875 -2.34375 L 4.6875 -11.71875 L 7.03125 -11.71875 L 7.03125 -2.34375 Z M 9.375 0 L 9.375 -11.71875 L 11.71875 -11.71875 L 11.71875 0 Z M 0 0 L 0 -14.0625 L 4.6875 -14.0625 L 4.6875 -11.71875 L 2.34375 -11.71875 L 2.34375 0 Z M 7.03125 -11.71875 L 7.03125 -14.0625 L 9.375 -14.0625 L 9.375 -11.71875 Z M 7.03125 -11.71875 "/></g></g></g><g fill="#4c0bd1" fill-opacity="1"><g transform="translate(178.666009, 132.266684)"><g><path d="M 2.34375 0 L 2.34375 -2.34375 L 9.375 -2.34375 L 9.375 0 Z M 0 -2.34375 L 0 -7.03125 L 2.34375 -7.03125 L 2.34375 -2.34375 Z M 9.375 -2.34375 L 9.375 -7.03125 L 2.34375 -7.03125 L 2.34375 -9.375 L 9.375 -9.375 L 9.375 -11.71875 L 11.71875 -11.71875 L 11.71875 -2.34375 Z M 2.34375 -11.71875 L 2.34375 -14.0625 L 9.375 -14.0625 L 9.375 -11.71875 Z M 2.34375 -11.71875 "/></g></g></g><g fill="#4c0bd1" fill-opacity="1"><g transform="translate(192.722657, 132.266684)"><g><path d="M 2.34375 0 L 2.34375 -2.34375 L 11.71875 -2.34375 L 11.71875 0 Z M 0 -2.34375 L 0 -11.71875 L 2.34375 -11.71875 L 2.34375 -2.34375 Z M 2.34375 -11.71875 L 2.34375 -14.0625 L 11.71875 -14.0625 L 11.71875 -11.71875 Z M 2.34375 -11.71875 "/></g></g></g><g fill="#4c0bd1" fill-opacity="1"><g transform="translate(206.779298, 132.266684)"><g><path d="M 9.375 0 L 9.375 -11.71875 L 11.71875 -11.71875 L 11.71875 0 Z M 0 0 L 0 -21.078125 L 2.34375 -21.078125 L 2.34375 -14.0625 L 9.375 -14.0625 L 9.375 -11.71875 L 2.34375 -11.71875 L 2.34375 0 Z M 0 0 "/></g></g></g><g fill="#4c0bd1" fill-opacity="1"><g transform="translate(220.835938, 132.266684)"><g><path d="M 2.34375 0 L 2.34375 -11.71875 L 0 -11.71875 L 0 -14.0625 L 4.6875 -14.0625 L 4.6875 0 Z M 2.34375 -18.75 L 2.34375 -21.078125 L 4.6875 -21.078125 L 4.6875 -18.75 Z M 2.34375 -18.75 "/></g></g></g><g fill="#4c0bd1" fill-opacity="1"><g transform="translate(227.864258, 132.266684)"><g><path d="M 9.375 0 L 9.375 -11.71875 L 11.71875 -11.71875 L 11.71875 0 Z M 0 0 L 0 -14.0625 L 9.375 -14.0625 L 9.375 -11.71875 L 2.34375 -11.71875 L 2.34375 0 Z M 0 0 "/></g></g></g><g fill="#4c0bd1" fill-opacity="1"><g transform="translate(241.920899, 132.266684)"><g><path d="M 2.34375 0 L 2.34375 -2.34375 L 11.71875 -2.34375 L 11.71875 0 Z M 0 -2.34375 L 0 -11.71875 L 2.34375 -11.71875 L 2.34375 -9.375 L 9.375 -9.375 L 9.375 -11.71875 L 11.71875 -11.71875 L 11.71875 -7.03125 L 2.34375 -7.03125 L 2.34375 -2.34375 Z M 2.34375 -11.71875 L 2.34375 -14.0625 L 9.375 -14.0625 L 9.375 -11.71875 Z M 2.34375 -11.71875 "/></g></g></g><g fill="#4c0bd1" fill-opacity="1"><g transform="translate(255.977539, 132.266684)"><g><path d="M 0 4.6875 L 0 2.34375 L 2.34375 2.34375 L 2.34375 4.6875 Z M 2.34375 2.34375 L 2.34375 0 L 0 0 L 0 -2.34375 L 4.6875 -2.34375 L 4.6875 2.34375 Z M 2.34375 2.34375 "/></g></g></g><g fill="#4c0bd1" fill-opacity="1"><g transform="translate(263.00586, 132.266684)"><g/></g></g><g fill="#4c0bd1" fill-opacity="1"><g transform="translate(287.958329, 132.266684)"><g><path d="M 9.375 -2.34375 L 9.375 -11.71875 L 11.71875 -11.71875 L 11.71875 -2.34375 Z M 0 0 L 0 -21.078125 L 2.34375 -21.078125 L 2.34375 -14.0625 L 9.375 -14.0625 L 9.375 -11.71875 L 2.34375 -11.71875 L 2.34375 -2.34375 L 9.375 -2.34375 L 9.375 0 Z M 0 0 "/></g></g></g><g fill="#4c0bd1" fill-opacity="1"><g transform="translate(302.014969, 132.266684)"><g><path d="M 0 -2.34375 L 0 -14.0625 L 2.34375 -14.0625 L 2.34375 -2.34375 Z M 2.34375 0 L 2.34375 -2.34375 L 9.375 -2.34375 L 9.375 -14.0625 L 11.71875 -14.0625 L 11.71875 0 Z M 2.34375 0 "/></g></g></g><g fill="#4c0bd1" fill-opacity="1"><g transform="translate(316.071625, 132.266684)"><g><path d="M 4.6875 0 L 4.6875 -2.34375 L 9.375 -2.34375 L 9.375 0 Z M 2.34375 -2.34375 L 2.34375 -11.71875 L 0 -11.71875 L 0 -14.0625 L 2.34375 -14.0625 L 2.34375 -21.078125 L 4.6875 -21.078125 L 4.6875 -14.0625 L 9.375 -14.0625 L 9.375 -11.71875 L 4.6875 -11.71875 L 4.6875 -2.34375 Z M 2.34375 -2.34375 "/></g></g></g><g fill="#4c0bd1" fill-opacity="1"><g transform="translate(327.785492, 132.266684)"><g/></g></g><g fill="#4c0bd1" fill-opacity="1"><g transform="translate(352.737976, 132.266684)"><g><path d="M 9.375 -9.375 L 9.375 -11.71875 L 11.71875 -11.71875 L 11.71875 -9.375 Z M 0 0 L 0 -14.0625 L 9.375 -14.0625 L 9.375 -11.71875 L 2.34375 -11.71875 L 2.34375 0 Z M 0 0 "/></g></g></g><g fill="#4c0bd1" fill-opacity="1"><g transform="translate(366.794616, 132.266684)"><g><path d="M 2.34375 0 L 2.34375 -2.34375 L 9.375 -2.34375 L 9.375 0 Z M 0 -2.34375 L 0 -7.03125 L 2.34375 -7.03125 L 2.34375 -2.34375 Z M 9.375 -2.34375 L 9.375 -7.03125 L 2.34375 -7.03125 L 2.34375 -9.375 L 9.375 -9.375 L 9.375 -11.71875 L 11.71875 -11.71875 L 11.71875 -2.34375 Z M 2.34375 -11.71875 L 2.34375 -14.0625 L 9.375 -14.0625 L 9.375 -11.71875 Z M 2.34375 -11.71875 "/></g></g></g><g fill="#4c0bd1" fill-opacity="1"><g transform="translate(380.851257, 132.266684)"><g><path d="M 4.6875 0 L 4.6875 -2.34375 L 9.375 -2.34375 L 9.375 0 Z M 2.34375 -2.34375 L 2.34375 -11.71875 L 0 -11.71875 L 0 -14.0625 L 2.34375 -14.0625 L 2.34375 -21.078125 L 4.6875 -21.078125 L 4.6875 -14.0625 L 9.375 -14.0625 L 9.375 -11.71875 L 4.6875 -11.71875 L 4.6875 -2.34375 Z M 2.34375 -2.34375 "/></g></g></g><g fill="#4c0bd1" fill-opacity="1"><g transform="translate(392.565124, 132.266684)"><g><path d="M 9.375 0 L 9.375 -11.71875 L 11.71875 -11.71875 L 11.71875 0 Z M 0 0 L 0 -21.078125 L 2.34375 -21.078125 L 2.34375 -14.0625 L 9.375 -14.0625 L 9.375 -11.71875 L 2.34375 -11.71875 L 2.34375 0 Z M 0 0 "/></g></g></g><g fill="#4c0bd1" fill-opacity="1"><g transform="translate(406.621764, 132.266684)"><g><path d="M 2.34375 0 L 2.34375 -2.34375 L 11.71875 -2.34375 L 11.71875 0 Z M 0 -2.34375 L 0 -11.71875 L 2.34375 -11.71875 L 2.34375 -9.375 L 9.375 -9.375 L 9.375 -11.71875 L 11.71875 -11.71875 L 11.71875 -7.03125 L 2.34375 -7.03125 L 2.34375 -2.34375 Z M 2.34375 -11.71875 L 2.34375 -14.0625 L 9.375 -14.0625 L 9.375 -11.71875 Z M 2.34375 -11.71875 "/></g></g></g><g fill="#4c0bd1" fill-opacity="1"><g transform="translate(420.678405, 132.266684)"><g><path d="M 9.375 -9.375 L 9.375 -11.71875 L 11.71875 -11.71875 L 11.71875 -9.375 Z M 0 0 L 0 -14.0625 L 9.375 -14.0625 L 9.375 -11.71875 L 2.34375 -11.71875 L 2.34375 0 Z M 0 0 "/></g></g></g><g fill="#4c0bd1" fill-opacity="1"><g transform="translate(434.735045, 132.266684)"><g/></g></g><g fill="#4c0bd1" fill-opacity="1"><g transform="translate(459.687529, 132.266684)"><g><path d="M 4.6875 -2.34375 L 4.6875 -11.71875 L 7.03125 -11.71875 L 7.03125 -2.34375 Z M 9.375 0 L 9.375 -11.71875 L 11.71875 -11.71875 L 11.71875 0 Z M 0 0 L 0 -14.0625 L 4.6875 -14.0625 L 4.6875 -11.71875 L 2.34375 -11.71875 L 2.34375 0 Z M 7.03125 -11.71875 L 7.03125 -14.0625 L 9.375 -14.0625 L 9.375 -11.71875 Z M 7.03125 -11.71875 "/></g></g></g><g fill="#4c0bd1" fill-opacity="1"><g transform="translate(473.74417, 132.266684)"><g><path d="M 2.34375 0 L 2.34375 -2.34375 L 9.375 -2.34375 L 9.375 0 Z M 0 -2.34375 L 0 -7.03125 L 2.34375 -7.03125 L 2.34375 -2.34375 Z M 9.375 -2.34375 L 9.375 -7.03125 L 2.34375 -7.03125 L 2.34375 -9.375 L 9.375 -9.375 L 9.375 -11.71875 L 11.71875 -11.71875 L 11.71875 -2.34375 Z M 2.34375 -11.71875 L 2.34375 -14.0625 L 9.375 -14.0625 L 9.375 -11.71875 Z M 2.34375 -11.71875 "/></g></g></g><g fill="#4c0bd1" fill-opacity="1"><g transform="translate(487.80081, 132.266684)"><g><path d="M 9.375 0 L 9.375 -11.71875 L 11.71875 -11.71875 L 11.71875 0 Z M 0 0 L 0 -14.0625 L 9.375 -14.0625 L 9.375 -11.71875 L 2.34375 -11.71875 L 2.34375 0 Z M 0 0 "/></g></g></g><g fill="#4c0bd1" fill-opacity="1"><g transform="translate(501.857451, 132.266684)"><g/></g></g><g fill="#4c0bd1" fill-opacity="1"><g transform="translate(526.809935, 132.266684)"><g><path d="M 2.34375 0 L 2.34375 -4.6875 L 4.6875 -4.6875 L 4.6875 0 Z M 7.03125 0 L 7.03125 -4.6875 L 9.375 -4.6875 L 9.375 0 Z M 4.6875 -4.6875 L 4.6875 -11.71875 L 7.03125 -11.71875 L 7.03125 -4.6875 Z M 0 -4.6875 L 0 -14.0625 L 2.34375 -14.0625 L 2.34375 -4.6875 Z M 9.375 -4.6875 L 9.375 -14.0625 L 11.71875 -14.0625 L 11.71875 -4.6875 Z M 9.375 -4.6875 "/></g></g></g><g fill="#4c0bd1" fill-opacity="1"><g transform="translate(540.866575, 132.266684)"><g><path d="M 2.34375 0 L 2.34375 -11.71875 L 0 -11.71875 L 0 -14.0625 L 4.6875 -14.0625 L 4.6875 0 Z M 2.34375 -18.75 L 2.34375 -21.078125 L 4.6875 -21.078125 L 4.6875 -18.75 Z M 2.34375 -18.75 "/></g></g></g><g fill="#4c0bd1" fill-opacity="1"><g transform="translate(547.894895, 132.266684)"><g><path d="M 4.6875 0 L 4.6875 -2.34375 L 9.375 -2.34375 L 9.375 0 Z M 2.34375 -2.34375 L 2.34375 -11.71875 L 0 -11.71875 L 0 -14.0625 L 2.34375 -14.0625 L 2.34375 -21.078125 L 4.6875 -21.078125 L 4.6875 -14.0625 L 9.375 -14.0625 L 9.375 -11.71875 L 4.6875 -11.71875 L 4.6875 -2.34375 Z M 2.34375 -2.34375 "/></g></g></g><g fill="#4c0bd1" fill-opacity="1"><g transform="translate(559.608762, 132.266684)"><g><path d="M 9.375 0 L 9.375 -11.71875 L 11.71875 -11.71875 L 11.71875 0 Z M 0 0 L 0 -21.078125 L 2.34375 -21.078125 L 2.34375 -14.0625 L 9.375 -14.0625 L 9.375 -11.71875 L 2.34375 -11.71875 L 2.34375 0 Z M 0 0 "/></g></g></g><g fill="#4c0bd1" fill-opacity="1"><g transform="translate(573.665433, 132.266684)"><g/></g></g><g fill="#4c0bd1" fill-opacity="1"><g transform="translate(598.617887, 132.266684)"><g><path d="M 4.6875 -2.34375 L 4.6875 -11.71875 L 7.03125 -11.71875 L 7.03125 -2.34375 Z M 9.375 0 L 9.375 -11.71875 L 11.71875 -11.71875 L 11.71875 0 Z M 0 0 L 0 -14.0625 L 4.6875 -14.0625 L 4.6875 -11.71875 L 2.34375 -11.71875 L 2.34375 0 Z M 7.03125 -11.71875 L 7.03125 -14.0625 L 9.375 -14.0625 L 9.375 -11.71875 Z M 7.03125 -11.71875 "/></g></g></g><g fill="#4c0bd1" fill-opacity="1"><g transform="translate(612.674527, 132.266684)"><g><path d="M 2.34375 0 L 2.34375 -2.34375 L 9.375 -2.34375 L 9.375 0 Z M 0 -2.34375 L 0 -7.03125 L 2.34375 -7.03125 L 2.34375 -2.34375 Z M 9.375 -2.34375 L 9.375 -7.03125 L 2.34375 -7.03125 L 2.34375 -9.375 L 9.375 -9.375 L 9.375 -11.71875 L 11.71875 -11.71875 L 11.71875 -2.34375 Z M 2.34375 -11.71875 L 2.34375 -14.0625 L 9.375 -14.0625 L 9.375 -11.71875 Z M 2.34375 -11.71875 "/></g></g></g><g fill="#4c0bd1" fill-opacity="1"><g transform="translate(626.731168, 132.266684)"><g><path d="M 2.34375 0 L 2.34375 -2.34375 L 11.71875 -2.34375 L 11.71875 0 Z M 0 -2.34375 L 0 -11.71875 L 2.34375 -11.71875 L 2.34375 -2.34375 Z M 2.34375 -11.71875 L 2.34375 -14.0625 L 11.71875 -14.0625 L 11.71875 -11.71875 Z M 2.34375 -11.71875 "/></g></g></g><g fill="#4c0bd1" fill-opacity="1"><g transform="translate(640.787808, 132.266684)"><g><path d="M 9.375 0 L 9.375 -11.71875 L 11.71875 -11.71875 L 11.71875 0 Z M 0 0 L 0 -21.078125 L 2.34375 -21.078125 L 2.34375 -14.0625 L 9.375 -14.0625 L 9.375 -11.71875 L 2.34375 -11.71875 L 2.34375 0 Z M 0 0 "/></g></g></g><g fill="#4c0bd1" fill-opacity="1"><g transform="translate(654.844449, 132.266684)"><g><path d="M 2.34375 0 L 2.34375 -11.71875 L 0 -11.71875 L 0 -14.0625 L 4.6875 -14.0625 L 4.6875 0 Z M 2.34375 -18.75 L 2.34375 -21.078125 L 4.6875 -21.078125 L 4.6875 -18.75 Z M 2.34375 -18.75 "/></g></g></g><g fill="#4c0bd1" fill-opacity="1"><g transform="translate(661.872769, 132.266684)"><g><path d="M 9.375 0 L 9.375 -11.71875 L 11.71875 -11.71875 L 11.71875 0 Z M 0 0 L 0 -14.0625 L 9.375 -14.0625 L 9.375 -11.71875 L 2.34375 -11.71875 L 2.34375 0 Z M 0 0 "/></g></g></g><g fill="#4c0bd1" fill-opacity="1"><g transform="translate(675.92941, 132.266684)"><g><path d="M 2.34375 0 L 2.34375 -2.34375 L 11.71875 -2.34375 L 11.71875 0 Z M 0 -2.34375 L 0 -11.71875 L 2.34375 -11.71875 L 2.34375 -9.375 L 9.375 -9.375 L 9.375 -11.71875 L 11.71875 -11.71875 L 11.71875 -7.03125 L 2.34375 -7.03125 L 2.34375 -2.34375 Z M 2.34375 -11.71875 L 2.34375 -14.0625 L 9.375 -14.0625 L 9.375 -11.71875 Z M 2.34375 -11.71875 "/></g></g></g><g fill="#4c0bd1" fill-opacity="1"><g transform="translate(689.98605, 132.266684)"><g><path d="M 0 0 L 0 -2.34375 L 2.34375 -2.34375 L 2.34375 0 Z M 0 0 "/></g></g></g><g fill="#4c0bd1" fill-opacity="1"><g transform="translate(55.317049, 165.766684)"><g><path d="M 4.6875 0 L 4.6875 -18.75 L 0 -18.75 L 0 -21.078125 L 11.71875 -21.078125 L 11.71875 -18.75 L 7.03125 -18.75 L 7.03125 0 Z M 4.6875 0 "/></g></g></g><g fill="#4c0bd1" fill-opacity="1"><g transform="translate(69.373689, 165.766684)"><g><path d="M 2.34375 0 L 2.34375 -2.34375 L 9.375 -2.34375 L 9.375 0 Z M 0 -2.34375 L 0 -11.71875 L 2.34375 -11.71875 L 2.34375 -2.34375 Z M 9.375 -2.34375 L 9.375 -11.71875 L 11.71875 -11.71875 L 11.71875 -2.34375 Z M 2.34375 -11.71875 L 2.34375 -14.0625 L 9.375 -14.0625 L 9.375 -11.71875 Z M 2.34375 -11.71875 "/></g></g></g><g fill="#4c0bd1" fill-opacity="1"><g transform="translate(83.43033, 165.766684)"><g><path d="M 2.34375 4.6875 L 2.34375 2.34375 L 9.375 2.34375 L 9.375 4.6875 Z M 0 -4.6875 L 0 -11.71875 L 2.34375 -11.71875 L 2.34375 -4.6875 Z M 9.375 2.34375 L 9.375 -2.34375 L 2.34375 -2.34375 L 2.34375 -4.6875 L 9.375 -4.6875 L 9.375 -11.71875 L 11.71875 -11.71875 L 11.71875 2.34375 Z M 2.34375 -11.71875 L 2.34375 -14.0625 L 9.375 -14.0625 L 9.375 -11.71875 Z M 2.34375 -11.71875 "/></g></g></g><g fill="#4c0bd1" fill-opacity="1"><g transform="translate(97.48697, 165.766684)"><g><path d="M 2.34375 0 L 2.34375 -2.34375 L 11.71875 -2.34375 L 11.71875 0 Z M 0 -2.34375 L 0 -11.71875 L 2.34375 -11.71875 L 2.34375 -9.375 L 9.375 -9.375 L 9.375 -11.71875 L 11.71875 -11.71875 L 11.71875 -7.03125 L 2.34375 -7.03125 L 2.34375 -2.34375 Z M 2.34375 -11.71875 L 2.34375 -14.0625 L 9.375 -14.0625 L 9.375 -11.71875 Z M 2.34375 -11.71875 "/></g></g></g><g fill="#4c0bd1" fill-opacity="1"><g transform="translate(111.543611, 165.766684)"><g><path d="M 4.6875 0 L 4.6875 -2.34375 L 9.375 -2.34375 L 9.375 0 Z M 2.34375 -2.34375 L 2.34375 -11.71875 L 0 -11.71875 L 0 -14.0625 L 2.34375 -14.0625 L 2.34375 -21.078125 L 4.6875 -21.078125 L 4.6875 -14.0625 L 9.375 -14.0625 L 9.375 -11.71875 L 4.6875 -11.71875 L 4.6875 -2.34375 Z M 2.34375 -2.34375 "/></g></g></g><g fill="#4c0bd1" fill-opacity="1"><g transform="translate(123.257478, 165.766684)"><g><path d="M 9.375 0 L 9.375 -11.71875 L 11.71875 -11.71875 L 11.71875 0 Z M 0 0 L 0 -21.078125 L 2.34375 -21.078125 L 2.34375 -14.0625 L 9.375 -14.0625 L 9.375 -11.71875 L 2.34375 -11.71875 L 2.34375 0 Z M 0 0 "/></g></g></g><g fill="#4c0bd1" fill-opacity="1"><g transform="translate(137.314118, 165.766684)"><g><path d="M 2.34375 0 L 2.34375 -2.34375 L 11.71875 -2.34375 L 11.71875 0 Z M 0 -2.34375 L 0 -11.71875 L 2.34375 -11.71875 L 2.34375 -9.375 L 9.375 -9.375 L 9.375 -11.71875 L 11.71875 -11.71875 L 11.71875 -7.03125 L 2.34375 -7.03125 L 2.34375 -2.34375 Z M 2.34375 -11.71875 L 2.34375 -14.0625 L 9.375 -14.0625 L 9.375 -11.71875 Z M 2.34375 -11.71875 "/></g></g></g><g fill="#4c0bd1" fill-opacity="1"><g transform="translate(151.370759, 165.766684)"><g><path d="M 9.375 -9.375 L 9.375 -11.71875 L 11.71875 -11.71875 L 11.71875 -9.375 Z M 0 0 L 0 -14.0625 L 9.375 -14.0625 L 9.375 -11.71875 L 2.34375 -11.71875 L 2.34375 0 Z M 0 0 "/></g></g></g><g fill="#4c0bd1" fill-opacity="1"><g transform="translate(165.427399, 165.766684)"><g><path d="M 0 4.6875 L 0 2.34375 L 2.34375 2.34375 L 2.34375 4.6875 Z M 2.34375 2.34375 L 2.34375 0 L 0 0 L 0 -2.34375 L 4.6875 -2.34375 L 4.6875 2.34375 Z M 2.34375 2.34375 "/></g></g></g><g fill="#4c0bd1" fill-opacity="1"><g transform="translate(172.455719, 165.766684)"><g/></g></g><g fill="#4c0bd1" fill-opacity="1"><g transform="translate(188.818344, 165.766684)"><g><path d="M 2.34375 0 L 2.34375 -4.6875 L 4.6875 -4.6875 L 4.6875 0 Z M 7.03125 0 L 7.03125 -4.6875 L 9.375 -4.6875 L 9.375 0 Z M 4.6875 -4.6875 L 4.6875 -11.71875 L 7.03125 -11.71875 L 7.03125 -4.6875 Z M 0 -4.6875 L 0 -14.0625 L 2.34375 -14.0625 L 2.34375 -4.6875 Z M 9.375 -4.6875 L 9.375 -14.0625 L 11.71875 -14.0625 L 11.71875 -4.6875 Z M 9.375 -4.6875 "/></g></g></g><g fill="#4c0bd1" fill-opacity="1"><g transform="translate(202.874985, 165.766684)"><g><path d="M 2.34375 0 L 2.34375 -2.34375 L 11.71875 -2.34375 L 11.71875 0 Z M 0 -2.34375 L 0 -11.71875 L 2.34375 -11.71875 L 2.34375 -9.375 L 9.375 -9.375 L 9.375 -11.71875 L 11.71875 -11.71875 L 11.71875 -7.03125 L 2.34375 -7.03125 L 2.34375 -2.34375 Z M 2.34375 -11.71875 L 2.34375 -14.0625 L 9.375 -14.0625 L 9.375 -11.71875 Z M 2.34375 -11.71875 "/></g></g></g><g fill="#4c0bd1" fill-opacity="1"><g transform="translate(216.931625, 165.766684)"><g/></g></g><g fill="#4c0bd1" fill-opacity="1"><g transform="translate(233.29425, 165.766684)"><g><path d="M 2.34375 0 L 2.34375 -2.34375 L 11.71875 -2.34375 L 11.71875 0 Z M 0 -2.34375 L 0 -11.71875 L 2.34375 -11.71875 L 2.34375 -2.34375 Z M 2.34375 -11.71875 L 2.34375 -14.0625 L 11.71875 -14.0625 L 11.71875 -11.71875 Z M 2.34375 -11.71875 "/></g></g></g><g fill="#4c0bd1" fill-opacity="1"><g transform="translate(247.350891, 165.766684)"><g><path d="M 2.34375 0 L 2.34375 -2.34375 L 9.375 -2.34375 L 9.375 0 Z M 0 -2.34375 L 0 -7.03125 L 2.34375 -7.03125 L 2.34375 -2.34375 Z M 9.375 -2.34375 L 9.375 -7.03125 L 2.34375 -7.03125 L 2.34375 -9.375 L 9.375 -9.375 L 9.375 -11.71875 L 11.71875 -11.71875 L 11.71875 -2.34375 Z M 2.34375 -11.71875 L 2.34375 -14.0625 L 9.375 -14.0625 L 9.375 -11.71875 Z M 2.34375 -11.71875 "/></g></g></g><g fill="#4c0bd1" fill-opacity="1"><g transform="translate(261.407531, 165.766684)"><g><path d="M 9.375 0 L 9.375 -11.71875 L 11.71875 -11.71875 L 11.71875 0 Z M 0 0 L 0 -14.0625 L 9.375 -14.0625 L 9.375 -11.71875 L 2.34375 -11.71875 L 2.34375 0 Z M 0 0 "/></g></g></g><g fill="#4c0bd1" fill-opacity="1"><g transform="translate(275.464172, 165.766684)"><g/></g></g><g fill="#4c0bd1" fill-opacity="1"><g transform="translate(291.826797, 165.766684)"><g><path d="M 2.34375 0 L 2.34375 -2.34375 L 9.375 -2.34375 L 9.375 0 Z M 0 -2.34375 L 0 -7.03125 L 2.34375 -7.03125 L 2.34375 -2.34375 Z M 9.375 -2.34375 L 9.375 -7.03125 L 2.34375 -7.03125 L 2.34375 -9.375 L 9.375 -9.375 L 9.375 -11.71875 L 11.71875 -11.71875 L 11.71875 -2.34375 Z M 2.34375 -11.71875 L 2.34375 -14.0625 L 9.375 -14.0625 L 9.375 -11.71875 Z M 2.34375 -11.71875 "/></g></g></g><g fill="#4c0bd1" fill-opacity="1"><g transform="translate(305.883437, 165.766684)"><g><path d="M 2.34375 0 L 2.34375 -2.34375 L 11.71875 -2.34375 L 11.71875 0 Z M 0 -2.34375 L 0 -11.71875 L 2.34375 -11.71875 L 2.34375 -2.34375 Z M 2.34375 -11.71875 L 2.34375 -14.0625 L 11.71875 -14.0625 L 11.71875 -11.71875 Z M 2.34375 -11.71875 "/></g></g></g><g fill="#4c0bd1" fill-opacity="1"><g transform="translate(319.940093, 165.766684)"><g><path d="M 9.375 0 L 9.375 -11.71875 L 11.71875 -11.71875 L 11.71875 0 Z M 0 0 L 0 -21.078125 L 2.34375 -21.078125 L 2.34375 -14.0625 L 9.375 -14.0625 L 9.375 -11.71875 L 2.34375 -11.71875 L 2.34375 0 Z M 0 0 "/></g></g></g><g fill="#4c0bd1" fill-opacity="1"><g transform="translate(333.996734, 165.766684)"><g><path d="M 2.34375 0 L 2.34375 -11.71875 L 0 -11.71875 L 0 -14.0625 L 4.6875 -14.0625 L 4.6875 0 Z M 2.34375 -18.75 L 2.34375 -21.078125 L 4.6875 -21.078125 L 4.6875 -18.75 Z M 2.34375 -18.75 "/></g></g></g><g fill="#4c0bd1" fill-opacity="1"><g transform="translate(341.025054, 165.766684)"><g><path d="M 2.34375 0 L 2.34375 -2.34375 L 11.71875 -2.34375 L 11.71875 0 Z M 0 -2.34375 L 0 -11.71875 L 2.34375 -11.71875 L 2.34375 -9.375 L 9.375 -9.375 L 9.375 -11.71875 L 11.71875 -11.71875 L 11.71875 -7.03125 L 2.34375 -7.03125 L 2.34375 -2.34375 Z M 2.34375 -11.71875 L 2.34375 -14.0625 L 9.375 -14.0625 L 9.375 -11.71875 Z M 2.34375 -11.71875 "/></g></g></g><g fill="#4c0bd1" fill-opacity="1"><g transform="translate(355.081694, 165.766684)"><g><path d="M 4.6875 0 L 4.6875 -2.34375 L 7.03125 -2.34375 L 7.03125 0 Z M 2.34375 -2.34375 L 2.34375 -7.03125 L 4.6875 -7.03125 L 4.6875 -2.34375 Z M 7.03125 -2.34375 L 7.03125 -7.03125 L 9.375 -7.03125 L 9.375 -2.34375 Z M 0 -7.03125 L 0 -14.0625 L 2.34375 -14.0625 L 2.34375 -7.03125 Z M 9.375 -7.03125 L 9.375 -14.0625 L 11.71875 -14.0625 L 11.71875 -7.03125 Z M 9.375 -7.03125 "/></g></g></g><g fill="#4c0bd1" fill-opacity="1"><g transform="translate(369.138335, 165.766684)"><g><path d="M 2.34375 0 L 2.34375 -2.34375 L 11.71875 -2.34375 L 11.71875 0 Z M 0 -2.34375 L 0 -11.71875 L 2.34375 -11.71875 L 2.34375 -9.375 L 9.375 -9.375 L 9.375 -11.71875 L 11.71875 -11.71875 L 11.71875 -7.03125 L 2.34375 -7.03125 L 2.34375 -2.34375 Z M 2.34375 -11.71875 L 2.34375 -14.0625 L 9.375 -14.0625 L 9.375 -11.71875 Z M 2.34375 -11.71875 "/></g></g></g><g fill="#4c0bd1" fill-opacity="1"><g transform="translate(383.194975, 165.766684)"><g/></g></g><g fill="#4c0bd1" fill-opacity="1"><g transform="translate(399.557616, 165.766684)"><g><path d="M 0 -2.34375 L 0 -14.0625 L 2.34375 -14.0625 L 2.34375 -2.34375 Z M 2.34375 0 L 2.34375 -2.34375 L 9.375 -2.34375 L 9.375 -14.0625 L 11.71875 -14.0625 L 11.71875 0 Z M 2.34375 0 "/></g></g></g><g fill="#4c0bd1" fill-opacity="1"><g transform="translate(413.614256, 165.766684)"><g><path d="M 9.375 0 L 9.375 -11.71875 L 11.71875 -11.71875 L 11.71875 0 Z M 0 0 L 0 -14.0625 L 9.375 -14.0625 L 9.375 -11.71875 L 2.34375 -11.71875 L 2.34375 0 Z M 0 0 "/></g></g></g><g fill="#4c0bd1" fill-opacity="1"><g transform="translate(427.670897, 165.766684)"><g><path d="M 2.34375 0 L 2.34375 -11.71875 L 0 -11.71875 L 0 -14.0625 L 4.6875 -14.0625 L 4.6875 0 Z M 2.34375 -18.75 L 2.34375 -21.078125 L 4.6875 -21.078125 L 4.6875 -18.75 Z M 2.34375 -18.75 "/></g></g></g><g fill="#4c0bd1" fill-opacity="1"><g transform="translate(434.699217, 165.766684)"><g><path d="M 4.6875 -2.34375 L 4.6875 -11.71875 L 7.03125 -11.71875 L 7.03125 -2.34375 Z M 9.375 0 L 9.375 -11.71875 L 11.71875 -11.71875 L 11.71875 0 Z M 0 0 L 0 -14.0625 L 4.6875 -14.0625 L 4.6875 -11.71875 L 2.34375 -11.71875 L 2.34375 0 Z M 7.03125 -11.71875 L 7.03125 -14.0625 L 9.375 -14.0625 L 9.375 -11.71875 Z M 7.03125 -11.71875 "/></g></g></g><g fill="#4c0bd1" fill-opacity="1"><g transform="translate(448.755858, 165.766684)"><g><path d="M 2.34375 0 L 2.34375 -2.34375 L 9.375 -2.34375 L 9.375 0 Z M 0 -2.34375 L 0 -7.03125 L 2.34375 -7.03125 L 2.34375 -2.34375 Z M 9.375 -2.34375 L 9.375 -7.03125 L 2.34375 -7.03125 L 2.34375 -9.375 L 9.375 -9.375 L 9.375 -11.71875 L 11.71875 -11.71875 L 11.71875 -2.34375 Z M 2.34375 -11.71875 L 2.34375 -14.0625 L 9.375 -14.0625 L 9.375 -11.71875 Z M 2.34375 -11.71875 "/></g></g></g><g fill="#4c0bd1" fill-opacity="1"><g transform="translate(462.812498, 165.766684)"><g><path d="M 2.34375 4.6875 L 2.34375 2.34375 L 9.375 2.34375 L 9.375 4.6875 Z M 0 -4.6875 L 0 -11.71875 L 2.34375 -11.71875 L 2.34375 -4.6875 Z M 9.375 2.34375 L 9.375 -2.34375 L 2.34375 -2.34375 L 2.34375 -4.6875 L 9.375 -4.6875 L 9.375 -11.71875 L 11.71875 -11.71875 L 11.71875 2.34375 Z M 2.34375 -11.71875 L 2.34375 -14.0625 L 9.375 -14.0625 L 9.375 -11.71875 Z M 2.34375 -11.71875 "/></g></g></g><g fill="#4c0bd1" fill-opacity="1"><g transform="translate(476.869139, 165.766684)"><g><path d="M 2.34375 0 L 2.34375 -11.71875 L 0 -11.71875 L 0 -14.0625 L 4.6875 -14.0625 L 4.6875 0 Z M 2.34375 -18.75 L 2.34375 -21.078125 L 4.6875 -21.078125 L 4.6875 -18.75 Z M 2.34375 -18.75 "/></g></g></g><g fill="#4c0bd1" fill-opacity="1"><g transform="translate(483.897459, 165.766684)"><g><path d="M 9.375 0 L 9.375 -11.71875 L 11.71875 -11.71875 L 11.71875 0 Z M 0 0 L 0 -14.0625 L 9.375 -14.0625 L 9.375 -11.71875 L 2.34375 -11.71875 L 2.34375 0 Z M 0 0 "/></g></g></g><g fill="#4c0bd1" fill-opacity="1"><g transform="translate(497.954099, 165.766684)"><g><path d="M 2.34375 0 L 2.34375 -2.34375 L 9.375 -2.34375 L 9.375 0 Z M 0 -2.34375 L 0 -7.03125 L 2.34375 -7.03125 L 2.34375 -2.34375 Z M 9.375 -2.34375 L 9.375 -7.03125 L 2.34375 -7.03125 L 2.34375 -9.375 L 9.375 -9.375 L 9.375 -11.71875 L 11.71875 -11.71875 L 11.71875 -2.34375 Z M 2.34375 -11.71875 L 2.34375 -14.0625 L 9.375 -14.0625 L 9.375 -11.71875 Z M 2.34375 -11.71875 "/></g></g></g><g fill="#4c0bd1" fill-opacity="1"><g transform="translate(512.01074, 165.766684)"><g><path d="M 9.375 -2.34375 L 9.375 -11.71875 L 11.71875 -11.71875 L 11.71875 -2.34375 Z M 0 0 L 0 -21.078125 L 2.34375 -21.078125 L 2.34375 -14.0625 L 9.375 -14.0625 L 9.375 -11.71875 L 2.34375 -11.71875 L 2.34375 -2.34375 L 9.375 -2.34375 L 9.375 0 Z M 0 0 "/></g></g></g><g fill="#4c0bd1" fill-opacity="1"><g transform="translate(526.06738, 165.766684)"><g><path d="M 2.34375 0 L 2.34375 -18.75 L 0 -18.75 L 0 -21.078125 L 4.6875 -21.078125 L 4.6875 0 Z M 2.34375 0 "/></g></g></g><g fill="#4c0bd1" fill-opacity="1"><g transform="translate(533.095701, 165.766684)"><g><path d="M 2.34375 0 L 2.34375 -2.34375 L 11.71875 -2.34375 L 11.71875 0 Z M 0 -2.34375 L 0 -11.71875 L 2.34375 -11.71875 L 2.34375 -9.375 L 9.375 -9.375 L 9.375 -11.71875 L 11.71875 -11.71875 L 11.71875 -7.03125 L 2.34375 -7.03125 L 2.34375 -2.34375 Z M 2.34375 -11.71875 L 2.34375 -14.0625 L 9.375 -14.0625 L 9.375 -11.71875 Z M 2.34375 -11.71875 "/></g></g></g><g fill="#4c0bd1" fill-opacity="1"><g transform="translate(547.152341, 165.766684)"><g/></g></g><g fill="#4c0bd1" fill-opacity="1"><g transform="translate(563.514982, 165.766684)"><g><path d="M 9.375 0 L 9.375 -11.71875 L 11.71875 -11.71875 L 11.71875 0 Z M 0 0 L 0 -21.078125 L 2.34375 -21.078125 L 2.34375 -14.0625 L 9.375 -14.0625 L 9.375 -11.71875 L 2.34375 -11.71875 L 2.34375 0 Z M 0 0 "/></g></g></g><g fill="#4c0bd1" fill-opacity="1"><g transform="translate(577.571622, 165.766684)"><g><path d="M 2.34375 0 L 2.34375 -2.34375 L 11.71875 -2.34375 L 11.71875 0 Z M 0 -2.34375 L 0 -11.71875 L 2.34375 -11.71875 L 2.34375 -9.375 L 9.375 -9.375 L 9.375 -11.71875 L 11.71875 -11.71875 L 11.71875 -7.03125 L 2.34375 -7.03125 L 2.34375 -2.34375 Z M 2.34375 -11.71875 L 2.34375 -14.0625 L 9.375 -14.0625 L 9.375 -11.71875 Z M 2.34375 -11.71875 "/></g></g></g><g fill="#4c0bd1" fill-opacity="1"><g transform="translate(591.628262, 165.766684)"><g><path d="M 2.34375 0 L 2.34375 -11.71875 L 0 -11.71875 L 0 -14.0625 L 4.6875 -14.0625 L 4.6875 0 Z M 2.34375 -18.75 L 2.34375 -21.078125 L 4.6875 -21.078125 L 4.6875 -18.75 Z M 2.34375 -18.75 "/></g></g></g><g fill="#4c0bd1" fill-opacity="1"><g transform="translate(598.656583, 165.766684)"><g><path d="M 2.34375 4.6875 L 2.34375 2.34375 L 9.375 2.34375 L 9.375 4.6875 Z M 0 -4.6875 L 0 -11.71875 L 2.34375 -11.71875 L 2.34375 -4.6875 Z M 9.375 2.34375 L 9.375 -2.34375 L 2.34375 -2.34375 L 2.34375 -4.6875 L 9.375 -4.6875 L 9.375 -11.71875 L 11.71875 -11.71875 L 11.71875 2.34375 Z M 2.34375 -11.71875 L 2.34375 -14.0625 L 9.375 -14.0625 L 9.375 -11.71875 Z M 2.34375 -11.71875 "/></g></g></g><g fill="#4c0bd1" fill-opacity="1"><g transform="translate(612.713223, 165.766684)"><g><path d="M 9.375 0 L 9.375 -11.71875 L 11.71875 -11.71875 L 11.71875 0 Z M 0 0 L 0 -21.078125 L 2.34375 -21.078125 L 2.34375 -14.0625 L 9.375 -14.0625 L 9.375 -11.71875 L 2.34375 -11.71875 L 2.34375 0 Z M 0 0 "/></g></g></g><g fill="#4c0bd1" fill-opacity="1"><g transform="translate(626.769864, 165.766684)"><g><path d="M 4.6875 0 L 4.6875 -2.34375 L 9.375 -2.34375 L 9.375 0 Z M 2.34375 -2.34375 L 2.34375 -11.71875 L 0 -11.71875 L 0 -14.0625 L 2.34375 -14.0625 L 2.34375 -21.078125 L 4.6875 -21.078125 L 4.6875 -14.0625 L 9.375 -14.0625 L 9.375 -11.71875 L 4.6875 -11.71875 L 4.6875 -2.34375 Z M 2.34375 -2.34375 "/></g></g></g><g fill="#4c0bd1" fill-opacity="1"><g transform="translate(638.483731, 165.766684)"><g><path d="M 0 0 L 0 -2.34375 L 9.375 -2.34375 L 9.375 0 Z M 9.375 -2.34375 L 9.375 -7.03125 L 11.71875 -7.03125 L 11.71875 -2.34375 Z M 2.34375 -7.03125 L 2.34375 -9.375 L 9.375 -9.375 L 9.375 -7.03125 Z M 0 -9.375 L 0 -11.71875 L 2.34375 -11.71875 L 2.34375 -9.375 Z M 2.34375 -11.71875 L 2.34375 -14.0625 L 11.71875 -14.0625 L 11.71875 -11.71875 Z M 2.34375 -11.71875 "/></g></g></g><g fill="#4c0bd1" fill-opacity="1"><g transform="translate(652.540371, 165.766684)"><g/></g></g><g fill="#4c0bd1" fill-opacity="1"><g transform="translate(668.902981, 165.766684)"><g><path d="M 2.34375 0 L 2.34375 -2.34375 L 9.375 -2.34375 L 9.375 0 Z M 0 -2.34375 L 0 -11.71875 L 2.34375 -11.71875 L 2.34375 -2.34375 Z M 9.375 -2.34375 L 9.375 -11.71875 L 11.71875 -11.71875 L 11.71875 -2.34375 Z M 2.34375 -11.71875 L 2.34375 -14.0625 L 9.375 -14.0625 L 9.375 -11.71875 Z M 2.34375 -11.71875 "/></g></g></g><g fill="#4c0bd1" fill-opacity="1"><g transform="translate(682.959622, 165.766684)"><g><path d="M 2.34375 0 L 2.34375 -11.71875 L 0 -11.71875 L 0 -14.0625 L 2.34375 -14.0625 L 2.34375 -18.75 L 4.6875 -18.75 L 4.6875 -14.0625 L 9.375 -14.0625 L 9.375 -11.71875 L 4.6875 -11.71875 L 4.6875 0 Z M 4.6875 -18.75 L 4.6875 -21.078125 L 9.375 -21.078125 L 9.375 -18.75 Z M 4.6875 -18.75 "/></g></g></g><g fill="#4c0bd1" fill-opacity="1"><g transform="translate(55.317049, 199.266684)"><g><path d="M 2.34375 0 L 2.34375 -11.71875 L 0 -11.71875 L 0 -14.0625 L 4.6875 -14.0625 L 4.6875 0 Z M 2.34375 -18.75 L 2.34375 -21.078125 L 4.6875 -21.078125 L 4.6875 -18.75 Z M 2.34375 -18.75 "/></g></g></g><g fill="#4c0bd1" fill-opacity="1"><g transform="translate(62.345369, 199.266684)"><g><path d="M 9.375 0 L 9.375 -11.71875 L 11.71875 -11.71875 L 11.71875 0 Z M 0 0 L 0 -14.0625 L 9.375 -14.0625 L 9.375 -11.71875 L 2.34375 -11.71875 L 2.34375 0 Z M 0 0 "/></g></g></g><g fill="#4c0bd1" fill-opacity="1"><g transform="translate(76.40201, 199.266684)"><g><path d="M 9.375 0 L 9.375 -11.71875 L 11.71875 -11.71875 L 11.71875 0 Z M 0 0 L 0 -14.0625 L 9.375 -14.0625 L 9.375 -11.71875 L 2.34375 -11.71875 L 2.34375 0 Z M 0 0 "/></g></g></g><g fill="#4c0bd1" fill-opacity="1"><g transform="translate(90.45865, 199.266684)"><g><path d="M 2.34375 0 L 2.34375 -2.34375 L 9.375 -2.34375 L 9.375 0 Z M 0 -2.34375 L 0 -11.71875 L 2.34375 -11.71875 L 2.34375 -2.34375 Z M 9.375 -2.34375 L 9.375 -11.71875 L 11.71875 -11.71875 L 11.71875 -2.34375 Z M 2.34375 -11.71875 L 2.34375 -14.0625 L 9.375 -14.0625 L 9.375 -11.71875 Z M 2.34375 -11.71875 "/></g></g></g><g fill="#4c0bd1" fill-opacity="1"><g transform="translate(104.515291, 199.266684)"><g><path d="M 4.6875 0 L 4.6875 -2.34375 L 7.03125 -2.34375 L 7.03125 0 Z M 2.34375 -2.34375 L 2.34375 -7.03125 L 4.6875 -7.03125 L 4.6875 -2.34375 Z M 7.03125 -2.34375 L 7.03125 -7.03125 L 9.375 -7.03125 L 9.375 -2.34375 Z M 0 -7.03125 L 0 -14.0625 L 2.34375 -14.0625 L 2.34375 -7.03125 Z M 9.375 -7.03125 L 9.375 -14.0625 L 11.71875 -14.0625 L 11.71875 -7.03125 Z M 9.375 -7.03125 "/></g></g></g><g fill="#4c0bd1" fill-opacity="1"><g transform="translate(118.571931, 199.266684)"><g><path d="M 2.34375 0 L 2.34375 -2.34375 L 9.375 -2.34375 L 9.375 0 Z M 0 -2.34375 L 0 -7.03125 L 2.34375 -7.03125 L 2.34375 -2.34375 Z M 9.375 -2.34375 L 9.375 -7.03125 L 2.34375 -7.03125 L 2.34375 -9.375 L 9.375 -9.375 L 9.375 -11.71875 L 11.71875 -11.71875 L 11.71875 -2.34375 Z M 2.34375 -11.71875 L 2.34375 -14.0625 L 9.375 -14.0625 L 9.375 -11.71875 Z M 2.34375 -11.71875 "/></g></g></g><g fill="#4c0bd1" fill-opacity="1"><g transform="translate(132.628572, 199.266684)"><g><path d="M 4.6875 0 L 4.6875 -2.34375 L 9.375 -2.34375 L 9.375 0 Z M 2.34375 -2.34375 L 2.34375 -11.71875 L 0 -11.71875 L 0 -14.0625 L 2.34375 -14.0625 L 2.34375 -21.078125 L 4.6875 -21.078125 L 4.6875 -14.0625 L 9.375 -14.0625 L 9.375 -11.71875 L 4.6875 -11.71875 L 4.6875 -2.34375 Z M 2.34375 -2.34375 "/></g></g></g><g fill="#4c0bd1" fill-opacity="1"><g transform="translate(144.342439, 199.266684)"><g><path d="M 2.34375 0 L 2.34375 -11.71875 L 0 -11.71875 L 0 -14.0625 L 4.6875 -14.0625 L 4.6875 0 Z M 2.34375 -18.75 L 2.34375 -21.078125 L 4.6875 -21.078125 L 4.6875 -18.75 Z M 2.34375 -18.75 "/></g></g></g><g fill="#4c0bd1" fill-opacity="1"><g transform="translate(151.370759, 199.266684)"><g><path d="M 2.34375 0 L 2.34375 -2.34375 L 9.375 -2.34375 L 9.375 0 Z M 0 -2.34375 L 0 -11.71875 L 2.34375 -11.71875 L 2.34375 -2.34375 Z M 9.375 -2.34375 L 9.375 -11.71875 L 11.71875 -11.71875 L 11.71875 -2.34375 Z M 2.34375 -11.71875 L 2.34375 -14.0625 L 9.375 -14.0625 L 9.375 -11.71875 Z M 2.34375 -11.71875 "/></g></g></g><g fill="#4c0bd1" fill-opacity="1"><g transform="translate(165.427399, 199.266684)"><g><path d="M 9.375 0 L 9.375 -11.71875 L 11.71875 -11.71875 L 11.71875 0 Z M 0 0 L 0 -14.0625 L 9.375 -14.0625 L 9.375 -11.71875 L 2.34375 -11.71875 L 2.34375 0 Z M 0 0 "/></g></g></g><g fill="#4c0bd1" fill-opacity="1"><g transform="translate(179.48404, 199.266684)"><g/></g></g><g fill="#4c0bd1" fill-opacity="1"><g transform="translate(184.169587, 199.266684)"><g><path d="M 2.34375 0 L 2.34375 -2.34375 L 9.375 -2.34375 L 9.375 0 Z M 0 -2.34375 L 0 -7.03125 L 2.34375 -7.03125 L 2.34375 -2.34375 Z M 9.375 -2.34375 L 9.375 -7.03125 L 2.34375 -7.03125 L 2.34375 -9.375 L 9.375 -9.375 L 9.375 -11.71875 L 11.71875 -11.71875 L 11.71875 -2.34375 Z M 2.34375 -11.71875 L 2.34375 -14.0625 L 9.375 -14.0625 L 9.375 -11.71875 Z M 2.34375 -11.71875 "/></g></g></g><g fill="#4c0bd1" fill-opacity="1"><g transform="translate(198.226227, 199.266684)"><g><path d="M 9.375 0 L 9.375 -11.71875 L 11.71875 -11.71875 L 11.71875 0 Z M 0 0 L 0 -14.0625 L 9.375 -14.0625 L 9.375 -11.71875 L 2.34375 -11.71875 L 2.34375 0 Z M 0 0 "/></g></g></g><g fill="#4c0bd1" fill-opacity="1"><g transform="translate(212.282868, 199.266684)"><g><path d="M 0 -2.34375 L 0 -11.71875 L 2.34375 -11.71875 L 2.34375 -2.34375 Z M 2.34375 0 L 2.34375 -2.34375 L 9.375 -2.34375 L 9.375 -11.71875 L 2.34375 -11.71875 L 2.34375 -14.0625 L 9.375 -14.0625 L 9.375 -21.078125 L 11.71875 -21.078125 L 11.71875 0 Z M 2.34375 0 "/></g></g></g><g fill="#4c0bd1" fill-opacity="1"><g transform="translate(226.339508, 199.266684)"><g/></g></g><g fill="#4c0bd1" fill-opacity="1"><g transform="translate(231.025055, 199.266684)"><g><path d="M 9.375 -4.6875 L 9.375 -11.71875 L 11.71875 -11.71875 L 11.71875 -4.6875 Z M 0 4.6875 L 0 -14.0625 L 9.375 -14.0625 L 9.375 -11.71875 L 2.34375 -11.71875 L 2.34375 -4.6875 L 9.375 -4.6875 L 9.375 -2.34375 L 2.34375 -2.34375 L 2.34375 4.6875 Z M 0 4.6875 "/></g></g></g><g fill="#4c0bd1" fill-opacity="1"><g transform="translate(245.081695, 199.266684)"><g><path d="M 9.375 -9.375 L 9.375 -11.71875 L 11.71875 -11.71875 L 11.71875 -9.375 Z M 0 0 L 0 -14.0625 L 9.375 -14.0625 L 9.375 -11.71875 L 2.34375 -11.71875 L 2.34375 0 Z M 0 0 "/></g></g></g><g fill="#4c0bd1" fill-opacity="1"><g transform="translate(259.138336, 199.266684)"><g><path d="M 2.34375 0 L 2.34375 -2.34375 L 9.375 -2.34375 L 9.375 0 Z M 0 -2.34375 L 0 -11.71875 L 2.34375 -11.71875 L 2.34375 -2.34375 Z M 9.375 -2.34375 L 9.375 -11.71875 L 11.71875 -11.71875 L 11.71875 -2.34375 Z M 2.34375 -11.71875 L 2.34375 -14.0625 L 9.375 -14.0625 L 9.375 -11.71875 Z M 2.34375 -11.71875 "/></g></g></g><g fill="#4c0bd1" fill-opacity="1"><g transform="translate(273.194976, 199.266684)"><g><path d="M 2.34375 4.6875 L 2.34375 2.34375 L 9.375 2.34375 L 9.375 4.6875 Z M 0 -4.6875 L 0 -11.71875 L 2.34375 -11.71875 L 2.34375 -4.6875 Z M 9.375 2.34375 L 9.375 -2.34375 L 2.34375 -2.34375 L 2.34375 -4.6875 L 9.375 -4.6875 L 9.375 -11.71875 L 11.71875 -11.71875 L 11.71875 2.34375 Z M 2.34375 -11.71875 L 2.34375 -14.0625 L 9.375 -14.0625 L 9.375 -11.71875 Z M 2.34375 -11.71875 "/></g></g></g><g fill="#4c0bd1" fill-opacity="1"><g transform="translate(287.251617, 199.266684)"><g><path d="M 9.375 -9.375 L 9.375 -11.71875 L 11.71875 -11.71875 L 11.71875 -9.375 Z M 0 0 L 0 -14.0625 L 9.375 -14.0625 L 9.375 -11.71875 L 2.34375 -11.71875 L 2.34375 0 Z M 0 0 "/></g></g></g><g fill="#4c0bd1" fill-opacity="1"><g transform="translate(301.308257, 199.266684)"><g><path d="M 2.34375 0 L 2.34375 -2.34375 L 11.71875 -2.34375 L 11.71875 0 Z M 0 -2.34375 L 0 -11.71875 L 2.34375 -11.71875 L 2.34375 -9.375 L 9.375 -9.375 L 9.375 -11.71875 L 11.71875 -11.71875 L 11.71875 -7.03125 L 2.34375 -7.03125 L 2.34375 -2.34375 Z M 2.34375 -11.71875 L 2.34375 -14.0625 L 9.375 -14.0625 L 9.375 -11.71875 Z M 2.34375 -11.71875 "/></g></g></g><g fill="#4c0bd1" fill-opacity="1"><g transform="translate(315.364898, 199.266684)"><g><path d="M 0 0 L 0 -2.34375 L 9.375 -2.34375 L 9.375 0 Z M 9.375 -2.34375 L 9.375 -7.03125 L 11.71875 -7.03125 L 11.71875 -2.34375 Z M 2.34375 -7.03125 L 2.34375 -9.375 L 9.375 -9.375 L 9.375 -7.03125 Z M 0 -9.375 L 0 -11.71875 L 2.34375 -11.71875 L 2.34375 -9.375 Z M 2.34375 -11.71875 L 2.34375 -14.0625 L 11.71875 -14.0625 L 11.71875 -11.71875 Z M 2.34375 -11.71875 "/></g></g></g><g fill="#4c0bd1" fill-opacity="1"><g transform="translate(329.421538, 199.266684)"><g><path d="M 0 0 L 0 -2.34375 L 9.375 -2.34375 L 9.375 0 Z M 9.375 -2.34375 L 9.375 -7.03125 L 11.71875 -7.03125 L 11.71875 -2.34375 Z M 2.34375 -7.03125 L 2.34375 -9.375 L 9.375 -9.375 L 9.375 -7.03125 Z M 0 -9.375 L 0 -11.71875 L 2.34375 -11.71875 L 2.34375 -9.375 Z M 2.34375 -11.71875 L 2.34375 -14.0625 L 11.71875 -14.0625 L 11.71875 -11.71875 Z M 2.34375 -11.71875 "/></g></g></g><g fill="#4c0bd1" fill-opacity="1"><g transform="translate(343.478179, 199.266684)"><g><path d="M 0 0 L 0 -2.34375 L 2.34375 -2.34375 L 2.34375 0 Z M 0 0 "/></g></g></g></svg>