<svg xmlns="http://www.w3.org/2000/svg" xmlns:xlink="http://www.w3.org/1999/xlink" width="1000" zoomAndPan="magnify" viewBox="0 0 750 299.999988" height="400" preserveAspectRatio="xMidYMid meet" version="1.0"><defs><g/><clipPath id="622614570e"><path d="M 41.5625 55.085938 L 720 55.085938 L 720 255.730469 L 41.5625 255.730469 Z M 41.5625 55.085938 " clip-rule="nonzero"/></clipPath><clipPath id="40620bd070"><path d="M 714.96875 255.730469 L 46.222656 255.730469 C 43.65625 255.730469 41.5625 253.636719 41.5625 251.066406 L 41.5625 59.746094 C 41.5625 57.179688 43.65625 55.085938 46.222656 55.085938 L 714.96875 55.085938 C 717.535156 55.085938 719.628906 57.179688 719.628906 59.746094 L 719.628906 251.066406 C 719.628906 253.636719 717.535156 255.730469 714.96875 255.730469 Z M 714.96875 255.730469 " clip-rule="nonzero"/></clipPath><clipPath id="eae3765ceb"><path d="M 30.371094 44.269531 L 707.863281 44.269531 L 707.863281 245.6875 L 30.371094 245.6875 Z M 30.371094 44.269531 " clip-rule="nonzero"/></clipPath><clipPath id="792f5ac5fe"><path d="M 707.542969 47.632812 L 707.542969 58.785156 L 30.371094 58.785156 L 30.371094 47.632812 C 30.371094 45.796875 31.898438 44.269531 33.730469 44.269531 L 704.179688 44.269531 C 706.015625 44.269531 707.542969 45.796875 707.542969 47.632812 Z M 707.542969 240.949219 L 707.542969 242.324219 C 707.542969 244.160156 706.050781 245.6875 704.179688 245.6875 L 33.730469 245.6875 C 31.898438 245.6875 30.371094 244.195312 30.371094 242.324219 L 30.371094 240.949219 Z M 707.542969 240.949219 " clip-rule="nonzero"/></clipPath><clipPath id="aa021c9772"><path d="M 36.472656 47.320312 L 700.617188 47.320312 L 700.617188 55.714844 L 36.472656 55.714844 Z M 36.472656 47.320312 " clip-rule="nonzero"/></clipPath><clipPath id="4f112612db"><path d="M 698.792969 47.441406 L 693.902344 47.441406 C 692.988281 47.441406 692.261719 48.167969 692.261719 49.082031 L 692.261719 53.972656 C 692.261719 54.890625 692.988281 55.617188 693.902344 55.617188 L 698.792969 55.617188 C 699.710938 55.617188 700.4375 54.890625 700.4375 53.972656 L 700.4375 49.121094 C 700.476562 48.203125 699.710938 47.441406 698.792969 47.441406 Z M 39.617188 48.585938 C 41.257812 48.585938 42.558594 49.886719 42.558594 51.527344 C 42.558594 53.171875 41.257812 54.46875 39.617188 54.46875 C 37.972656 54.46875 36.675781 53.171875 36.675781 51.527344 C 36.675781 49.886719 37.972656 48.585938 39.617188 48.585938 Z M 48.402344 48.585938 C 50.042969 48.585938 51.34375 49.886719 51.34375 51.527344 C 51.34375 53.171875 50.042969 54.46875 48.402344 54.46875 C 46.757812 54.46875 45.460938 53.171875 45.460938 51.527344 C 45.460938 49.886719 46.757812 48.585938 48.402344 48.585938 Z M 58.183594 48.585938 C 59.824219 48.585938 61.125 49.886719 61.125 51.527344 C 61.125 53.171875 59.824219 54.46875 58.183594 54.46875 C 56.539062 54.46875 55.242188 53.171875 55.242188 51.527344 C 55.242188 49.886719 56.539062 48.585938 58.183594 48.585938 Z M 549.882812 48.890625 C 549.882812 49.234375 548.832031 49.503906 547.78125 49.542969 L 188.902344 49.542969 C 187.722656 49.542969 186.933594 49.273438 186.933594 48.929688 C 186.933594 48.585938 187.851562 48.320312 188.902344 48.28125 L 547.78125 48.28125 C 548.964844 48.242188 549.882812 48.511719 549.882812 48.890625 Z M 549.882812 51.527344 C 549.882812 51.871094 548.832031 52.140625 547.78125 52.179688 L 188.902344 52.179688 C 187.722656 52.179688 186.933594 51.910156 186.933594 51.566406 C 186.933594 51.222656 187.851562 50.957031 188.902344 50.917969 L 547.78125 50.917969 C 548.964844 50.878906 549.882812 51.144531 549.882812 51.527344 Z M 549.882812 54.164062 C 549.882812 54.507812 548.832031 54.777344 547.78125 54.8125 L 188.902344 54.8125 C 187.722656 54.8125 186.933594 54.546875 186.933594 54.203125 C 186.933594 53.859375 187.851562 53.589844 188.902344 53.554688 L 547.78125 53.554688 C 548.964844 53.515625 549.882812 53.78125 549.882812 54.164062 Z M 549.882812 54.164062 " clip-rule="nonzero"/></clipPath><clipPath id="63a27fd13d"><path d="M 30.371094 58.785156 L 707.542969 58.785156 L 707.542969 240.949219 L 30.371094 240.949219 Z M 30.371094 58.785156 " clip-rule="nonzero"/></clipPath></defs><rect x="-75" width="900" fill="#ffffff" y="-29.999999" height="359.999986" fill-opacity="1"/><rect x="-75" width="900" fill="#ffffff" y="-29.999999" height="359.999986" fill-opacity="1"/><g clip-path="url(#622614570e)"><g clip-path="url(#40620bd070)"><path fill="#75c7fb" d="M 41.5625 55.085938 L 719.566406 55.085938 L 719.566406 255.730469 L 41.5625 255.730469 Z M 41.5625 55.085938 " fill-opacity="1" fill-rule="nonzero"/></g></g><g clip-path="url(#eae3765ceb)"><g clip-path="url(#792f5ac5fe)"><path fill="#eff0f2" d="M 30.371094 44.269531 L 707.484375 44.269531 L 707.484375 245.6875 L 30.371094 245.6875 Z M 30.371094 44.269531 " fill-opacity="1" fill-rule="nonzero"/></g></g><g clip-path="url(#aa021c9772)"><g clip-path="url(#4f112612db)"><path fill="#9aa7b2" d="M 30.371094 44.269531 L 707.484375 44.269531 L 707.484375 245.6875 L 30.371094 245.6875 Z M 30.371094 44.269531 " fill-opacity="1" fill-rule="nonzero"/></g></g><g clip-path="url(#63a27fd13d)"><path fill="#ffffff" d="M 30.371094 44.269531 L 707.484375 44.269531 L 707.484375 245.6875 L 30.371094 245.6875 Z M 30.371094 44.269531 " fill-opacity="1" fill-rule="nonzero"/></g><g fill="#4c0bd1" fill-opacity="1"><g transform="translate(55.317049, 115.516732)"><g><path d="M 9.375 0 L 9.375 -7.03125 L 11.71875 -7.03125 L 11.71875 0 Z M 9.375 -11.71875 L 9.375 -18.75 L 11.71875 -18.75 L 11.71875 -11.71875 Z M 0 0 L 0 -21.078125 L 9.375 -21.078125 L 9.375 -18.75 L 2.34375 -18.75 L 2.34375 -11.71875 L 9.375 -11.71875 L 9.375 -7.03125 L 7.03125 -7.03125 L 7.03125 -9.375 L 2.34375 -9.375 L 2.34375 0 Z M 0 0 "/></g></g></g><g fill="#4c0bd1" fill-opacity="1"><g transform="translate(69.373689, 115.516732)"><g><path d="M 2.34375 0 L 2.34375 -2.34375 L 11.71875 -2.34375 L 11.71875 0 Z M 0 -2.34375 L 0 -11.71875 L 2.34375 -11.71875 L 2.34375 -9.375 L 9.375 -9.375 L 9.375 -11.71875 L 11.71875 -11.71875 L 11.71875 -7.03125 L 2.34375 -7.03125 L 2.34375 -2.34375 Z M 2.34375 -11.71875 L 2.34375 -14.0625 L 9.375 -14.0625 L 9.375 -11.71875 Z M 2.34375 -11.71875 "/></g></g></g><g fill="#4c0bd1" fill-opacity="1"><g transform="translate(83.43033, 115.516732)"><g><path d="M 0 0 L 0 -2.34375 L 9.375 -2.34375 L 9.375 0 Z M 9.375 -2.34375 L 9.375 -7.03125 L 11.71875 -7.03125 L 11.71875 -2.34375 Z M 2.34375 -7.03125 L 2.34375 -9.375 L 9.375 -9.375 L 9.375 -7.03125 Z M 0 -9.375 L 0 -11.71875 L 2.34375 -11.71875 L 2.34375 -9.375 Z M 2.34375 -11.71875 L 2.34375 -14.0625 L 11.71875 -14.0625 L 11.71875 -11.71875 Z M 2.34375 -11.71875 "/></g></g></g><g fill="#4c0bd1" fill-opacity="1"><g transform="translate(97.48697, 115.516732)"><g><path d="M 9.375 -4.6875 L 9.375 -11.71875 L 11.71875 -11.71875 L 11.71875 -4.6875 Z M 0 4.6875 L 0 -14.0625 L 9.375 -14.0625 L 9.375 -11.71875 L 2.34375 -11.71875 L 2.34375 -4.6875 L 9.375 -4.6875 L 9.375 -2.34375 L 2.34375 -2.34375 L 2.34375 4.6875 Z M 0 4.6875 "/></g></g></g><g fill="#4c0bd1" fill-opacity="1"><g transform="translate(111.543611, 115.516732)"><g><path d="M 2.34375 0 L 2.34375 -2.34375 L 9.375 -2.34375 L 9.375 0 Z M 0 -2.34375 L 0 -11.71875 L 2.34375 -11.71875 L 2.34375 -2.34375 Z M 9.375 -2.34375 L 9.375 -11.71875 L 11.71875 -11.71875 L 11.71875 -2.34375 Z M 2.34375 -11.71875 L 2.34375 -14.0625 L 9.375 -14.0625 L 9.375 -11.71875 Z M 2.34375 -11.71875 "/></g></g></g><g fill="#4c0bd1" fill-opacity="1"><g transform="translate(125.600251, 115.516732)"><g><path d="M 9.375 0 L 9.375 -11.71875 L 11.71875 -11.71875 L 11.71875 0 Z M 0 0 L 0 -14.0625 L 9.375 -14.0625 L 9.375 -11.71875 L 2.34375 -11.71875 L 2.34375 0 Z M 0 0 "/></g></g></g><g fill="#4c0bd1" fill-opacity="1"><g transform="translate(139.656892, 115.516732)"><g><path d="M 0 0 L 0 -2.34375 L 9.375 -2.34375 L 9.375 0 Z M 9.375 -2.34375 L 9.375 -7.03125 L 11.71875 -7.03125 L 11.71875 -2.34375 Z M 2.34375 -7.03125 L 2.34375 -9.375 L 9.375 -9.375 L 9.375 -7.03125 Z M 0 -9.375 L 0 -11.71875 L 2.34375 -11.71875 L 2.34375 -9.375 Z M 2.34375 -11.71875 L 2.34375 -14.0625 L 11.71875 -14.0625 L 11.71875 -11.71875 Z M 2.34375 -11.71875 "/></g></g></g><g fill="#4c0bd1" fill-opacity="1"><g transform="translate(153.713532, 115.516732)"><g><path d="M 2.34375 0 L 2.34375 -11.71875 L 0 -11.71875 L 0 -14.0625 L 4.6875 -14.0625 L 4.6875 0 Z M 2.34375 -18.75 L 2.34375 -21.078125 L 4.6875 -21.078125 L 4.6875 -18.75 Z M 2.34375 -18.75 "/></g></g></g><g fill="#4c0bd1" fill-opacity="1"><g transform="translate(160.741853, 115.516732)"><g><path d="M 9.375 -2.34375 L 9.375 -11.71875 L 11.71875 -11.71875 L 11.71875 -2.34375 Z M 0 0 L 0 -21.078125 L 2.34375 -21.078125 L 2.34375 -14.0625 L 9.375 -14.0625 L 9.375 -11.71875 L 2.34375 -11.71875 L 2.34375 -2.34375 L 9.375 -2.34375 L 9.375 0 Z M 0 0 "/></g></g></g><g fill="#4c0bd1" fill-opacity="1"><g transform="translate(174.798493, 115.516732)"><g><path d="M 2.34375 0 L 2.34375 -18.75 L 0 -18.75 L 0 -21.078125 L 4.6875 -21.078125 L 4.6875 0 Z M 2.34375 0 "/></g></g></g><g fill="#4c0bd1" fill-opacity="1"><g transform="translate(181.826813, 115.516732)"><g><path d="M 2.34375 0 L 2.34375 -2.34375 L 11.71875 -2.34375 L 11.71875 0 Z M 0 -2.34375 L 0 -11.71875 L 2.34375 -11.71875 L 2.34375 -9.375 L 9.375 -9.375 L 9.375 -11.71875 L 11.71875 -11.71875 L 11.71875 -7.03125 L 2.34375 -7.03125 L 2.34375 -2.34375 Z M 2.34375 -11.71875 L 2.34375 -14.0625 L 9.375 -14.0625 L 9.375 -11.71875 Z M 2.34375 -11.71875 "/></g></g></g><g fill="#4c0bd1" fill-opacity="1"><g transform="translate(195.883454, 115.516732)"><g/></g></g><g fill="#4c0bd1" fill-opacity="1"><g transform="translate(205.750428, 115.516732)"><g><path d="M 0 0 L 0 -18.75 L 2.34375 -18.75 L 2.34375 -11.71875 L 9.375 -11.71875 L 9.375 -18.75 L 11.71875 -18.75 L 11.71875 0 L 9.375 0 L 9.375 -9.375 L 2.34375 -9.375 L 2.34375 0 Z M 2.34375 -18.75 L 2.34375 -21.078125 L 9.375 -21.078125 L 9.375 -18.75 Z M 2.34375 -18.75 "/></g></g></g><g fill="#4c0bd1" fill-opacity="1"><g transform="translate(219.807068, 115.516732)"><g><path d="M 0 0 L 0 -21.078125 L 2.34375 -21.078125 L 2.34375 0 Z M 0 0 "/></g></g></g><g fill="#4c0bd1" fill-opacity="1"><g transform="translate(224.492615, 115.516732)"><g/></g></g><g fill="#4c0bd1" fill-opacity="1"><g transform="translate(234.359589, 115.516732)"><g><path d="M 2.34375 0 L 2.34375 -11.71875 L 0 -11.71875 L 0 -14.0625 L 4.6875 -14.0625 L 4.6875 0 Z M 2.34375 -18.75 L 2.34375 -21.078125 L 4.6875 -21.078125 L 4.6875 -18.75 Z M 2.34375 -18.75 "/></g></g></g><g fill="#4c0bd1" fill-opacity="1"><g transform="translate(241.387909, 115.516732)"><g><path d="M 0 0 L 0 -2.34375 L 9.375 -2.34375 L 9.375 0 Z M 9.375 -2.34375 L 9.375 -7.03125 L 11.71875 -7.03125 L 11.71875 -2.34375 Z M 2.34375 -7.03125 L 2.34375 -9.375 L 9.375 -9.375 L 9.375 -7.03125 Z M 0 -9.375 L 0 -11.71875 L 2.34375 -11.71875 L 2.34375 -9.375 Z M 2.34375 -11.71875 L 2.34375 -14.0625 L 11.71875 -14.0625 L 11.71875 -11.71875 Z M 2.34375 -11.71875 "/></g></g></g><g fill="#4c0bd1" fill-opacity="1"><g transform="translate(255.44455, 115.516732)"><g/></g></g><g fill="#4c0bd1" fill-opacity="1"><g transform="translate(265.311524, 115.516732)"><g><path d="M 9.375 0 L 9.375 -11.71875 L 11.71875 -11.71875 L 11.71875 0 Z M 0 0 L 0 -14.0625 L 9.375 -14.0625 L 9.375 -11.71875 L 2.34375 -11.71875 L 2.34375 0 Z M 0 0 "/></g></g></g><g fill="#4c0bd1" fill-opacity="1"><g transform="translate(279.368164, 115.516732)"><g><path d="M 2.34375 0 L 2.34375 -2.34375 L 9.375 -2.34375 L 9.375 0 Z M 0 -2.34375 L 0 -11.71875 L 2.34375 -11.71875 L 2.34375 -2.34375 Z M 9.375 -2.34375 L 9.375 -11.71875 L 11.71875 -11.71875 L 11.71875 -2.34375 Z M 2.34375 -11.71875 L 2.34375 -14.0625 L 9.375 -14.0625 L 9.375 -11.71875 Z M 2.34375 -11.71875 "/></g></g></g><g fill="#4c0bd1" fill-opacity="1"><g transform="translate(293.424805, 115.516732)"><g><path d="M 4.6875 0 L 4.6875 -2.34375 L 9.375 -2.34375 L 9.375 0 Z M 2.34375 -2.34375 L 2.34375 -11.71875 L 0 -11.71875 L 0 -14.0625 L 2.34375 -14.0625 L 2.34375 -21.078125 L 4.6875 -21.078125 L 4.6875 -14.0625 L 9.375 -14.0625 L 9.375 -11.71875 L 4.6875 -11.71875 L 4.6875 -2.34375 Z M 2.34375 -2.34375 "/></g></g></g><g fill="#4c0bd1" fill-opacity="1"><g transform="translate(305.138672, 115.516732)"><g/></g></g><g fill="#4c0bd1" fill-opacity="1"><g transform="translate(315.005646, 115.516732)"><g><path d="M 0 4.6875 L 0 2.34375 L 4.6875 2.34375 L 4.6875 4.6875 Z M 4.6875 2.34375 L 4.6875 -11.71875 L 2.34375 -11.71875 L 2.34375 -14.0625 L 7.03125 -14.0625 L 7.03125 2.34375 Z M 4.6875 -18.75 L 4.6875 -21.078125 L 7.03125 -21.078125 L 7.03125 -18.75 Z M 4.6875 -18.75 "/></g></g></g><g fill="#4c0bd1" fill-opacity="1"><g transform="translate(324.37674, 115.516732)"><g><path d="M 0 -2.34375 L 0 -14.0625 L 2.34375 -14.0625 L 2.34375 -2.34375 Z M 2.34375 0 L 2.34375 -2.34375 L 9.375 -2.34375 L 9.375 -14.0625 L 11.71875 -14.0625 L 11.71875 0 Z M 2.34375 0 "/></g></g></g><g fill="#4c0bd1" fill-opacity="1"><g transform="translate(338.43338, 115.516732)"><g><path d="M 0 0 L 0 -2.34375 L 9.375 -2.34375 L 9.375 0 Z M 9.375 -2.34375 L 9.375 -7.03125 L 11.71875 -7.03125 L 11.71875 -2.34375 Z M 2.34375 -7.03125 L 2.34375 -9.375 L 9.375 -9.375 L 9.375 -7.03125 Z M 0 -9.375 L 0 -11.71875 L 2.34375 -11.71875 L 2.34375 -9.375 Z M 2.34375 -11.71875 L 2.34375 -14.0625 L 11.71875 -14.0625 L 11.71875 -11.71875 Z M 2.34375 -11.71875 "/></g></g></g><g fill="#4c0bd1" fill-opacity="1"><g transform="translate(352.490021, 115.516732)"><g><path d="M 4.6875 0 L 4.6875 -2.34375 L 9.375 -2.34375 L 9.375 0 Z M 2.34375 -2.34375 L 2.34375 -11.71875 L 0 -11.71875 L 0 -14.0625 L 2.34375 -14.0625 L 2.34375 -21.078125 L 4.6875 -21.078125 L 4.6875 -14.0625 L 9.375 -14.0625 L 9.375 -11.71875 L 4.6875 -11.71875 L 4.6875 -2.34375 Z M 2.34375 -2.34375 "/></g></g></g><g fill="#4c0bd1" fill-opacity="1"><g transform="translate(364.203888, 115.516732)"><g/></g></g><g fill="#4c0bd1" fill-opacity="1"><g transform="translate(374.070862, 115.516732)"><g><path d="M 2.34375 0 L 2.34375 -2.34375 L 9.375 -2.34375 L 9.375 0 Z M 0 -2.34375 L 0 -7.03125 L 2.34375 -7.03125 L 2.34375 -2.34375 Z M 9.375 -2.34375 L 9.375 -7.03125 L 2.34375 -7.03125 L 2.34375 -9.375 L 9.375 -9.375 L 9.375 -11.71875 L 11.71875 -11.71875 L 11.71875 -2.34375 Z M 2.34375 -11.71875 L 2.34375 -14.0625 L 9.375 -14.0625 L 9.375 -11.71875 Z M 2.34375 -11.71875 "/></g></g></g><g fill="#4c0bd1" fill-opacity="1"><g transform="translate(388.127502, 115.516732)"><g><path d="M 9.375 -2.34375 L 9.375 -11.71875 L 11.71875 -11.71875 L 11.71875 -2.34375 Z M 0 0 L 0 -21.078125 L 2.34375 -21.078125 L 2.34375 -14.0625 L 9.375 -14.0625 L 9.375 -11.71875 L 2.34375 -11.71875 L 2.34375 -2.34375 L 9.375 -2.34375 L 9.375 0 Z M 0 0 "/></g></g></g><g fill="#4c0bd1" fill-opacity="1"><g transform="translate(402.184143, 115.516732)"><g><path d="M 2.34375 0 L 2.34375 -2.34375 L 9.375 -2.34375 L 9.375 0 Z M 0 -2.34375 L 0 -11.71875 L 2.34375 -11.71875 L 2.34375 -2.34375 Z M 9.375 -2.34375 L 9.375 -11.71875 L 11.71875 -11.71875 L 11.71875 -2.34375 Z M 2.34375 -11.71875 L 2.34375 -14.0625 L 9.375 -14.0625 L 9.375 -11.71875 Z M 2.34375 -11.71875 "/></g></g></g><g fill="#4c0bd1" fill-opacity="1"><g transform="translate(416.240783, 115.516732)"><g><path d="M 0 -2.34375 L 0 -14.0625 L 2.34375 -14.0625 L 2.34375 -2.34375 Z M 2.34375 0 L 2.34375 -2.34375 L 9.375 -2.34375 L 9.375 -14.0625 L 11.71875 -14.0625 L 11.71875 0 Z M 2.34375 0 "/></g></g></g><g fill="#4c0bd1" fill-opacity="1"><g transform="translate(430.297424, 115.516732)"><g><path d="M 4.6875 0 L 4.6875 -2.34375 L 9.375 -2.34375 L 9.375 0 Z M 2.34375 -2.34375 L 2.34375 -11.71875 L 0 -11.71875 L 0 -14.0625 L 2.34375 -14.0625 L 2.34375 -21.078125 L 4.6875 -21.078125 L 4.6875 -14.0625 L 9.375 -14.0625 L 9.375 -11.71875 L 4.6875 -11.71875 L 4.6875 -2.34375 Z M 2.34375 -2.34375 "/></g></g></g><g fill="#4c0bd1" fill-opacity="1"><g transform="translate(442.011291, 115.516732)"><g/></g></g><g fill="#4c0bd1" fill-opacity="1"><g transform="translate(451.878265, 115.516732)"><g><path d="M 2.34375 0 L 2.34375 -18.75 L 0 -18.75 L 0 -21.078125 L 4.6875 -21.078125 L 4.6875 0 Z M 2.34375 0 "/></g></g></g><g fill="#4c0bd1" fill-opacity="1"><g transform="translate(458.906585, 115.516732)"><g><path d="M 2.34375 0 L 2.34375 -11.71875 L 0 -11.71875 L 0 -14.0625 L 4.6875 -14.0625 L 4.6875 0 Z M 2.34375 -18.75 L 2.34375 -21.078125 L 4.6875 -21.078125 L 4.6875 -18.75 Z M 2.34375 -18.75 "/></g></g></g><g fill="#4c0bd1" fill-opacity="1"><g transform="translate(465.934905, 115.516732)"><g><path d="M 2.34375 0 L 2.34375 -2.34375 L 9.375 -2.34375 L 9.375 0 Z M 0 -2.34375 L 0 -7.03125 L 2.34375 -7.03125 L 2.34375 -2.34375 Z M 9.375 -2.34375 L 9.375 -7.03125 L 2.34375 -7.03125 L 2.34375 -9.375 L 9.375 -9.375 L 9.375 -11.71875 L 11.71875 -11.71875 L 11.71875 -2.34375 Z M 2.34375 -11.71875 L 2.34375 -14.0625 L 9.375 -14.0625 L 9.375 -11.71875 Z M 2.34375 -11.71875 "/></g></g></g><g fill="#4c0bd1" fill-opacity="1"><g transform="translate(479.991546, 115.516732)"><g><path d="M 9.375 -2.34375 L 9.375 -11.71875 L 11.71875 -11.71875 L 11.71875 -2.34375 Z M 0 0 L 0 -21.078125 L 2.34375 -21.078125 L 2.34375 -14.0625 L 9.375 -14.0625 L 9.375 -11.71875 L 2.34375 -11.71875 L 2.34375 -2.34375 L 9.375 -2.34375 L 9.375 0 Z M 0 0 "/></g></g></g><g fill="#4c0bd1" fill-opacity="1"><g transform="translate(494.048186, 115.516732)"><g><path d="M 2.34375 0 L 2.34375 -11.71875 L 0 -11.71875 L 0 -14.0625 L 4.6875 -14.0625 L 4.6875 0 Z M 2.34375 -18.75 L 2.34375 -21.078125 L 4.6875 -21.078125 L 4.6875 -18.75 Z M 2.34375 -18.75 "/></g></g></g><g fill="#4c0bd1" fill-opacity="1"><g transform="translate(501.076506, 115.516732)"><g><path d="M 2.34375 0 L 2.34375 -18.75 L 0 -18.75 L 0 -21.078125 L 4.6875 -21.078125 L 4.6875 0 Z M 2.34375 0 "/></g></g></g><g fill="#4c0bd1" fill-opacity="1"><g transform="translate(508.104827, 115.516732)"><g><path d="M 2.34375 0 L 2.34375 -11.71875 L 0 -11.71875 L 0 -14.0625 L 4.6875 -14.0625 L 4.6875 0 Z M 2.34375 -18.75 L 2.34375 -21.078125 L 4.6875 -21.078125 L 4.6875 -18.75 Z M 2.34375 -18.75 "/></g></g></g><g fill="#4c0bd1" fill-opacity="1"><g transform="translate(515.133147, 115.516732)"><g><path d="M 4.6875 0 L 4.6875 -2.34375 L 9.375 -2.34375 L 9.375 0 Z M 2.34375 -2.34375 L 2.34375 -11.71875 L 0 -11.71875 L 0 -14.0625 L 2.34375 -14.0625 L 2.34375 -21.078125 L 4.6875 -21.078125 L 4.6875 -14.0625 L 9.375 -14.0625 L 9.375 -11.71875 L 4.6875 -11.71875 L 4.6875 -2.34375 Z M 2.34375 -2.34375 "/></g></g></g><g fill="#4c0bd1" fill-opacity="1"><g transform="translate(526.847014, 115.516732)"><g><path d="M 2.34375 4.6875 L 2.34375 2.34375 L 9.375 2.34375 L 9.375 4.6875 Z M 0 -4.6875 L 0 -14.0625 L 2.34375 -14.0625 L 2.34375 -4.6875 Z M 9.375 2.34375 L 9.375 -2.34375 L 2.34375 -2.34375 L 2.34375 -4.6875 L 9.375 -4.6875 L 9.375 -14.0625 L 11.71875 -14.0625 L 11.71875 2.34375 Z M 9.375 2.34375 "/></g></g></g><g fill="#4c0bd1" fill-opacity="1"><g transform="translate(540.903654, 115.516732)"><g/></g></g><g fill="#4c0bd1" fill-opacity="1"><g transform="translate(550.770628, 115.516732)"><g><path d="M 0 -9.375 L 0 -11.71875 L 14.0625 -11.71875 L 14.0625 -9.375 Z M 0 -9.375 "/></g></g></g><g fill="#4c0bd1" fill-opacity="1"><g transform="translate(567.170042, 115.516732)"><g/></g></g><g fill="#4c0bd1" fill-opacity="1"><g transform="translate(577.037016, 115.516732)"><g><path d="M 2.34375 0 L 2.34375 -11.71875 L 0 -11.71875 L 0 -14.0625 L 4.6875 -14.0625 L 4.6875 0 Z M 2.34375 -18.75 L 2.34375 -21.078125 L 4.6875 -21.078125 L 4.6875 -18.75 Z M 2.34375 -18.75 "/></g></g></g><g fill="#4c0bd1" fill-opacity="1"><g transform="translate(584.065337, 115.516732)"><g><path d="M 4.6875 0 L 4.6875 -2.34375 L 9.375 -2.34375 L 9.375 0 Z M 2.34375 -2.34375 L 2.34375 -11.71875 L 0 -11.71875 L 0 -14.0625 L 2.34375 -14.0625 L 2.34375 -21.078125 L 4.6875 -21.078125 L 4.6875 -14.0625 L 9.375 -14.0625 L 9.375 -11.71875 L 4.6875 -11.71875 L 4.6875 -2.34375 Z M 2.34375 -2.34375 "/></g></g></g><g fill="#4c0bd1" fill-opacity="1"><g transform="translate(595.779204, 115.516732)"><g><path d="M 0 -16.40625 L 0 -18.75 L 2.34375 -18.75 L 2.34375 -16.40625 Z M 2.34375 -18.75 L 2.34375 -21.078125 L 0 -21.078125 L 0 -23.421875 L 4.6875 -23.421875 L 4.6875 -18.75 Z M 2.34375 -18.75 "/></g></g></g><g fill="#4c0bd1" fill-opacity="1"><g transform="translate(602.807524, 115.516732)"><g><path d="M 0 0 L 0 -2.34375 L 9.375 -2.34375 L 9.375 0 Z M 9.375 -2.34375 L 9.375 -7.03125 L 11.71875 -7.03125 L 11.71875 -2.34375 Z M 2.34375 -7.03125 L 2.34375 -9.375 L 9.375 -9.375 L 9.375 -7.03125 Z M 0 -9.375 L 0 -11.71875 L 2.34375 -11.71875 L 2.34375 -9.375 Z M 2.34375 -11.71875 L 2.34375 -14.0625 L 11.71875 -14.0625 L 11.71875 -11.71875 Z M 2.34375 -11.71875 "/></g></g></g><g fill="#4c0bd1" fill-opacity="1"><g transform="translate(616.864164, 115.516732)"><g/></g></g><g fill="#4c0bd1" fill-opacity="1"><g transform="translate(626.731108, 115.516732)"><g><path d="M 2.34375 0 L 2.34375 -2.34375 L 9.375 -2.34375 L 9.375 0 Z M 0 -2.34375 L 0 -7.03125 L 2.34375 -7.03125 L 2.34375 -2.34375 Z M 9.375 -2.34375 L 9.375 -7.03125 L 2.34375 -7.03125 L 2.34375 -9.375 L 9.375 -9.375 L 9.375 -11.71875 L 11.71875 -11.71875 L 11.71875 -2.34375 Z M 2.34375 -11.71875 L 2.34375 -14.0625 L 9.375 -14.0625 L 9.375 -11.71875 Z M 2.34375 -11.71875 "/></g></g></g><g fill="#4c0bd1" fill-opacity="1"><g transform="translate(640.787748, 115.516732)"><g><path d="M 9.375 -2.34375 L 9.375 -11.71875 L 11.71875 -11.71875 L 11.71875 -2.34375 Z M 0 0 L 0 -21.078125 L 2.34375 -21.078125 L 2.34375 -14.0625 L 9.375 -14.0625 L 9.375 -11.71875 L 2.34375 -11.71875 L 2.34375 -2.34375 L 9.375 -2.34375 L 9.375 0 Z M 0 0 "/></g></g></g><g fill="#4c0bd1" fill-opacity="1"><g transform="translate(654.844389, 115.516732)"><g><path d="M 2.34375 0 L 2.34375 -2.34375 L 9.375 -2.34375 L 9.375 0 Z M 0 -2.34375 L 0 -11.71875 L 2.34375 -11.71875 L 2.34375 -2.34375 Z M 9.375 -2.34375 L 9.375 -11.71875 L 11.71875 -11.71875 L 11.71875 -2.34375 Z M 2.34375 -11.71875 L 2.34375 -14.0625 L 9.375 -14.0625 L 9.375 -11.71875 Z M 2.34375 -11.71875 "/></g></g></g><g fill="#4c0bd1" fill-opacity="1"><g transform="translate(668.901029, 115.516732)"><g><path d="M 0 -2.34375 L 0 -14.0625 L 2.34375 -14.0625 L 2.34375 -2.34375 Z M 2.34375 0 L 2.34375 -2.34375 L 9.375 -2.34375 L 9.375 -14.0625 L 11.71875 -14.0625 L 11.71875 0 Z M 2.34375 0 "/></g></g></g><g fill="#4c0bd1" fill-opacity="1"><g transform="translate(682.95767, 115.516732)"><g><path d="M 4.6875 0 L 4.6875 -2.34375 L 9.375 -2.34375 L 9.375 0 Z M 2.34375 -2.34375 L 2.34375 -11.71875 L 0 -11.71875 L 0 -14.0625 L 2.34375 -14.0625 L 2.34375 -21.078125 L 4.6875 -21.078125 L 4.6875 -14.0625 L 9.375 -14.0625 L 9.375 -11.71875 L 4.6875 -11.71875 L 4.6875 -2.34375 Z M 2.34375 -2.34375 "/></g></g></g><g fill="#4c0bd1" fill-opacity="1"><g transform="translate(55.317049, 149.016732)"><g><path d="M 2.34375 0 L 2.34375 -2.34375 L 11.71875 -2.34375 L 11.71875 0 Z M 0 -2.34375 L 0 -11.71875 L 2.34375 -11.71875 L 2.34375 -9.375 L 9.375 -9.375 L 9.375 -11.71875 L 11.71875 -11.71875 L 11.71875 -7.03125 L 2.34375 -7.03125 L 2.34375 -2.34375 Z M 2.34375 -11.71875 L 2.34375 -14.0625 L 9.375 -14.0625 L 9.375 -11.71875 Z M 2.34375 -11.71875 "/></g></g></g><g fill="#4c0bd1" fill-opacity="1"><g transform="translate(69.373689, 149.016732)"><g><path d="M 9.375 0 L 9.375 -11.71875 L 11.71875 -11.71875 L 11.71875 0 Z M 0 0 L 0 -14.0625 L 9.375 -14.0625 L 9.375 -11.71875 L 2.34375 -11.71875 L 2.34375 0 Z M 0 0 "/></g></g></g><g fill="#4c0bd1" fill-opacity="1"><g transform="translate(83.43033, 149.016732)"><g><path d="M 0 0 L 0 -2.34375 L 9.375 -2.34375 L 9.375 0 Z M 9.375 -2.34375 L 9.375 -7.03125 L 11.71875 -7.03125 L 11.71875 -2.34375 Z M 2.34375 -7.03125 L 2.34375 -9.375 L 9.375 -9.375 L 9.375 -7.03125 Z M 0 -9.375 L 0 -11.71875 L 2.34375 -11.71875 L 2.34375 -9.375 Z M 2.34375 -11.71875 L 2.34375 -14.0625 L 11.71875 -14.0625 L 11.71875 -11.71875 Z M 2.34375 -11.71875 "/></g></g></g><g fill="#4c0bd1" fill-opacity="1"><g transform="translate(97.48697, 149.016732)"><g><path d="M 0 -2.34375 L 0 -14.0625 L 2.34375 -14.0625 L 2.34375 -2.34375 Z M 2.34375 0 L 2.34375 -2.34375 L 9.375 -2.34375 L 9.375 -14.0625 L 11.71875 -14.0625 L 11.71875 0 Z M 2.34375 0 "/></g></g></g><g fill="#4c0bd1" fill-opacity="1"><g transform="translate(111.543611, 149.016732)"><g><path d="M 9.375 -9.375 L 9.375 -11.71875 L 11.71875 -11.71875 L 11.71875 -9.375 Z M 0 0 L 0 -14.0625 L 9.375 -14.0625 L 9.375 -11.71875 L 2.34375 -11.71875 L 2.34375 0 Z M 0 0 "/></g></g></g><g fill="#4c0bd1" fill-opacity="1"><g transform="translate(125.600251, 149.016732)"><g><path d="M 2.34375 0 L 2.34375 -11.71875 L 0 -11.71875 L 0 -14.0625 L 4.6875 -14.0625 L 4.6875 0 Z M 2.34375 -18.75 L 2.34375 -21.078125 L 4.6875 -21.078125 L 4.6875 -18.75 Z M 2.34375 -18.75 "/></g></g></g><g fill="#4c0bd1" fill-opacity="1"><g transform="translate(132.628572, 149.016732)"><g><path d="M 9.375 0 L 9.375 -11.71875 L 11.71875 -11.71875 L 11.71875 0 Z M 0 0 L 0 -14.0625 L 9.375 -14.0625 L 9.375 -11.71875 L 2.34375 -11.71875 L 2.34375 0 Z M 0 0 "/></g></g></g><g fill="#4c0bd1" fill-opacity="1"><g transform="translate(146.685212, 149.016732)"><g><path d="M 2.34375 4.6875 L 2.34375 2.34375 L 9.375 2.34375 L 9.375 4.6875 Z M 0 -4.6875 L 0 -11.71875 L 2.34375 -11.71875 L 2.34375 -4.6875 Z M 9.375 2.34375 L 9.375 -2.34375 L 2.34375 -2.34375 L 2.34375 -4.6875 L 9.375 -4.6875 L 9.375 -11.71875 L 11.71875 -11.71875 L 11.71875 2.34375 Z M 2.34375 -11.71875 L 2.34375 -14.0625 L 9.375 -14.0625 L 9.375 -11.71875 Z M 2.34375 -11.71875 "/></g></g></g><g fill="#4c0bd1" fill-opacity="1"><g transform="translate(160.741853, 149.016732)"><g/></g></g><g fill="#4c0bd1" fill-opacity="1"><g transform="translate(177.109314, 149.016732)"><g><path d="M 2.34375 0 L 2.34375 -4.6875 L 4.6875 -4.6875 L 4.6875 0 Z M 7.03125 0 L 7.03125 -4.6875 L 9.375 -4.6875 L 9.375 0 Z M 4.6875 -4.6875 L 4.6875 -11.71875 L 7.03125 -11.71875 L 7.03125 -4.6875 Z M 0 -4.6875 L 0 -14.0625 L 2.34375 -14.0625 L 2.34375 -4.6875 Z M 9.375 -4.6875 L 9.375 -14.0625 L 11.71875 -14.0625 L 11.71875 -4.6875 Z M 9.375 -4.6875 "/></g></g></g><g fill="#4c0bd1" fill-opacity="1"><g transform="translate(191.165955, 149.016732)"><g><path d="M 9.375 0 L 9.375 -11.71875 L 11.71875 -11.71875 L 11.71875 0 Z M 0 0 L 0 -21.078125 L 2.34375 -21.078125 L 2.34375 -14.0625 L 9.375 -14.0625 L 9.375 -11.71875 L 2.34375 -11.71875 L 2.34375 0 Z M 0 0 "/></g></g></g><g fill="#4c0bd1" fill-opacity="1"><g transform="translate(205.222595, 149.016732)"><g><path d="M 2.34375 0 L 2.34375 -2.34375 L 9.375 -2.34375 L 9.375 0 Z M 0 -2.34375 L 0 -7.03125 L 2.34375 -7.03125 L 2.34375 -2.34375 Z M 9.375 -2.34375 L 9.375 -7.03125 L 2.34375 -7.03125 L 2.34375 -9.375 L 9.375 -9.375 L 9.375 -11.71875 L 11.71875 -11.71875 L 11.71875 -2.34375 Z M 2.34375 -11.71875 L 2.34375 -14.0625 L 9.375 -14.0625 L 9.375 -11.71875 Z M 2.34375 -11.71875 "/></g></g></g><g fill="#4c0bd1" fill-opacity="1"><g transform="translate(219.279236, 149.016732)"><g><path d="M 4.6875 0 L 4.6875 -2.34375 L 9.375 -2.34375 L 9.375 0 Z M 2.34375 -2.34375 L 2.34375 -11.71875 L 0 -11.71875 L 0 -14.0625 L 2.34375 -14.0625 L 2.34375 -21.078125 L 4.6875 -21.078125 L 4.6875 -14.0625 L 9.375 -14.0625 L 9.375 -11.71875 L 4.6875 -11.71875 L 4.6875 -2.34375 Z M 2.34375 -2.34375 "/></g></g></g><g fill="#4c0bd1" fill-opacity="1"><g transform="translate(230.993103, 149.016732)"><g/></g></g><g fill="#4c0bd1" fill-opacity="1"><g transform="translate(247.360565, 149.016732)"><g><path d="M 2.34375 4.6875 L 2.34375 2.34375 L 9.375 2.34375 L 9.375 4.6875 Z M 0 -4.6875 L 0 -14.0625 L 2.34375 -14.0625 L 2.34375 -4.6875 Z M 9.375 2.34375 L 9.375 -2.34375 L 2.34375 -2.34375 L 2.34375 -4.6875 L 9.375 -4.6875 L 9.375 -14.0625 L 11.71875 -14.0625 L 11.71875 2.34375 Z M 9.375 2.34375 "/></g></g></g><g fill="#4c0bd1" fill-opacity="1"><g transform="translate(261.417205, 149.016732)"><g><path d="M 2.34375 0 L 2.34375 -2.34375 L 9.375 -2.34375 L 9.375 0 Z M 0 -2.34375 L 0 -11.71875 L 2.34375 -11.71875 L 2.34375 -2.34375 Z M 9.375 -2.34375 L 9.375 -11.71875 L 11.71875 -11.71875 L 11.71875 -2.34375 Z M 2.34375 -11.71875 L 2.34375 -14.0625 L 9.375 -14.0625 L 9.375 -11.71875 Z M 2.34375 -11.71875 "/></g></g></g><g fill="#4c0bd1" fill-opacity="1"><g transform="translate(275.473846, 149.016732)"><g><path d="M 0 -2.34375 L 0 -14.0625 L 2.34375 -14.0625 L 2.34375 -2.34375 Z M 2.34375 0 L 2.34375 -2.34375 L 9.375 -2.34375 L 9.375 -14.0625 L 11.71875 -14.0625 L 11.71875 0 Z M 2.34375 0 "/></g></g></g><g fill="#4c0bd1" fill-opacity="1"><g transform="translate(289.530486, 149.016732)"><g/></g></g><g fill="#4c0bd1" fill-opacity="1"><g transform="translate(305.897948, 149.016732)"><g><path d="M 2.34375 0 L 2.34375 -2.34375 L 9.375 -2.34375 L 9.375 0 Z M 0 -2.34375 L 0 -7.03125 L 2.34375 -7.03125 L 2.34375 -2.34375 Z M 9.375 -2.34375 L 9.375 -7.03125 L 2.34375 -7.03125 L 2.34375 -9.375 L 9.375 -9.375 L 9.375 -11.71875 L 11.71875 -11.71875 L 11.71875 -2.34375 Z M 2.34375 -11.71875 L 2.34375 -14.0625 L 9.375 -14.0625 L 9.375 -11.71875 Z M 2.34375 -11.71875 "/></g></g></g><g fill="#4c0bd1" fill-opacity="1"><g transform="translate(319.954589, 149.016732)"><g><path d="M 9.375 -9.375 L 9.375 -11.71875 L 11.71875 -11.71875 L 11.71875 -9.375 Z M 0 0 L 0 -14.0625 L 9.375 -14.0625 L 9.375 -11.71875 L 2.34375 -11.71875 L 2.34375 0 Z M 0 0 "/></g></g></g><g fill="#4c0bd1" fill-opacity="1"><g transform="translate(334.011229, 149.016732)"><g><path d="M 2.34375 0 L 2.34375 -2.34375 L 11.71875 -2.34375 L 11.71875 0 Z M 0 -2.34375 L 0 -11.71875 L 2.34375 -11.71875 L 2.34375 -9.375 L 9.375 -9.375 L 9.375 -11.71875 L 11.71875 -11.71875 L 11.71875 -7.03125 L 2.34375 -7.03125 L 2.34375 -2.34375 Z M 2.34375 -11.71875 L 2.34375 -14.0625 L 9.375 -14.0625 L 9.375 -11.71875 Z M 2.34375 -11.71875 "/></g></g></g><g fill="#4c0bd1" fill-opacity="1"><g transform="translate(348.06787, 149.016732)"><g/></g></g><g fill="#4c0bd1" fill-opacity="1"><g transform="translate(364.435332, 149.016732)"><g><path d="M 9.375 -2.34375 L 9.375 -11.71875 L 11.71875 -11.71875 L 11.71875 -2.34375 Z M 0 0 L 0 -21.078125 L 2.34375 -21.078125 L 2.34375 -14.0625 L 9.375 -14.0625 L 9.375 -11.71875 L 2.34375 -11.71875 L 2.34375 -2.34375 L 9.375 -2.34375 L 9.375 0 Z M 0 0 "/></g></g></g><g fill="#4c0bd1" fill-opacity="1"><g transform="translate(378.491972, 149.016732)"><g><path d="M 0 -2.34375 L 0 -14.0625 L 2.34375 -14.0625 L 2.34375 -2.34375 Z M 2.34375 0 L 2.34375 -2.34375 L 9.375 -2.34375 L 9.375 -14.0625 L 11.71875 -14.0625 L 11.71875 0 Z M 2.34375 0 "/></g></g></g><g fill="#4c0bd1" fill-opacity="1"><g transform="translate(392.548613, 149.016732)"><g><path d="M 2.34375 0 L 2.34375 -11.71875 L 0 -11.71875 L 0 -14.0625 L 4.6875 -14.0625 L 4.6875 0 Z M 2.34375 -18.75 L 2.34375 -21.078125 L 4.6875 -21.078125 L 4.6875 -18.75 Z M 2.34375 -18.75 "/></g></g></g><g fill="#4c0bd1" fill-opacity="1"><g transform="translate(399.576933, 149.016732)"><g><path d="M 2.34375 0 L 2.34375 -18.75 L 0 -18.75 L 0 -21.078125 L 4.6875 -21.078125 L 4.6875 0 Z M 2.34375 0 "/></g></g></g><g fill="#4c0bd1" fill-opacity="1"><g transform="translate(406.605253, 149.016732)"><g><path d="M 0 -2.34375 L 0 -11.71875 L 2.34375 -11.71875 L 2.34375 -2.34375 Z M 2.34375 0 L 2.34375 -2.34375 L 9.375 -2.34375 L 9.375 -11.71875 L 2.34375 -11.71875 L 2.34375 -14.0625 L 9.375 -14.0625 L 9.375 -21.078125 L 11.71875 -21.078125 L 11.71875 0 Z M 2.34375 0 "/></g></g></g><g fill="#4c0bd1" fill-opacity="1"><g transform="translate(420.661894, 149.016732)"><g><path d="M 2.34375 0 L 2.34375 -11.71875 L 0 -11.71875 L 0 -14.0625 L 4.6875 -14.0625 L 4.6875 0 Z M 2.34375 -18.75 L 2.34375 -21.078125 L 4.6875 -21.078125 L 4.6875 -18.75 Z M 2.34375 -18.75 "/></g></g></g><g fill="#4c0bd1" fill-opacity="1"><g transform="translate(427.690214, 149.016732)"><g><path d="M 9.375 0 L 9.375 -11.71875 L 11.71875 -11.71875 L 11.71875 0 Z M 0 0 L 0 -14.0625 L 9.375 -14.0625 L 9.375 -11.71875 L 2.34375 -11.71875 L 2.34375 0 Z M 0 0 "/></g></g></g><g fill="#4c0bd1" fill-opacity="1"><g transform="translate(441.746854, 149.016732)"><g><path d="M 2.34375 4.6875 L 2.34375 2.34375 L 9.375 2.34375 L 9.375 4.6875 Z M 0 -4.6875 L 0 -11.71875 L 2.34375 -11.71875 L 2.34375 -4.6875 Z M 9.375 2.34375 L 9.375 -2.34375 L 2.34375 -2.34375 L 2.34375 -4.6875 L 9.375 -4.6875 L 9.375 -11.71875 L 11.71875 -11.71875 L 11.71875 2.34375 Z M 2.34375 -11.71875 L 2.34375 -14.0625 L 9.375 -14.0625 L 9.375 -11.71875 Z M 2.34375 -11.71875 "/></g></g></g><g fill="#4c0bd1" fill-opacity="1"><g transform="translate(455.803495, 149.016732)"><g/></g></g><g fill="#4c0bd1" fill-opacity="1"><g transform="translate(472.170957, 149.016732)"><g><path d="M 2.34375 0 L 2.34375 -11.71875 L 0 -11.71875 L 0 -14.0625 L 4.6875 -14.0625 L 4.6875 0 Z M 2.34375 -18.75 L 2.34375 -21.078125 L 4.6875 -21.078125 L 4.6875 -18.75 Z M 2.34375 -18.75 "/></g></g></g><g fill="#4c0bd1" fill-opacity="1"><g transform="translate(479.199277, 149.016732)"><g><path d="M 0 0 L 0 -2.34375 L 9.375 -2.34375 L 9.375 0 Z M 9.375 -2.34375 L 9.375 -7.03125 L 11.71875 -7.03125 L 11.71875 -2.34375 Z M 2.34375 -7.03125 L 2.34375 -9.375 L 9.375 -9.375 L 9.375 -7.03125 Z M 0 -9.375 L 0 -11.71875 L 2.34375 -11.71875 L 2.34375 -9.375 Z M 2.34375 -11.71875 L 2.34375 -14.0625 L 11.71875 -14.0625 L 11.71875 -11.71875 Z M 2.34375 -11.71875 "/></g></g></g><g fill="#4c0bd1" fill-opacity="1"><g transform="translate(493.255918, 149.016732)"><g/></g></g><g fill="#4c0bd1" fill-opacity="1"><g transform="translate(509.62338, 149.016732)"><g><path d="M 2.34375 0 L 2.34375 -2.34375 L 11.71875 -2.34375 L 11.71875 0 Z M 0 -2.34375 L 0 -11.71875 L 2.34375 -11.71875 L 2.34375 -9.375 L 9.375 -9.375 L 9.375 -11.71875 L 11.71875 -11.71875 L 11.71875 -7.03125 L 2.34375 -7.03125 L 2.34375 -2.34375 Z M 2.34375 -11.71875 L 2.34375 -14.0625 L 9.375 -14.0625 L 9.375 -11.71875 Z M 2.34375 -11.71875 "/></g></g></g><g fill="#4c0bd1" fill-opacity="1"><g transform="translate(523.68002, 149.016732)"><g><path d="M 9.375 0 L 9.375 -11.71875 L 11.71875 -11.71875 L 11.71875 0 Z M 0 0 L 0 -14.0625 L 9.375 -14.0625 L 9.375 -11.71875 L 2.34375 -11.71875 L 2.34375 0 Z M 0 0 "/></g></g></g><g fill="#4c0bd1" fill-opacity="1"><g transform="translate(537.736661, 149.016732)"><g><path d="M 2.34375 0 L 2.34375 -2.34375 L 9.375 -2.34375 L 9.375 0 Z M 0 -2.34375 L 0 -7.03125 L 2.34375 -7.03125 L 2.34375 -2.34375 Z M 9.375 -2.34375 L 9.375 -7.03125 L 2.34375 -7.03125 L 2.34375 -9.375 L 9.375 -9.375 L 9.375 -11.71875 L 11.71875 -11.71875 L 11.71875 -2.34375 Z M 2.34375 -11.71875 L 2.34375 -14.0625 L 9.375 -14.0625 L 9.375 -11.71875 Z M 2.34375 -11.71875 "/></g></g></g><g fill="#4c0bd1" fill-opacity="1"><g transform="translate(551.793301, 149.016732)"><g><path d="M 9.375 -2.34375 L 9.375 -11.71875 L 11.71875 -11.71875 L 11.71875 -2.34375 Z M 0 0 L 0 -21.078125 L 2.34375 -21.078125 L 2.34375 -14.0625 L 9.375 -14.0625 L 9.375 -11.71875 L 2.34375 -11.71875 L 2.34375 -2.34375 L 9.375 -2.34375 L 9.375 0 Z M 0 0 "/></g></g></g><g fill="#4c0bd1" fill-opacity="1"><g transform="translate(565.849942, 149.016732)"><g><path d="M 2.34375 0 L 2.34375 -18.75 L 0 -18.75 L 0 -21.078125 L 4.6875 -21.078125 L 4.6875 0 Z M 2.34375 0 "/></g></g></g><g fill="#4c0bd1" fill-opacity="1"><g transform="translate(572.878262, 149.016732)"><g><path d="M 2.34375 0 L 2.34375 -11.71875 L 0 -11.71875 L 0 -14.0625 L 4.6875 -14.0625 L 4.6875 0 Z M 2.34375 -18.75 L 2.34375 -21.078125 L 4.6875 -21.078125 L 4.6875 -18.75 Z M 2.34375 -18.75 "/></g></g></g><g fill="#4c0bd1" fill-opacity="1"><g transform="translate(579.906582, 149.016732)"><g><path d="M 9.375 0 L 9.375 -11.71875 L 11.71875 -11.71875 L 11.71875 0 Z M 0 0 L 0 -14.0625 L 9.375 -14.0625 L 9.375 -11.71875 L 2.34375 -11.71875 L 2.34375 0 Z M 0 0 "/></g></g></g><g fill="#4c0bd1" fill-opacity="1"><g transform="translate(593.963223, 149.016732)"><g><path d="M 2.34375 4.6875 L 2.34375 2.34375 L 9.375 2.34375 L 9.375 4.6875 Z M 0 -4.6875 L 0 -11.71875 L 2.34375 -11.71875 L 2.34375 -4.6875 Z M 9.375 2.34375 L 9.375 -2.34375 L 2.34375 -2.34375 L 2.34375 -4.6875 L 9.375 -4.6875 L 9.375 -11.71875 L 11.71875 -11.71875 L 11.71875 2.34375 Z M 2.34375 -11.71875 L 2.34375 -14.0625 L 9.375 -14.0625 L 9.375 -11.71875 Z M 2.34375 -11.71875 "/></g></g></g><g fill="#4c0bd1" fill-opacity="1"><g transform="translate(608.019863, 149.016732)"><g/></g></g><g fill="#4c0bd1" fill-opacity="1"><g transform="translate(624.387356, 149.016732)"><g><path d="M 9.375 0 L 9.375 -11.71875 L 11.71875 -11.71875 L 11.71875 0 Z M 0 0 L 0 -21.078125 L 2.34375 -21.078125 L 2.34375 -14.0625 L 9.375 -14.0625 L 9.375 -11.71875 L 2.34375 -11.71875 L 2.34375 0 Z M 0 0 "/></g></g></g><g fill="#4c0bd1" fill-opacity="1"><g transform="translate(638.443996, 149.016732)"><g><path d="M 0 -2.34375 L 0 -14.0625 L 2.34375 -14.0625 L 2.34375 -2.34375 Z M 2.34375 0 L 2.34375 -2.34375 L 9.375 -2.34375 L 9.375 -14.0625 L 11.71875 -14.0625 L 11.71875 0 Z M 2.34375 0 "/></g></g></g><g fill="#4c0bd1" fill-opacity="1"><g transform="translate(652.500636, 149.016732)"><g><path d="M 4.6875 -2.34375 L 4.6875 -11.71875 L 7.03125 -11.71875 L 7.03125 -2.34375 Z M 9.375 0 L 9.375 -11.71875 L 11.71875 -11.71875 L 11.71875 0 Z M 0 0 L 0 -14.0625 L 4.6875 -14.0625 L 4.6875 -11.71875 L 2.34375 -11.71875 L 2.34375 0 Z M 7.03125 -11.71875 L 7.03125 -14.0625 L 9.375 -14.0625 L 9.375 -11.71875 Z M 7.03125 -11.71875 "/></g></g></g><g fill="#4c0bd1" fill-opacity="1"><g transform="translate(666.557277, 149.016732)"><g><path d="M 2.34375 0 L 2.34375 -2.34375 L 9.375 -2.34375 L 9.375 0 Z M 0 -2.34375 L 0 -7.03125 L 2.34375 -7.03125 L 2.34375 -2.34375 Z M 9.375 -2.34375 L 9.375 -7.03125 L 2.34375 -7.03125 L 2.34375 -9.375 L 9.375 -9.375 L 9.375 -11.71875 L 11.71875 -11.71875 L 11.71875 -2.34375 Z M 2.34375 -11.71875 L 2.34375 -14.0625 L 9.375 -14.0625 L 9.375 -11.71875 Z M 2.34375 -11.71875 "/></g></g></g><g fill="#4c0bd1" fill-opacity="1"><g transform="translate(680.613917, 149.016732)"><g><path d="M 9.375 0 L 9.375 -11.71875 L 11.71875 -11.71875 L 11.71875 0 Z M 0 0 L 0 -14.0625 L 9.375 -14.0625 L 9.375 -11.71875 L 2.34375 -11.71875 L 2.34375 0 Z M 0 0 "/></g></g></g><g fill="#4c0bd1" fill-opacity="1"><g transform="translate(55.317049, 182.516732)"><g><path d="M 2.34375 0 L 2.34375 -11.71875 L 0 -11.71875 L 0 -14.0625 L 2.34375 -14.0625 L 2.34375 -18.75 L 4.6875 -18.75 L 4.6875 -14.0625 L 9.375 -14.0625 L 9.375 -11.71875 L 4.6875 -11.71875 L 4.6875 0 Z M 4.6875 -18.75 L 4.6875 -21.078125 L 9.375 -21.078125 L 9.375 -18.75 Z M 4.6875 -18.75 "/></g></g></g><g fill="#4c0bd1" fill-opacity="1"><g transform="translate(67.030916, 182.516732)"><g><path d="M 2.34375 0 L 2.34375 -18.75 L 0 -18.75 L 0 -21.078125 L 4.6875 -21.078125 L 4.6875 0 Z M 2.34375 0 "/></g></g></g><g fill="#4c0bd1" fill-opacity="1"><g transform="translate(74.059236, 182.516732)"><g><path d="M 2.34375 0 L 2.34375 -2.34375 L 9.375 -2.34375 L 9.375 0 Z M 0 -2.34375 L 0 -11.71875 L 2.34375 -11.71875 L 2.34375 -2.34375 Z M 9.375 -2.34375 L 9.375 -11.71875 L 11.71875 -11.71875 L 11.71875 -2.34375 Z M 2.34375 -11.71875 L 2.34375 -14.0625 L 9.375 -14.0625 L 9.375 -11.71875 Z M 2.34375 -11.71875 "/></g></g></g><g fill="#4c0bd1" fill-opacity="1"><g transform="translate(88.115877, 182.516732)"><g><path d="M 0 -2.34375 L 0 -14.0625 L 2.34375 -14.0625 L 2.34375 -2.34375 Z M 2.34375 0 L 2.34375 -2.34375 L 9.375 -2.34375 L 9.375 -14.0625 L 11.71875 -14.0625 L 11.71875 0 Z M 2.34375 0 "/></g></g></g><g fill="#4c0bd1" fill-opacity="1"><g transform="translate(102.172517, 182.516732)"><g><path d="M 9.375 -9.375 L 9.375 -11.71875 L 11.71875 -11.71875 L 11.71875 -9.375 Z M 0 0 L 0 -14.0625 L 9.375 -14.0625 L 9.375 -11.71875 L 2.34375 -11.71875 L 2.34375 0 Z M 0 0 "/></g></g></g><g fill="#4c0bd1" fill-opacity="1"><g transform="translate(116.229158, 182.516732)"><g><path d="M 2.34375 0 L 2.34375 -11.71875 L 0 -11.71875 L 0 -14.0625 L 4.6875 -14.0625 L 4.6875 0 Z M 2.34375 -18.75 L 2.34375 -21.078125 L 4.6875 -21.078125 L 4.6875 -18.75 Z M 2.34375 -18.75 "/></g></g></g><g fill="#4c0bd1" fill-opacity="1"><g transform="translate(123.257478, 182.516732)"><g><path d="M 0 0 L 0 -2.34375 L 9.375 -2.34375 L 9.375 0 Z M 9.375 -2.34375 L 9.375 -7.03125 L 11.71875 -7.03125 L 11.71875 -2.34375 Z M 2.34375 -7.03125 L 2.34375 -9.375 L 9.375 -9.375 L 9.375 -7.03125 Z M 0 -9.375 L 0 -11.71875 L 2.34375 -11.71875 L 2.34375 -9.375 Z M 2.34375 -11.71875 L 2.34375 -14.0625 L 11.71875 -14.0625 L 11.71875 -11.71875 Z M 2.34375 -11.71875 "/></g></g></g><g fill="#4c0bd1" fill-opacity="1"><g transform="translate(137.314118, 182.516732)"><g><path d="M 9.375 0 L 9.375 -11.71875 L 11.71875 -11.71875 L 11.71875 0 Z M 0 0 L 0 -21.078125 L 2.34375 -21.078125 L 2.34375 -14.0625 L 9.375 -14.0625 L 9.375 -11.71875 L 2.34375 -11.71875 L 2.34375 0 Z M 0 0 "/></g></g></g><g fill="#4c0bd1" fill-opacity="1"><g transform="translate(151.370759, 182.516732)"><g><path d="M 2.34375 0 L 2.34375 -11.71875 L 0 -11.71875 L 0 -14.0625 L 4.6875 -14.0625 L 4.6875 0 Z M 2.34375 -18.75 L 2.34375 -21.078125 L 4.6875 -21.078125 L 4.6875 -18.75 Z M 2.34375 -18.75 "/></g></g></g><g fill="#4c0bd1" fill-opacity="1"><g transform="translate(158.399079, 182.516732)"><g><path d="M 9.375 0 L 9.375 -11.71875 L 11.71875 -11.71875 L 11.71875 0 Z M 0 0 L 0 -14.0625 L 9.375 -14.0625 L 9.375 -11.71875 L 2.34375 -11.71875 L 2.34375 0 Z M 0 0 "/></g></g></g><g fill="#4c0bd1" fill-opacity="1"><g transform="translate(172.45572, 182.516732)"><g><path d="M 2.34375 4.6875 L 2.34375 2.34375 L 9.375 2.34375 L 9.375 4.6875 Z M 0 -4.6875 L 0 -11.71875 L 2.34375 -11.71875 L 2.34375 -4.6875 Z M 9.375 2.34375 L 9.375 -2.34375 L 2.34375 -2.34375 L 2.34375 -4.6875 L 9.375 -4.6875 L 9.375 -11.71875 L 11.71875 -11.71875 L 11.71875 2.34375 Z M 2.34375 -11.71875 L 2.34375 -14.0625 L 9.375 -14.0625 L 9.375 -11.71875 Z M 2.34375 -11.71875 "/></g></g></g><g fill="#4c0bd1" fill-opacity="1"><g transform="translate(186.51236, 182.516732)"><g><path d="M 0 0 L 0 -2.34375 L 2.34375 -2.34375 L 2.34375 0 Z M 0 0 "/></g></g></g></svg>