<svg xmlns="http://www.w3.org/2000/svg" xmlns:xlink="http://www.w3.org/1999/xlink" width="127" zoomAndPan="magnify" viewBox="0 0 95.25 134.999996" height="180" preserveAspectRatio="xMidYMid meet" version="1.0"><defs><g/><clipPath id="09677510c9"><path d="M 7 37.253906 L 87.355469 37.253906 L 87.355469 125.0625 L 7 125.0625 Z M 7 37.253906 " clip-rule="nonzero"/></clipPath></defs><g clip-path="url(#09677510c9)"><path fill="#2196f3" d="M 86.851562 37.855469 C 86.488281 37.453125 86.039062 37.253906 85.496094 37.253906 L 8.847656 37.253906 C 8.589844 37.253906 8.34375 37.304688 8.105469 37.410156 C 7.871094 37.515625 7.664062 37.660156 7.488281 37.855469 C 7.316406 38.046875 7.1875 38.265625 7.109375 38.511719 C 7.027344 38.757812 7 39.007812 7.023438 39.265625 L 14.324219 112.441406 C 14.359375 112.800781 14.488281 113.121094 14.714844 113.402344 C 14.9375 113.683594 15.222656 113.882812 15.5625 113.996094 L 48.410156 124.972656 C 48.601562 125.035156 48.796875 125.066406 49 125.0625 C 49.21875 125.0625 49.433594 125.023438 49.640625 124.945312 L 78.839844 113.96875 C 79.167969 113.847656 79.4375 113.652344 79.648438 113.375 C 79.863281 113.101562 79.988281 112.789062 80.023438 112.441406 L 87.320312 39.265625 C 87.375 38.726562 87.21875 38.253906 86.851562 37.855469 Z M 86.851562 37.855469 " fill-opacity="1" fill-rule="nonzero"/></g><path fill="#fafafa" d="M 49 106.769531 C 48.800781 106.769531 48.609375 106.738281 48.421875 106.679688 L 31.996094 101.191406 C 31.6875 101.085938 31.425781 100.914062 31.207031 100.667969 C 30.992188 100.421875 30.851562 100.140625 30.785156 99.820312 L 28.960938 90.671875 C 28.910156 90.433594 28.910156 90.195312 28.957031 89.957031 C 29.003906 89.71875 29.09375 89.5 29.226562 89.296875 C 29.359375 89.09375 29.527344 88.925781 29.726562 88.789062 C 29.925781 88.652344 30.148438 88.5625 30.382812 88.511719 C 30.621094 88.464844 30.859375 88.464844 31.097656 88.507812 C 31.332031 88.554688 31.554688 88.644531 31.753906 88.78125 C 31.957031 88.914062 32.125 89.082031 32.261719 89.28125 C 32.398438 89.484375 32.488281 89.703125 32.539062 89.941406 L 34.152344 98.042969 L 48.960938 103 L 61.976562 98.109375 L 68.730469 59.207031 L 27.097656 59.207031 C 26.855469 59.207031 26.625 59.160156 26.402344 59.066406 C 26.175781 58.976562 25.980469 58.84375 25.808594 58.671875 C 25.636719 58.5 25.503906 58.300781 25.414062 58.078125 C 25.320312 57.855469 25.273438 57.621094 25.273438 57.378906 C 25.273438 57.136719 25.320312 56.902344 25.414062 56.679688 C 25.503906 56.453125 25.636719 56.257812 25.808594 56.085938 C 25.980469 55.914062 26.175781 55.78125 26.402344 55.6875 C 26.625 55.59375 26.855469 55.546875 27.097656 55.546875 L 70.898438 55.546875 C 71.167969 55.546875 71.425781 55.605469 71.667969 55.71875 C 71.914062 55.832031 72.121094 55.992188 72.296875 56.199219 C 72.46875 56.40625 72.589844 56.640625 72.660156 56.902344 C 72.730469 57.164062 72.742188 57.425781 72.695312 57.691406 L 65.398438 99.765625 C 65.339844 100.085938 65.210938 100.371094 65.003906 100.621094 C 64.796875 100.871094 64.542969 101.050781 64.242188 101.164062 L 49.640625 106.652344 C 49.433594 106.730469 49.21875 106.769531 49 106.769531 Z M 49 106.769531 " fill-opacity="1" fill-rule="nonzero"/><path fill="#fafafa" d="M 67.246094 77.5 L 28.925781 77.5 C 28.683594 77.5 28.449219 77.453125 28.226562 77.363281 C 28.003906 77.269531 27.804688 77.136719 27.632812 76.964844 C 27.460938 76.792969 27.332031 76.59375 27.238281 76.371094 C 27.144531 76.148438 27.097656 75.914062 27.097656 75.671875 C 27.097656 75.429688 27.144531 75.195312 27.238281 74.972656 C 27.332031 74.746094 27.460938 74.550781 27.632812 74.378906 C 27.804688 74.207031 28.003906 74.074219 28.226562 73.980469 C 28.449219 73.886719 28.683594 73.84375 28.925781 73.84375 L 67.246094 73.84375 C 67.488281 73.84375 67.722656 73.886719 67.945312 73.980469 C 68.167969 74.074219 68.367188 74.207031 68.539062 74.378906 C 68.710938 74.550781 68.839844 74.746094 68.933594 74.972656 C 69.027344 75.195312 69.074219 75.429688 69.074219 75.671875 C 69.074219 75.914062 69.027344 76.148438 68.933594 76.371094 C 68.839844 76.59375 68.710938 76.792969 68.539062 76.964844 C 68.367188 77.136719 68.167969 77.269531 67.945312 77.363281 C 67.722656 77.453125 67.488281 77.5 67.246094 77.5 Z M 67.246094 77.5 " fill-opacity="1" fill-rule="nonzero"/><g fill="#000000" fill-opacity="1"><g transform="translate(19.682669, 28.753369)"><g><path d="M 3.53125 -15.375 C 5.050781 -17.132812 7.207031 -18.015625 10 -18.015625 C 14.1875 -18.015625 16.800781 -16.144531 17.84375 -12.40625 L 13.265625 -11.59375 C 12.878906 -13.445312 11.8125 -14.375 10.0625 -14.375 C 8.882812 -14.375 7.945312 -13.96875 7.25 -13.15625 C 6.5625 -12.34375 6.21875 -11.019531 6.21875 -9.1875 C 6.21875 -7.394531 6.507812 -5.984375 7.09375 -4.953125 C 7.6875 -3.921875 8.695312 -3.40625 10.125 -3.40625 C 11.0625 -3.40625 11.804688 -3.679688 12.359375 -4.234375 C 12.910156 -4.785156 13.289062 -5.628906 13.5 -6.765625 L 18.09375 -5.984375 C 17.132812 -1.722656 14.398438 0.40625 9.890625 0.40625 C 7.210938 0.40625 5.148438 -0.410156 3.703125 -2.046875 C 2.953125 -2.878906 2.382812 -3.894531 2 -5.09375 C 1.613281 -6.300781 1.421875 -7.539062 1.421875 -8.8125 C 1.421875 -10.125 1.601562 -11.34375 1.96875 -12.46875 C 2.332031 -13.601562 2.851562 -14.570312 3.53125 -15.375 Z M 3.53125 -15.375 "/></g></g></g><g fill="#000000" fill-opacity="1"><g transform="translate(37.16058, 28.753369)"><g><path d="M 8.875 -18.015625 C 11.070312 -18.015625 12.800781 -17.648438 14.0625 -16.921875 C 15.320312 -16.203125 16.1875 -15.015625 16.65625 -13.359375 L 12.234375 -12.546875 C 12.035156 -13.273438 11.671875 -13.8125 11.140625 -14.15625 C 10.609375 -14.507812 9.863281 -14.6875 8.90625 -14.6875 C 6.800781 -14.6875 5.75 -14.195312 5.75 -13.21875 C 5.75 -12.75 6.09375 -12.367188 6.78125 -12.078125 C 7.46875 -11.796875 8.472656 -11.507812 9.796875 -11.21875 C 11.398438 -10.851562 12.710938 -10.484375 13.734375 -10.109375 C 14.753906 -9.734375 15.59375 -9.175781 16.25 -8.4375 C 16.90625 -7.707031 17.234375 -6.734375 17.234375 -5.515625 C 17.234375 -4.515625 16.957031 -3.566406 16.40625 -2.671875 C 15.851562 -1.773438 14.972656 -1.035156 13.765625 -0.453125 C 12.566406 0.117188 11.050781 0.40625 9.21875 0.40625 C 7.15625 0.40625 5.332031 -0.0351562 3.75 -0.921875 C 2.175781 -1.804688 1.1875 -3.175781 0.78125 -5.03125 L 5.4375 -5.75 C 5.875 -3.863281 7.132812 -2.921875 9.21875 -2.921875 C 10.03125 -2.921875 10.789062 -3.0625 11.5 -3.34375 C 12.21875 -3.632812 12.578125 -4.140625 12.578125 -4.859375 C 12.578125 -5.335938 12.410156 -5.671875 12.078125 -5.859375 C 11.753906 -6.054688 11.226562 -6.234375 10.5 -6.390625 C 8.351562 -6.867188 6.675781 -7.3125 5.46875 -7.71875 C 4.269531 -8.125 3.296875 -8.710938 2.546875 -9.484375 C 1.796875 -10.253906 1.421875 -11.296875 1.421875 -12.609375 C 1.421875 -14.453125 2.125 -15.8125 3.53125 -16.6875 C 4.9375 -17.570312 6.71875 -18.015625 8.875 -18.015625 Z M 8.875 -18.015625 "/></g></g></g><g fill="#000000" fill-opacity="1"><g transform="translate(54.63849, 28.753369)"><g><path d="M 8.875 -18.015625 C 11.070312 -18.015625 12.800781 -17.648438 14.0625 -16.921875 C 15.320312 -16.203125 16.1875 -15.015625 16.65625 -13.359375 L 12.234375 -12.546875 C 12.035156 -13.273438 11.671875 -13.8125 11.140625 -14.15625 C 10.609375 -14.507812 9.863281 -14.6875 8.90625 -14.6875 C 6.800781 -14.6875 5.75 -14.195312 5.75 -13.21875 C 5.75 -12.75 6.09375 -12.367188 6.78125 -12.078125 C 7.46875 -11.796875 8.472656 -11.507812 9.796875 -11.21875 C 11.398438 -10.851562 12.710938 -10.484375 13.734375 -10.109375 C 14.753906 -9.734375 15.59375 -9.175781 16.25 -8.4375 C 16.90625 -7.707031 17.234375 -6.734375 17.234375 -5.515625 C 17.234375 -4.515625 16.957031 -3.566406 16.40625 -2.671875 C 15.851562 -1.773438 14.972656 -1.035156 13.765625 -0.453125 C 12.566406 0.117188 11.050781 0.40625 9.21875 0.40625 C 7.15625 0.40625 5.332031 -0.0351562 3.75 -0.921875 C 2.175781 -1.804688 1.1875 -3.175781 0.78125 -5.03125 L 5.4375 -5.75 C 5.875 -3.863281 7.132812 -2.921875 9.21875 -2.921875 C 10.03125 -2.921875 10.789062 -3.0625 11.5 -3.34375 C 12.21875 -3.632812 12.578125 -4.140625 12.578125 -4.859375 C 12.578125 -5.335938 12.410156 -5.671875 12.078125 -5.859375 C 11.753906 -6.054688 11.226562 -6.234375 10.5 -6.390625 C 8.351562 -6.867188 6.675781 -7.3125 5.46875 -7.71875 C 4.269531 -8.125 3.296875 -8.710938 2.546875 -9.484375 C 1.796875 -10.253906 1.421875 -11.296875 1.421875 -12.609375 C 1.421875 -14.453125 2.125 -15.8125 3.53125 -16.6875 C 4.9375 -17.570312 6.71875 -18.015625 8.875 -18.015625 Z M 8.875 -18.015625 "/></g></g></g></svg>