<svg xmlns="http://www.w3.org/2000/svg" xmlns:xlink="http://www.w3.org/1999/xlink" width="127" zoomAndPan="magnify" viewBox="0 0 95.25 134.999996" height="180" preserveAspectRatio="xMidYMid meet" version="1.0"><defs><g/><clipPath id="abd5f7353a"><path d="M 13.273438 36 L 85.453125 36 L 85.453125 118.257812 L 13.273438 118.257812 Z M 13.273438 36 " clip-rule="nonzero"/></clipPath></defs><g clip-path="url(#abd5f7353a)"><path fill="#e44d26" d="M 85.4375 36.710938 L 78.867188 110.421875 L 49.332031 118.621094 L 19.878906 110.433594 L 13.3125 36.710938 L 85.441406 36.710938 Z M 85.4375 36.710938 " fill-opacity="1" fill-rule="nonzero"/></g><path fill="#f16529" d="M 49.378906 112.355469 L 73.246094 105.730469 L 78.859375 42.742188 L 49.378906 42.738281 Z M 49.378906 112.355469 " fill-opacity="1" fill-rule="nonzero"/><path fill="#ebebeb" d="M 36.605469 60.824219 L 49.378906 60.824219 L 49.378906 51.78125 L 26.734375 51.78125 L 26.953125 54.207031 L 29.171875 79.121094 L 49.378906 79.121094 L 49.378906 70.082031 L 37.429688 70.082031 Z M 36.605469 60.824219 " fill-opacity="1" fill-rule="nonzero"/><path fill="#ebebeb" d="M 38.636719 83.644531 L 29.574219 83.644531 L 30.839844 97.839844 L 49.335938 102.984375 L 49.378906 102.972656 L 49.378906 93.5625 L 49.335938 93.574219 L 39.28125 90.855469 Z M 38.636719 83.644531 " fill-opacity="1" fill-rule="nonzero"/><path fill="#ffffff" d="M 49.347656 79.121094 L 60.464844 79.121094 L 59.417969 90.847656 L 49.347656 93.574219 L 49.347656 102.976562 L 67.855469 97.839844 L 67.992188 96.3125 L 70.113281 72.507812 L 70.335938 70.082031 L 49.347656 70.082031 Z M 49.347656 79.121094 " fill-opacity="1" fill-rule="nonzero"/><path fill="#ffffff" d="M 49.347656 60.800781 L 49.347656 60.824219 L 71.15625 60.824219 L 71.335938 58.789062 L 71.75 54.207031 L 71.964844 51.78125 L 49.347656 51.78125 Z M 49.347656 60.800781 " fill-opacity="1" fill-rule="nonzero"/><g fill="#000000" fill-opacity="1"><g transform="translate(20.840638, 27.170454)"><g><path d="M 4.671875 -9.34375 L 10.765625 -9.34375 L 10.765625 -15.421875 L 13.875 -15.421875 L 13.875 0 L 10.765625 0 L 10.765625 -6.75 L 4.671875 -6.75 L 4.671875 0 L 1.578125 0 L 1.578125 -15.421875 L 4.671875 -15.421875 Z M 4.671875 -9.34375 "/></g></g></g><g fill="#000000" fill-opacity="1"><g transform="translate(35.42643, 27.170454)"><g><path d="M 12.6875 -12.828125 L 8.125 -12.828125 L 8.125 0 L 5.015625 0 L 5.015625 -12.828125 L 0.453125 -12.828125 L 0.453125 -15.421875 L 12.6875 -15.421875 Z M 12.6875 -12.828125 "/></g></g></g><g fill="#000000" fill-opacity="1"><g transform="translate(47.62071, 27.170454)"><g><path d="M 9 -4.9375 L 11.75 -15.421875 L 16.421875 -15.421875 L 16.421875 0 L 13.53125 0 L 13.53125 -12.15625 L 10.5 0 L 7.5 0 L 4.421875 -12.125 L 4.421875 0 L 1.53125 0 L 1.53125 -15.421875 L 6.1875 -15.421875 Z M 9 -4.9375 "/></g></g></g><g fill="#000000" fill-opacity="1"><g transform="translate(64.598016, 27.170454)"><g><path d="M 4.765625 -2.609375 L 12.515625 -2.609375 L 12.515625 0 L 1.65625 0 L 1.65625 -15.421875 L 4.765625 -15.421875 Z M 4.765625 -2.609375 "/></g></g></g></svg>