<svg xmlns="http://www.w3.org/2000/svg" xmlns:xlink="http://www.w3.org/1999/xlink" width="127" zoomAndPan="magnify" viewBox="0 0 95.25 134.999996" height="180" preserveAspectRatio="xMidYMid meet" version="1.0"><defs><clipPath id="400389dc9d"><path d="M 7.164062 18.113281 L 87 18.113281 L 87 105 L 7.164062 105 Z M 7.164062 18.113281 " clip-rule="nonzero"/></clipPath></defs><g clip-path="url(#400389dc9d)"><path fill="#000000" d="M 43.539062 18.492188 C 21.78125 18.492188 7.164062 26.523438 7.164062 34.023438 C 7.164062 41.527344 21.78125 49.5625 43.539062 49.5625 C 65.296875 49.5625 79.910156 41.527344 79.910156 34.023438 C 79.910156 26.523438 65.296875 18.492188 43.539062 18.492188 Z M 7.164062 41.984375 L 7.164062 51.546875 C 7.164062 58.925781 21.78125 66.824219 43.539062 66.824219 C 65.296875 66.824219 79.910156 58.925781 79.910156 51.546875 L 79.910156 41.984375 C 73.550781 48.464844 59.839844 53.015625 43.539062 53.015625 C 27.234375 53.015625 13.527344 48.460938 7.164062 41.984375 Z M 7.164062 59.765625 L 7.164062 68.886719 C 7.164062 74.851562 16.71875 81.097656 31.871094 83.277344 L 32.042969 82.359375 L 44.164062 82.359375 C 46.285156 82.359375 48.171875 82.898438 49.730469 83.847656 C 49.917969 83.832031 50.105469 83.824219 50.289062 83.808594 L 52.042969 75.457031 L 63.660156 75.457031 L 62.320312 81.851562 C 73.277344 79.003906 79.910156 73.847656 79.910156 68.886719 L 79.910156 59.765625 C 73.550781 66.242188 59.839844 70.277344 43.539062 70.277344 C 27.234375 70.277344 13.527344 66.242188 7.164062 59.765625 Z M 7.164062 77.105469 L 7.164062 86.070312 C 7.164062 91.617188 15.429688 97.457031 28.777344 100.015625 L 31.234375 86.726562 C 20.5 85.261719 11.84375 81.867188 7.164062 77.105469 Z M 79.910156 77.105469 C 77.9375 79.113281 75.253906 80.878906 72.011719 82.359375 L 79.910156 82.359375 Z M 54.855469 78.90625 L 50.511719 99.621094 L 55.058594 99.621094 L 57.253906 89.265625 L 60.886719 89.265625 C 62.046875 89.265625 62.8125 89.457031 63.167969 89.839844 C 63.523438 90.222656 63.601562 90.949219 63.394531 92 L 61.738281 99.621094 L 66.355469 99.621094 L 68.152344 91.375 C 68.535156 89.398438 68.246094 87.945312 67.285156 87.066406 C 66.304688 86.171875 64.578125 85.8125 62.007812 85.8125 L 57.953125 85.8125 L 59.398438 78.90625 Z M 34.921875 85.8125 L 31.414062 104.800781 L 35.996094 104.800781 L 36.910156 99.621094 L 39.757812 99.621094 C 45.726562 99.621094 48.976562 98.246094 50.191406 93.140625 C 51.234375 88.753906 48.566406 85.8125 44.164062 85.8125 Z M 71.296875 85.8125 L 67.785156 104.800781 L 72.371094 104.800781 L 73.28125 99.621094 L 76.132812 99.621094 C 82.101562 99.621094 85.351562 98.246094 86.5625 93.140625 C 87.609375 88.753906 84.9375 85.8125 80.535156 85.8125 Z M 38.863281 89.265625 L 42.429688 89.265625 C 45.390625 89.265625 46.011719 90.59375 45.855469 92.074219 C 45.460938 95.882812 43.078125 96.167969 40.515625 96.167969 L 37.554688 96.167969 Z M 75.234375 89.265625 L 78.804688 89.265625 C 81.761719 89.265625 82.382812 90.59375 82.230469 92.074219 C 81.832031 95.882812 79.453125 96.167969 76.890625 96.167969 L 73.929688 96.167969 Z M 75.234375 89.265625 " fill-opacity="1" fill-rule="nonzero"/></g></svg>