<svg xmlns="http://www.w3.org/2000/svg" xmlns:xlink="http://www.w3.org/1999/xlink" width="127" zoomAndPan="magnify" viewBox="0 0 95.25 134.999996" height="180" preserveAspectRatio="xMidYMid meet" version="1.0"><defs><g/><clipPath id="d8d3085a17"><path d="M 6.769531 43 L 87.878906 43 L 87.878906 116 L 6.769531 116 Z M 6.769531 43 " clip-rule="nonzero"/></clipPath></defs><path fill="#98ccfd" d="M 54.421875 79.511719 C 54.421875 83.417969 51.25 86.574219 47.324219 86.574219 C 43.402344 86.574219 40.226562 83.417969 40.226562 79.511719 C 40.226562 75.609375 43.402344 72.453125 47.324219 72.453125 C 51.25 72.453125 54.421875 75.609375 54.421875 79.511719 Z M 54.421875 79.511719 " fill-opacity="1" fill-rule="nonzero"/><path fill="#4788c7" d="M 47.324219 87.582031 C 42.851562 87.582031 39.214844 83.960938 39.214844 79.511719 C 39.214844 75.0625 42.851562 71.445312 47.324219 71.445312 C 51.796875 71.445312 55.4375 75.0625 55.4375 79.511719 C 55.4375 83.960938 51.796875 87.582031 47.324219 87.582031 Z M 47.324219 73.460938 C 43.972656 73.460938 41.242188 76.175781 41.242188 79.511719 C 41.242188 82.847656 43.972656 85.5625 47.324219 85.5625 C 50.679688 85.5625 53.410156 82.847656 53.410156 79.511719 C 53.410156 76.175781 50.679688 73.460938 47.324219 73.460938 Z M 47.324219 73.460938 " fill-opacity="1" fill-rule="nonzero"/><path fill="#98ccfd" d="M 86.867188 79.511719 C 86.867188 73.875 80.960938 68.960938 71.675781 65.824219 C 72.84375 60.4375 73.003906 55.628906 72.011719 51.945312 C 71.183594 48.875 69.617188 46.667969 67.355469 45.382812 C 65.996094 44.613281 64.441406 44.21875 62.734375 44.21875 C 58.257812 44.21875 52.8125 47.046875 47.328125 51.867188 C 41.84375 47.042969 36.394531 44.214844 31.914062 44.214844 C 30.207031 44.214844 28.652344 44.609375 27.292969 45.378906 C 25.03125 46.664062 23.460938 48.875 22.636719 51.949219 C 21.644531 55.628906 21.804688 60.4375 22.972656 65.824219 C 13.6875 68.960938 7.785156 73.875 7.785156 79.511719 C 7.785156 85.152344 13.6875 90.066406 22.972656 93.199219 C 21.804688 98.585938 21.644531 103.394531 22.640625 107.078125 C 23.464844 110.152344 25.035156 112.359375 27.296875 113.644531 C 28.65625 114.417969 30.210938 114.808594 31.917969 114.808594 C 31.921875 114.808594 31.917969 114.808594 31.921875 114.808594 C 36.398438 114.808594 41.84375 111.984375 47.328125 107.160156 C 52.808594 111.976562 58.257812 114.800781 62.730469 114.804688 C 62.734375 114.804688 62.734375 114.804688 62.734375 114.804688 C 64.441406 114.804688 65.996094 114.414062 67.359375 113.640625 C 69.617188 112.359375 71.183594 110.148438 72.007812 107.078125 C 73 103.394531 72.839844 98.585938 71.675781 93.203125 C 80.960938 90.066406 86.867188 85.152344 86.867188 79.511719 Z M 65.347656 48.890625 C 66.632812 49.621094 67.558594 51 68.09375 52.988281 C 68.90625 56.007812 68.746094 60.066406 67.773438 64.667969 C 64.535156 63.828125 60.996094 63.1875 57.210938 62.777344 C 54.960938 59.746094 52.613281 57.019531 50.238281 54.625 C 55.097656 50.417969 59.5625 48.257812 62.734375 48.257812 C 63.726562 48.257812 64.605469 48.46875 65.347656 48.890625 Z M 59.054688 86.144531 C 57.730469 88.394531 56.367188 90.484375 54.992188 92.433594 C 52.546875 92.644531 49.988281 92.761719 47.324219 92.761719 C 44.65625 92.761719 42.09375 92.644531 39.648438 92.433594 C 38.273438 90.484375 36.914062 88.394531 35.589844 86.144531 C 34.296875 83.945312 33.128906 81.722656 32.078125 79.511719 C 33.128906 77.304688 34.296875 75.082031 35.589844 72.882812 C 36.914062 70.628906 38.277344 68.542969 39.652344 66.589844 C 42.097656 66.378906 44.660156 66.265625 47.324219 66.265625 C 49.992188 66.265625 52.550781 66.378906 54.992188 66.589844 C 56.367188 68.542969 57.730469 70.628906 59.054688 72.882812 C 60.34375 75.078125 61.515625 77.304688 62.566406 79.511719 C 61.515625 81.722656 60.34375 83.945312 59.054688 86.144531 Z M 64.679688 84.339844 C 65.511719 86.425781 66.210938 88.476562 66.789062 90.460938 C 64.78125 90.980469 62.617188 91.421875 60.3125 91.78125 C 61.078125 90.605469 61.828125 89.414062 62.554688 88.175781 C 63.304688 86.902344 64.003906 85.621094 64.679688 84.339844 Z M 47.324219 101.664062 C 45.847656 100.175781 44.351562 98.527344 42.855469 96.683594 C 44.320312 96.753906 45.808594 96.792969 47.324219 96.792969 C 48.839844 96.792969 50.328125 96.753906 51.792969 96.683594 C 50.296875 98.527344 48.804688 100.179688 47.324219 101.664062 Z M 34.332031 91.78125 C 32.03125 91.421875 29.867188 90.980469 27.859375 90.460938 C 28.4375 88.476562 29.136719 86.429688 29.96875 84.339844 C 30.640625 85.621094 31.339844 86.902344 32.089844 88.179688 C 32.8125 89.414062 33.570312 90.605469 34.332031 91.78125 Z M 29.96875 74.6875 C 29.136719 72.597656 28.4375 70.550781 27.859375 68.566406 C 29.867188 68.046875 32.03125 67.601562 34.335938 67.246094 C 33.570312 68.421875 32.816406 69.613281 32.089844 70.847656 C 31.339844 72.125 30.640625 73.40625 29.96875 74.6875 Z M 47.328125 57.363281 C 48.804688 58.847656 50.300781 60.5 51.792969 62.34375 C 50.328125 62.273438 48.839844 62.230469 47.324219 62.230469 C 45.808594 62.230469 44.324219 62.273438 42.859375 62.34375 C 44.351562 60.5 45.847656 58.847656 47.328125 57.363281 Z M 62.554688 70.847656 C 61.828125 69.613281 61.078125 68.417969 60.3125 67.242188 C 62.617188 67.601562 64.78125 68.042969 66.789062 68.566406 C 66.210938 70.550781 65.511719 72.597656 64.679688 74.6875 C 64.003906 73.40625 63.304688 72.125 62.554688 70.847656 Z M 26.554688 52.992188 C 27.09375 50.996094 28.015625 49.617188 29.300781 48.882812 C 30.042969 48.464844 30.921875 48.25 31.914062 48.25 C 35.089844 48.25 39.554688 50.414062 44.417969 54.625 C 42.039062 57.019531 39.6875 59.746094 37.4375 62.777344 C 33.652344 63.191406 30.109375 63.832031 26.875 64.671875 C 25.902344 60.066406 25.742188 56.007812 26.554688 52.992188 Z M 11.839844 79.511719 C 11.839844 76.027344 16.363281 72.320312 23.972656 69.71875 C 24.886719 72.875 26.109375 76.167969 27.613281 79.511719 C 26.109375 82.859375 24.886719 86.152344 23.972656 89.308594 C 16.363281 86.707031 11.839844 83 11.839844 79.511719 Z M 31.917969 110.777344 C 30.921875 110.777344 30.042969 110.5625 29.304688 110.144531 C 28.015625 109.414062 27.089844 108.03125 26.554688 106.035156 C 25.742188 103.019531 25.902344 98.957031 26.875 94.359375 C 30.109375 95.199219 33.652344 95.839844 37.433594 96.25 C 39.6875 99.28125 42.039062 102.011719 44.417969 104.40625 C 39.554688 108.617188 35.089844 110.777344 31.917969 110.777344 Z M 68.089844 106.035156 C 67.554688 108.027344 66.632812 109.40625 65.347656 110.136719 C 64.605469 110.554688 63.726562 110.769531 62.730469 110.769531 C 59.558594 110.769531 55.09375 108.609375 50.234375 104.402344 C 52.609375 102.007812 54.960938 99.28125 57.210938 96.25 C 60.992188 95.839844 64.53125 95.199219 67.769531 94.359375 C 68.746094 98.957031 68.90625 103.019531 68.089844 106.035156 Z M 70.675781 89.3125 C 69.757812 86.15625 68.535156 82.859375 67.03125 79.511719 C 68.535156 76.167969 69.757812 72.871094 70.675781 69.714844 C 78.285156 72.320312 82.8125 76.027344 82.8125 79.511719 C 82.8125 83 78.285156 86.707031 70.675781 89.3125 Z M 70.675781 89.3125 " fill-opacity="1" fill-rule="nonzero"/><g clip-path="url(#d8d3085a17)"><path fill="#4788c7" d="M 31.917969 115.820312 C 30.03125 115.820312 28.308594 115.382812 26.792969 114.523438 C 24.285156 113.097656 22.554688 110.679688 21.65625 107.335938 C 20.699219 103.785156 20.753906 99.140625 21.800781 93.859375 C 12.230469 90.445312 6.769531 85.246094 6.769531 79.511719 C 6.769531 73.78125 12.230469 68.582031 21.800781 65.164062 C 20.75 59.886719 20.699219 55.242188 21.65625 51.6875 C 22.554688 48.347656 24.285156 45.929688 26.789062 44.503906 C 31.898438 41.605469 39.316406 43.710938 47.328125 50.53125 C 55.335938 43.71875 62.746094 41.613281 67.859375 44.507812 C 70.363281 45.929688 72.089844 48.34375 72.992188 51.683594 C 73.949219 55.242188 73.894531 59.886719 72.847656 65.164062 C 82.414062 68.578125 87.878906 73.78125 87.878906 79.511719 C 87.878906 85.246094 82.414062 90.449219 72.847656 93.863281 C 73.898438 99.140625 73.945312 103.785156 72.988281 107.339844 C 72.089844 110.679688 70.363281 113.097656 67.859375 114.519531 C 62.746094 117.417969 55.328125 115.304688 47.324219 108.496094 C 41.695312 113.292969 36.382812 115.820312 31.917969 115.820312 Z M 31.914062 45.226562 C 30.386719 45.226562 29 45.570312 27.796875 46.253906 C 25.777344 47.40625 24.371094 49.40625 23.617188 52.207031 C 22.691406 55.652344 22.8125 60.285156 23.964844 65.613281 L 24.15625 66.492188 L 23.300781 66.78125 C 14.082031 69.890625 8.796875 74.535156 8.796875 79.511719 C 8.796875 84.492188 14.082031 89.132812 23.296875 92.246094 L 24.152344 92.535156 L 23.964844 93.417969 C 22.808594 98.742188 22.6875 103.378906 23.617188 106.820312 C 24.367188 109.621094 25.773438 111.625 27.796875 112.773438 C 29.003906 113.453125 30.390625 113.800781 31.917969 113.800781 C 35.996094 113.800781 41.230469 111.175781 46.652344 106.40625 L 47.324219 105.816406 L 47.996094 106.40625 C 53.417969 111.167969 58.652344 113.796875 62.730469 113.796875 C 64.261719 113.796875 65.648438 113.449219 66.855469 112.765625 C 68.871094 111.621094 70.277344 109.617188 71.03125 106.820312 C 71.957031 103.375 71.835938 98.742188 70.683594 93.417969 L 70.492188 92.535156 L 71.347656 92.246094 C 80.566406 89.136719 85.851562 84.492188 85.851562 79.511719 C 85.851562 74.53125 80.566406 69.890625 71.347656 66.78125 L 70.492188 66.488281 L 70.683594 65.609375 C 71.839844 60.285156 71.960938 55.648438 71.03125 52.207031 C 70.277344 49.402344 68.871094 47.40625 66.851562 46.257812 C 65.644531 45.574219 64.261719 45.230469 62.734375 45.230469 C 58.65625 45.230469 53.425781 47.855469 48 52.625 L 47.328125 53.214844 L 46.65625 52.625 C 41.230469 47.851562 35.996094 45.226562 31.914062 45.226562 Z M 31.917969 111.785156 C 30.746094 111.785156 29.699219 111.527344 28.804688 111.019531 C 27.269531 110.148438 26.183594 108.558594 25.574219 106.296875 C 24.746094 103.214844 24.851562 99.015625 25.882812 94.152344 L 26.101562 93.117188 L 27.128906 93.382812 C 30.355469 94.21875 33.855469 94.847656 37.542969 95.246094 L 37.980469 95.296875 L 38.246094 95.648438 C 40.421875 98.574219 42.742188 101.28125 45.136719 103.695312 L 45.894531 104.460938 L 45.082031 105.164062 C 40.15625 109.433594 35.480469 111.785156 31.917969 111.785156 Z M 27.660156 95.59375 C 26.710938 99.710938 26.683594 103.210938 27.535156 105.773438 C 28.097656 107.46875 28.761719 108.675781 29.808594 109.269531 C 32.429688 110.757812 37.539062 108.789062 42.933594 104.335938 C 40.839844 102.15625 38.804688 99.761719 36.882812 97.203125 C 33.652344 96.835938 30.554688 96.292969 27.660156 95.59375 Z M 62.734375 111.777344 C 59.171875 111.777344 54.496094 109.429688 49.570312 105.164062 L 48.757812 104.460938 L 49.515625 103.695312 C 51.921875 101.269531 54.234375 98.566406 56.398438 95.652344 L 56.664062 95.296875 L 57.105469 95.246094 C 60.792969 94.847656 64.300781 94.21875 67.523438 93.382812 L 68.550781 93.117188 L 68.769531 94.152344 C 69.796875 99.019531 69.90625 103.21875 69.074219 106.296875 C 68.464844 108.558594 67.378906 110.144531 65.851562 111.011719 C 64.953125 111.523438 63.90625 111.777344 62.734375 111.777344 Z M 51.71875 104.335938 C 57.109375 108.785156 62.203125 110.757812 64.847656 109.261719 C 65.886719 108.671875 66.546875 107.46875 67.113281 105.777344 C 67.96875 103.210938 67.933594 99.710938 66.988281 95.597656 C 64.09375 96.296875 60.996094 96.835938 57.761719 97.203125 C 55.851562 99.753906 53.820312 102.144531 51.71875 104.335938 Z M 47.324219 103.101562 L 46.605469 102.375 C 45.039062 100.796875 43.511719 99.097656 42.066406 97.316406 L 40.648438 95.570312 L 42.902344 95.675781 C 45.804688 95.8125 48.847656 95.8125 51.746094 95.675781 L 54 95.570312 L 52.582031 97.316406 C 51.144531 99.089844 49.617188 100.789062 48.046875 102.371094 Z M 45.089844 97.773438 C 45.820312 98.617188 46.566406 99.433594 47.324219 100.21875 C 48.082031 99.429688 48.828125 98.613281 49.558594 97.773438 C 48.078125 97.8125 46.570312 97.8125 45.089844 97.773438 Z M 47.324219 93.769531 C 44.722656 93.769531 42.113281 93.660156 39.566406 93.4375 L 39.09375 93.398438 L 38.824219 93.011719 C 37.359375 90.941406 35.980469 88.800781 34.714844 86.652344 C 33.460938 84.511719 32.265625 82.257812 31.160156 79.945312 L 30.953125 79.511719 L 31.160156 79.082031 C 32.265625 76.769531 33.460938 74.511719 34.714844 72.375 C 35.992188 70.199219 37.339844 68.121094 38.828125 66.011719 L 39.097656 65.628906 L 39.570312 65.589844 C 44.65625 65.148438 49.996094 65.148438 55.078125 65.589844 L 55.550781 65.628906 L 55.820312 66.015625 C 57.3125 68.132812 58.660156 70.214844 59.929688 72.375 C 61.195312 74.535156 62.390625 76.789062 63.484375 79.082031 L 63.6875 79.511719 L 63.484375 79.945312 C 62.390625 82.238281 61.195312 84.496094 59.929688 86.652344 C 58.660156 88.816406 57.3125 90.898438 55.820312 93.015625 L 55.550781 93.398438 L 55.078125 93.441406 C 52.535156 93.660156 49.929688 93.769531 47.324219 93.769531 Z M 40.210938 91.46875 C 44.890625 91.847656 49.761719 91.847656 54.433594 91.46875 C 55.789062 89.53125 57.015625 87.617188 58.179688 85.636719 C 59.335938 83.664062 60.433594 81.605469 61.445312 79.511719 C 60.433594 77.417969 59.335938 75.363281 58.179688 73.390625 C 57.015625 71.410156 55.789062 69.496094 54.433594 67.558594 C 49.757812 67.179688 44.882812 67.179688 40.214844 67.558594 C 38.867188 69.488281 37.636719 71.402344 36.464844 73.394531 C 35.320312 75.347656 34.21875 77.402344 33.199219 79.511719 C 34.21875 81.621094 35.316406 83.679688 36.464844 85.636719 C 37.621094 87.601562 38.882812 89.5625 40.210938 91.46875 Z M 58.230469 93.125 L 59.460938 91.234375 C 60.214844 90.070312 60.960938 88.890625 61.679688 87.671875 C 62.421875 86.40625 63.113281 85.136719 63.777344 83.871094 L 64.804688 81.917969 L 65.621094 83.96875 C 66.441406 86.03125 67.164062 88.125 67.761719 90.183594 L 68.054688 91.179688 L 67.046875 91.441406 C 64.984375 91.972656 62.773438 92.425781 60.46875 92.78125 Z M 64.519531 86.773438 C 64.164062 87.410156 63.804688 88.050781 63.429688 88.6875 C 63.089844 89.269531 62.742188 89.839844 62.390625 90.40625 C 63.460938 90.203125 64.503906 89.984375 65.511719 89.742188 C 65.207031 88.753906 64.875 87.761719 64.519531 86.773438 Z M 36.417969 93.125 L 34.175781 92.777344 C 31.875 92.421875 29.660156 91.96875 27.605469 91.4375 L 26.597656 91.175781 L 26.886719 90.183594 C 27.484375 88.132812 28.203125 86.042969 29.027344 83.972656 L 29.84375 81.917969 L 30.871094 83.875 C 31.53125 85.144531 32.222656 86.410156 32.964844 87.671875 C 33.683594 88.890625 34.429688 90.074219 35.1875 91.234375 Z M 29.132812 89.738281 C 30.140625 89.976562 31.183594 90.199219 32.25 90.402344 C 31.898438 89.839844 31.554688 89.265625 31.210938 88.6875 C 30.835938 88.050781 30.476562 87.414062 30.125 86.773438 C 29.769531 87.765625 29.4375 88.753906 29.132812 89.738281 Z M 69.996094 90.609375 L 69.699219 89.59375 C 68.796875 86.46875 67.585938 83.21875 66.105469 79.925781 L 65.921875 79.511719 L 66.105469 79.101562 C 67.585938 75.8125 68.796875 72.5625 69.703125 69.4375 L 69.996094 68.417969 L 71.007812 68.761719 C 79.035156 71.507812 83.824219 75.527344 83.824219 79.511719 C 83.824219 83.5 79.035156 87.519531 71.003906 90.265625 Z M 68.140625 79.511719 C 69.417969 82.390625 70.492188 85.242188 71.34375 88.003906 C 77.726562 85.644531 81.796875 82.359375 81.796875 79.511719 C 81.796875 76.664062 77.726562 73.382812 71.34375 71.023438 C 70.492188 73.789062 69.414062 76.636719 68.140625 79.511719 Z M 24.648438 90.609375 L 23.640625 90.265625 C 15.617188 87.515625 10.824219 83.5 10.824219 79.511719 C 10.824219 75.527344 15.617188 71.511719 23.640625 68.761719 L 24.648438 68.417969 L 24.945312 69.4375 C 25.855469 72.570312 27.0625 75.824219 28.539062 79.101562 L 28.726562 79.511719 L 28.539062 79.925781 C 27.0625 83.203125 25.855469 86.457031 24.945312 89.589844 Z M 23.304688 71.023438 C 16.921875 73.386719 12.851562 76.667969 12.851562 79.511719 C 12.851562 82.359375 16.921875 85.640625 23.304688 88.003906 C 24.160156 85.230469 25.234375 82.382812 26.507812 79.511719 C 25.234375 76.644531 24.160156 73.796875 23.304688 71.023438 Z M 29.839844 77.109375 L 29.027344 75.058594 C 28.203125 72.988281 27.480469 70.898438 26.886719 68.847656 L 26.59375 67.851562 L 27.601562 67.59375 C 29.664062 67.0625 31.875 66.609375 34.175781 66.25 L 36.417969 65.90625 L 35.183594 67.796875 C 34.425781 68.957031 33.683594 70.140625 32.960938 71.359375 C 32.21875 72.621094 31.527344 73.890625 30.867188 75.15625 Z M 29.132812 69.289062 C 29.4375 70.273438 29.769531 71.261719 30.125 72.253906 C 30.476562 71.613281 30.839844 70.976562 31.210938 70.339844 C 31.554688 69.761719 31.898438 69.191406 32.25 68.625 C 31.183594 68.824219 30.140625 69.050781 29.132812 69.289062 Z M 64.804688 77.109375 L 63.777344 75.15625 C 63.113281 73.886719 62.421875 72.621094 61.679688 71.359375 C 60.960938 70.136719 60.214844 68.957031 59.460938 67.792969 L 58.230469 65.902344 L 60.46875 66.25 C 62.773438 66.605469 64.988281 67.058594 67.042969 67.59375 L 68.050781 67.851562 L 67.761719 68.851562 C 67.160156 70.90625 66.441406 73 65.617188 75.0625 Z M 62.390625 68.625 C 62.742188 69.1875 63.089844 69.757812 63.433594 70.339844 C 63.808594 70.976562 64.167969 71.613281 64.519531 72.253906 C 64.878906 71.265625 65.210938 70.273438 65.515625 69.289062 C 64.507812 69.046875 63.460938 68.824219 62.390625 68.625 Z M 68.546875 65.914062 L 67.519531 65.648438 C 64.300781 64.808594 60.796875 64.183594 57.101562 63.78125 L 56.660156 63.734375 L 56.394531 63.378906 C 54.226562 60.453125 51.910156 57.75 49.511719 55.335938 L 48.753906 54.570312 L 49.566406 53.867188 C 56.117188 48.195312 62.226562 45.960938 65.84375 48.015625 C 67.375 48.882812 68.460938 50.472656 69.070312 52.730469 C 69.898438 55.808594 69.789062 60.011719 68.761719 64.878906 Z M 57.761719 61.824219 C 61 62.191406 64.09375 62.730469 66.988281 63.433594 C 68.035156 59.585938 68.183594 56.179688 67.113281 53.25 C 66.5 51.578125 65.890625 50.355469 64.84375 49.761719 C 62.214844 48.269531 57.117188 50.238281 51.71875 54.691406 C 53.8125 56.871094 55.84375 59.265625 57.761719 61.824219 Z M 26.101562 65.914062 L 25.882812 64.878906 C 24.851562 60.011719 24.746094 55.8125 25.574219 52.730469 C 26.183594 50.46875 27.269531 48.878906 28.800781 48.011719 C 32.429688 45.953125 38.535156 48.195312 45.085938 53.867188 L 45.898438 54.574219 L 45.140625 55.339844 C 42.738281 57.753906 40.421875 60.460938 38.253906 63.378906 L 37.988281 63.734375 L 37.546875 63.78125 C 33.859375 64.183594 30.355469 64.8125 27.128906 65.648438 Z M 31.914062 49.257812 C 31.101562 49.257812 30.390625 49.425781 29.804688 49.761719 C 28.761719 50.351562 28.234375 51.609375 27.535156 53.253906 C 26.4375 55.824219 26.625 59.324219 27.660156 63.433594 C 30.558594 62.730469 33.652344 62.191406 36.886719 61.824219 C 38.804688 59.265625 40.835938 56.875 42.933594 54.695312 C 38.738281 51.230469 34.757812 49.257812 31.914062 49.257812 Z M 40.652344 63.457031 L 42.070312 61.710938 C 43.507812 59.933594 45.035156 58.234375 46.605469 56.652344 L 47.324219 55.925781 L 48.046875 56.652344 C 49.621094 58.242188 51.144531 59.941406 52.578125 61.707031 L 53.992188 63.453125 L 51.742188 63.347656 C 48.84375 63.214844 45.800781 63.214844 42.902344 63.347656 Z M 47.324219 61.222656 C 48.074219 61.222656 48.820312 61.234375 49.558594 61.25 C 48.832031 60.414062 48.085938 59.601562 47.328125 58.808594 C 46.570312 59.597656 45.824219 60.414062 45.09375 61.25 C 45.832031 61.234375 46.574219 61.222656 47.324219 61.222656 Z M 47.324219 61.222656 " fill-opacity="1" fill-rule="nonzero"/></g><g fill="#000000" fill-opacity="1"><g transform="translate(14.138724, 27.170454)"><g><path d="M 11.921875 -14.9375 C 12.566406 -14.65625 13.101562 -14.171875 13.53125 -13.484375 C 13.957031 -12.796875 14.171875 -12 14.171875 -11.09375 C 14.171875 -9.945312 13.816406 -8.984375 13.109375 -8.203125 C 12.398438 -7.421875 11.398438 -6.945312 10.109375 -6.78125 C 10.671875 -6.394531 11.097656 -6.078125 11.390625 -5.828125 C 11.679688 -5.578125 12.003906 -5.222656 12.359375 -4.765625 C 12.710938 -4.316406 13.144531 -3.675781 13.65625 -2.84375 L 15.421875 0 L 11.703125 0 L 9.203125 -3.75 C 8.640625 -4.582031 8.203125 -5.171875 7.890625 -5.515625 C 7.585938 -5.867188 7.265625 -6.109375 6.921875 -6.234375 C 6.578125 -6.367188 6.085938 -6.4375 5.453125 -6.4375 L 4.671875 -6.4375 L 4.671875 0 L 1.578125 0 L 1.578125 -15.421875 L 8.3125 -15.421875 C 9.050781 -15.421875 9.71875 -15.390625 10.3125 -15.328125 C 10.90625 -15.265625 11.441406 -15.132812 11.921875 -14.9375 Z M 9.71875 -9.078125 C 10.09375 -9.191406 10.394531 -9.40625 10.625 -9.71875 C 10.851562 -10.03125 10.96875 -10.425781 10.96875 -10.90625 C 10.96875 -11.71875 10.613281 -12.285156 9.90625 -12.609375 C 9.71875 -12.691406 9.488281 -12.75 9.21875 -12.78125 C 8.945312 -12.8125 8.484375 -12.828125 7.828125 -12.828125 L 4.671875 -12.828125 L 4.671875 -8.90625 L 7.40625 -8.90625 C 8.53125 -8.90625 9.300781 -8.960938 9.71875 -9.078125 Z M 9.71875 -9.078125 "/></g></g></g><g fill="#000000" fill-opacity="1"><g transform="translate(28.724516, 27.170454)"><g><path d="M 13.015625 -12.828125 L 4.671875 -12.828125 L 4.671875 -9.390625 L 12.4375 -9.390625 L 12.4375 -6.78125 L 4.671875 -6.78125 L 4.671875 -2.609375 L 13.296875 -2.609375 L 13.296875 0 L 1.578125 0 L 1.578125 -15.421875 L 13.015625 -15.421875 Z M 13.015625 -12.828125 "/></g></g></g><g fill="#000000" fill-opacity="1"><g transform="translate(42.125333, 27.170454)"><g><path d="M 15.484375 0 L 12.09375 0 L 10.75 -3.484375 L 4.59375 -3.484375 L 3.3125 0 L 0 0 L 6.015625 -15.421875 L 9.3125 -15.421875 Z M 5.53125 -6.09375 L 9.765625 -6.09375 L 7.625 -11.828125 Z M 5.53125 -6.09375 "/></g></g></g><g fill="#000000" fill-opacity="1"><g transform="translate(56.711126, 27.170454)"><g><path d="M 8.203125 -15.6875 C 9.785156 -15.6875 11.125 -15.300781 12.21875 -14.53125 C 13.3125 -13.757812 14.035156 -12.632812 14.390625 -11.15625 L 11.3125 -10.421875 C 11.125 -11.234375 10.742188 -11.867188 10.171875 -12.328125 C 9.597656 -12.785156 8.894531 -13.015625 8.0625 -13.015625 C 6.851562 -13.015625 5.910156 -12.585938 5.234375 -11.734375 C 4.554688 -10.878906 4.21875 -9.578125 4.21875 -7.828125 C 4.21875 -6.210938 4.492188 -4.90625 5.046875 -3.90625 C 5.597656 -2.90625 6.585938 -2.40625 8.015625 -2.40625 C 8.921875 -2.40625 9.648438 -2.691406 10.203125 -3.265625 C 10.765625 -3.847656 11.171875 -4.648438 11.421875 -5.671875 L 14.4375 -4.71875 C 14.019531 -3.039062 13.257812 -1.789062 12.15625 -0.96875 C 11.050781 -0.144531 9.675781 0.265625 8.03125 0.265625 C 6.644531 0.265625 5.421875 -0.0546875 4.359375 -0.703125 C 3.296875 -1.359375 2.472656 -2.273438 1.890625 -3.453125 C 1.304688 -4.628906 1.015625 -6.003906 1.015625 -7.578125 C 1.015625 -8.992188 1.257812 -10.3125 1.75 -11.53125 C 2.238281 -12.757812 3.019531 -13.757812 4.09375 -14.53125 C 5.164062 -15.300781 6.535156 -15.6875 8.203125 -15.6875 Z M 8.203125 -15.6875 "/></g></g></g><g fill="#000000" fill-opacity="1"><g transform="translate(71.296917, 27.170454)"><g><path d="M 12.6875 -12.828125 L 8.125 -12.828125 L 8.125 0 L 5.015625 0 L 5.015625 -12.828125 L 0.453125 -12.828125 L 0.453125 -15.421875 L 12.6875 -15.421875 Z M 12.6875 -12.828125 "/></g></g></g></svg>